<?xml version="1.0" encoding="UTF-8" standalone="no"?>
<!-- Generator: visioncortex VTracer 0.6.12 -->

<svg
   version="1.1"
   width="64"
   height="64"
   viewBox="0 0 256 256"
   id="svg86"
   sodipodi:docname="biplane-0.svg"
   inkscape:version="1.4.4 (dcaf3e7d9e, 2026-05-05)"
   xmlns:inkscape="http://www.inkscape.org/namespaces/inkscape"
   xmlns:sodipodi="http://sodipodi.sourceforge.net/DTD/sodipodi-0.dtd"
   xmlns="http://www.w3.org/2000/svg"
   xmlns:svg="http://www.w3.org/2000/svg">
  <defs
     id="defs86" />
  <sodipodi:namedview
     id="namedview86"
     pagecolor="#ffffff"
     bordercolor="#000000"
     borderopacity="0.25"
     inkscape:showpageshadow="2"
     inkscape:pageopacity="0.0"
     inkscape:pagecheckerboard="0"
     inkscape:deskcolor="#d1d1d1"
     inkscape:antialias-rendering="false"
     inkscape:clip-to-page="true"
     showborder="true"
     borderlayer="true"
     inkscape:zoom="12.5"
     inkscape:cx="31.96"
     inkscape:cy="32"
     inkscape:window-width="1920"
     inkscape:window-height="1043"
     inkscape:window-x="0"
     inkscape:window-y="0"
     inkscape:window-maximized="1"
     inkscape:current-layer="svg86" />
  <path
     d="M0 0 C3.960000000000008 0 7.9199999999999875 0 12 0 C12 1.3200000000000003 12 2.6400000000000006 12 4 C13.319999999999993 4 14.639999999999986 4 16 4 C16 5.32 16 6.640000000000001 16 8 C17.319999999999993 8 18.639999999999986 8 20 8 C20 9.319999999999993 20 10.64 20 12 C21.319999999999993 12 22.639999999999986 12 24 12 C24 13.319999999999993 24 14.64 24 16 C25.319999999999993 16 26.639999999999986 16 28 16 C28 33.16 28 50.31999999999999 28 68 C26.680000000000007 68 25.360000000000014 68 24 68 C24 69.32 24 70.64 24 72 C22.680000000000007 72 21.360000000000014 72 20 72 C20 73.32 20 74.63999999999999 20 76 C16.039999999999992 76 12.080000000000013 76 8 76 C8 77.32 8 78.63999999999999 8 80 C4.039999999999992 80 0.0800000000000125 80 -4 80 C-4 81.32 -4 82.63999999999999 -4 84 C-9.280000000000001 84 -14.560000000000002 84 -20 84 C-20 85.32 -20 86.63999999999999 -20 88 C-25.28 88 -30.560000000000002 88 -36 88 C-36 89.32 -36 90.63999999999999 -36 92 C-41.28 92 -46.56 92 -52 92 C-52 93.32 -52 94.63999999999999 -52 96 C-57.28 96 -62.56 96 -68 96 C-68 97.32 -68 98.63999999999999 -68 100 C-71.96000000000001 100 -75.91999999999999 100 -80 100 C-80 101.32 -80 102.63999999999999 -80 104 C-85.28 104 -90.56 104 -96 104 C-96 105.32 -96 106.63999999999999 -96 108 C-99.96000000000001 108 -103.92 108 -108 108 C-108 109.32 -108 110.63999999999999 -108 112 C-113.28 112 -118.56 112 -124 112 C-124 113.32 -124 114.63999999999999 -124 116 C-127.96 116 -131.92000000000002 116 -136 116 C-136 117.32 -136 118.63999999999999 -136 120 C-138.64 120 -141.28 120 -144 120 C-144 121.32 -144 122.63999999999999 -144 124 C-146.64 124 -149.28 124 -152 124 C-152 125.32 -152 126.63999999999999 -152 128 C-153.32 128 -154.64 128 -156 128 C-156 129.32 -156 130.64 -156 132 C-157.32 132 -158.64 132 -160 132 C-160 135.96 -160 139.92 -160 144 C-161.32 144 -162.64 144 -164 144 C-164 145.32 -164 146.64 -164 148 C-165.32 148 -166.64 148 -168 148 C-168 149.32 -168 150.64 -168 152 C-171.96 152 -175.92000000000002 152 -180 152 C-180 150.68 -180 149.36 -180 148 C-181.32 148 -182.64 148 -184 148 C-184 146.68 -184 145.36 -184 144 C-185.32 144 -186.64 144 -188 144 C-188 140.04 -188 136.08 -188 132 C-186.68 132 -185.36 132 -184 132 C-184 130.68 -184 129.36 -184 128 C-182.68 128 -181.36 128 -180 128 C-180 126.68 -180 125.36000000000001 -180 124 C-178.68 124 -177.36 124 -176 124 C-176 118.72 -176 113.44 -176 108 C-183.92000000000002 108 -191.84 108 -200 108 C-200 106.68 -200 105.36000000000001 -200 104 C-201.32 104 -202.64 104 -204 104 C-204 102.68 -204 101.36000000000001 -204 100 C-205.32 100 -206.64 100 -208 100 C-208 97.36000000000001 -208 94.72 -208 92 C-209.32 92 -210.64 92 -212 92 C-212 101.24000000000001 -212 110.48000000000002 -212 120 C-213.32 120 -214.64 120 -216 120 C-216 121.32 -216 122.63999999999999 -216 124 C-217.32 124 -218.64 124 -220 124 C-220 122.68 -220 121.36000000000001 -220 120 C-221.32 120 -222.64 120 -224 120 C-224 108.12 -224 96.24000000000001 -224 84 C-225.32 84 -226.64 84 -228 84 C-228 78.72 -228 73.44 -228 68 C-226.68 68 -225.36 68 -224 68 C-224 56.120000000000005 -224 44.239999999999995 -224 32 C-222.68 32 -221.36 32 -220 32 C-220 30.680000000000007 -220 29.36 -220 28 C-218.68 28 -217.36 28 -216 28 C-216 29.319999999999993 -216 30.64 -216 32 C-214.68 32 -213.36 32 -212 32 C-212 39.92 -212 47.84 -212 56 C-210.68 56 -209.36 56 -208 56 C-208 53.36 -208 50.72 -208 48 C-206.68 48 -205.36 48 -204 48 C-204 46.68000000000001 -204 45.36 -204 44 C-197.4 44 -190.8 44 -184 44 C-184 42.68000000000001 -184 41.36 -184 40 C-181.36 40 -178.72 40 -176 40 C-176 37.36 -176 34.72 -176 32 C-177.32 32 -178.64 32 -180 32 C-180 28.039999999999992 -180 24.08 -180 20 C-182.64 20 -185.28 20 -188 20 C-188 18.680000000000007 -188 17.36 -188 16 C-189.32 16 -190.64 16 -192 16 C-192 13.36 -192 10.719999999999999 -192 8 C-190.68 8 -189.36 8 -188 8 C-188 6.68 -188 5.359999999999999 -188 4 C-162.92000000000002 4 -137.84 4 -112 4 C-112 5.32 -112 6.640000000000001 -112 8 C-110.68 8 -109.36 8 -108 8 C-108 9.319999999999993 -108 10.64 -108 12 C-105.36 12 -102.72 12 -100 12 C-100 13.319999999999993 -100 14.64 -100 16 C-102.64 16 -105.28 16 -108 16 C-108 17.319999999999993 -108 18.64 -108 20 C-111.96 20 -115.92 20 -120 20 C-120 22.64 -120 25.28 -120 28 C-118.68 28 -117.36 28 -116 28 C-116 33.28 -116 38.56 -116 44 C-104.12 44 -92.24000000000001 44 -80 44 C-80 45.31999999999999 -80 46.64 -80 48 C-78.68 48 -77.36000000000001 48 -76 48 C-76 46.68000000000001 -76 45.36 -76 44 C-60.16 44 -44.31999999999999 44 -28 44 C-28 41.36 -28 38.72 -28 36 C-26.680000000000007 36 -25.360000000000014 36 -24 36 C-24 33.36 -24 30.72 -24 28 C-22.680000000000007 28 -21.360000000000014 28 -20 28 C-20 25.36 -20 22.72 -20 20 C-18.680000000000007 20 -17.360000000000014 20 -16 20 C-16 18.680000000000007 -16 17.36 -16 16 C-14.680000000000007 16 -13.360000000000014 16 -12 16 C-12 13.36 -12 10.719999999999999 -12 8 C-9.360000000000014 8 -6.719999999999999 8 -4 8 C-4 6.68 -4 5.359999999999999 -4 4 C-2.680000000000007 4 -1.3600000000000136 4 0 4 C0 2.6799999999999997 0 1.3599999999999994 0 0 Z M8 8 C8 10.64 8 13.280000000000001 8 16 C9.319999999999993 16 10.639999999999986 16 12 16 C12 13.36 12 10.719999999999999 12 8 C10.680000000000007 8 9.360000000000014 8 8 8 Z M-168 20 C-168 21.319999999999993 -168 22.64 -168 24 C-169.32 24 -170.64 24 -172 24 C-172 25.319999999999993 -172 26.64 -172 28 C-170.68 28 -169.36 28 -168 28 C-168 31.960000000000008 -168 35.92 -168 40 C-164.04 40 -160.07999999999998 40 -156 40 C-156 41.31999999999999 -156 42.64 -156 44 C-145.44 44 -134.88 44 -124 44 C-124 40.03999999999999 -124 36.08 -124 32 C-125.32 32 -126.64 32 -128 32 C-128 28.039999999999992 -128 24.08 -128 20 C-141.2 20 -154.4 20 -168 20 Z M8 24 C8 29.28 8 34.56 8 40 C9.319999999999993 40 10.639999999999986 40 12 40 C12 34.72 12 29.439999999999998 12 24 C10.680000000000007 24 9.360000000000014 24 8 24 Z M-96 48 C-96 49.31999999999999 -96 50.64 -96 52 C-90.72 52 -85.44 52 -80 52 C-80 50.68000000000001 -80 49.36 -80 48 C-85.28 48 -90.56 48 -96 48 Z M8 48 C8 50.64 8 53.28 8 56 C6.680000000000007 56 5.360000000000014 56 4 56 C4 57.31999999999999 4 58.64 4 60 C6.639999999999986 60 9.280000000000001 60 12 60 C12 56.03999999999999 12 52.08 12 48 C10.680000000000007 48 9.360000000000014 48 8 48 Z M-216 56 C-216 59.96000000000001 -216 63.92 -216 68 C-214.68 68 -213.36 68 -212 68 C-212 64.03999999999999 -212 60.08 -212 56 C-213.32 56 -214.64 56 -216 56 Z M4 68 C4 69.32 4 70.64 4 72 C5.319999999999993 72 6.639999999999986 72 8 72 C8 70.68 8 69.36 8 68 C6.680000000000007 68 5.360000000000014 68 4 68 Z M-172 108 C-172 113.28 -172 118.56 -172 124 C-170.68 124 -169.36 124 -168 124 C-168 125.32 -168 126.63999999999999 -168 128 C-165.36 128 -162.72 128 -160 128 C-160 126.68 -160 125.36000000000001 -160 124 C-158.68 124 -157.36 124 -156 124 C-156 122.68 -156 121.36000000000001 -156 120 C-153.36 120 -150.72 120 -148 120 C-148 118.68 -148 117.36000000000001 -148 116 C-145.36 116 -142.72 116 -140 116 C-140 114.68 -140 113.36000000000001 -140 112 C-136.04 112 -132.07999999999998 112 -128 112 C-128 110.68 -128 109.36000000000001 -128 108 C-142.52 108 -157.04000000000002 108 -172 108 Z "
     fill="#361A00"
     transform="translate(228,56)"
     id="path1" />
  <path
     d="M0 0 C3.9599999999999795 0 7.920000000000016 0 12 0 C12 1.3200000000000003 12 2.6400000000000006 12 4 C13.319999999999993 4 14.639999999999986 4 16 4 C16 5.32 16 6.640000000000001 16 8 C17.319999999999993 8 18.639999999999986 8 20 8 C20 9.319999999999993 20 10.64 20 12 C21.319999999999993 12 22.639999999999986 12 24 12 C24 13.319999999999993 24 14.64 24 16 C25.319999999999993 16 26.639999999999986 16 28 16 C28 33.16 28 50.31999999999999 28 68 C26.680000000000007 68 25.360000000000014 68 24 68 C24 69.32 24 70.64 24 72 C22.680000000000007 72 21.360000000000014 72 20 72 C20 73.32 20 74.63999999999999 20 76 C6.800000000000011 76 -6.400000000000006 76 -20 76 C-20 77.32 -20 78.63999999999999 -20 80 C-23.95999999999998 80 -27.920000000000016 80 -32 80 C-32 81.32 -32 82.63999999999999 -32 84 C-37.28 84 -42.56 84 -48 84 C-48 85.32 -48 86.63999999999999 -48 88 C-53.28 88 -58.56 88 -64 88 C-64 89.32 -64 90.63999999999999 -64 92 C-69.28 92 -74.56 92 -80 92 C-80 93.32 -80 94.63999999999999 -80 96 C-81.32 96 -82.63999999999999 96 -84 96 C-84 94.68 -84 93.36000000000001 -84 92 C-85.32 92 -86.63999999999999 92 -88 92 C-88 90.68 -88 89.36000000000001 -88 88 C-90.63999999999999 88 -93.28 88 -96 88 C-96 82.72 -96 77.44 -96 72 C-97.32 72 -98.63999999999999 72 -100 72 C-100 70.68 -100 69.36 -100 68 C-90.75999999999999 68 -81.52000000000001 68 -72 68 C-72 66.68 -72 65.36 -72 64 C-81.24000000000001 64 -90.47999999999999 64 -100 64 C-100 61.36 -100 58.72 -100 56 C-101.32 56 -102.64 56 -104 56 C-104 53.36 -104 50.72 -104 48 C-102.68 48 -101.36 48 -100 48 C-100 46.68000000000001 -100 45.36 -100 44 C-93.4 44 -86.80000000000001 44 -80 44 C-80 45.31999999999999 -80 46.64 -80 48 C-78.68 48 -77.36000000000001 48 -76 48 C-76 46.68000000000001 -76 45.36 -76 44 C-60.16 44 -44.31999999999999 44 -28 44 C-28 41.36 -28 38.72 -28 36 C-26.680000000000007 36 -25.360000000000014 36 -24 36 C-24 33.36 -24 30.72 -24 28 C-22.680000000000007 28 -21.360000000000014 28 -20 28 C-20 25.36 -20 22.72 -20 20 C-18.680000000000007 20 -17.360000000000014 20 -16 20 C-16 18.680000000000007 -16 17.36 -16 16 C-14.680000000000007 16 -13.360000000000014 16 -12 16 C-12 13.36 -12 10.719999999999999 -12 8 C-9.360000000000014 8 -6.719999999999999 8 -4 8 C-4 6.68 -4 5.359999999999999 -4 4 C-2.680000000000007 4 -1.3600000000000136 4 0 4 C0 2.6799999999999997 0 1.3599999999999994 0 0 Z M8 8 C8 10.64 8 13.280000000000001 8 16 C9.319999999999993 16 10.639999999999986 16 12 16 C12 13.36 12 10.719999999999999 12 8 C10.680000000000007 8 9.360000000000014 8 8 8 Z M8 24 C8 29.28 8 34.56 8 40 C9.319999999999993 40 10.639999999999986 40 12 40 C12 34.72 12 29.439999999999998 12 24 C10.680000000000007 24 9.360000000000014 24 8 24 Z M-96 48 C-96 49.31999999999999 -96 50.64 -96 52 C-90.72 52 -85.44 52 -80 52 C-80 50.68000000000001 -80 49.36 -80 48 C-85.28 48 -90.56 48 -96 48 Z M8 48 C8 50.64 8 53.28 8 56 C6.680000000000007 56 5.360000000000014 56 4 56 C4 57.31999999999999 4 58.64 4 60 C6.639999999999986 60 9.280000000000001 60 12 60 C12 56.03999999999999 12 52.08 12 48 C10.680000000000007 48 9.360000000000014 48 8 48 Z M4 68 C4 69.32 4 70.64 4 72 C5.319999999999993 72 6.639999999999986 72 8 72 C8 70.68 8 69.36 8 68 C6.680000000000007 68 5.360000000000014 68 4 68 Z "
     fill="#C70100"
     transform="translate(228,56)"
     id="path2" />
  <path
     d="M0 0 C1.3200000000000003 0 2.6400000000000006 0 4 0 C4 1.3199999999999932 4 2.6400000000000006 4 4 C5.32 4 6.640000000000001 4 8 4 C8 11.920000000000002 8 19.840000000000003 8 28 C9.32 28 10.64 28 12 28 C12 25.36 12 22.72 12 20 C13.32 20 14.64 20 16 20 C16 18.680000000000007 16 17.36 16 16 C18.64 16 21.28 16 24 16 C24 35.8 24 55.599999999999994 24 76 C26.64 76 29.28 76 32 76 C32 74.68 32 73.36000000000001 32 72 C37.28 72 42.56 72 48 72 C48 69.36000000000001 48 66.72 48 64 C73.08 64 98.16 64 124 64 C124 62.68000000000001 124 61.360000000000014 124 60 C126.63999999999999 60 129.28 60 132 60 C132 61.31999999999999 132 62.639999999999986 132 64 C133.32 64 134.64 64 136 64 C136 65.32 136 66.63999999999999 136 68 C137.32 68 138.64 68 140 68 C140 66.68 140 65.36000000000001 140 64 C145.28 64 150.56 64 156 64 C156 62.68000000000001 156 61.360000000000014 156 60 C161.28 60 166.56 60 172 60 C172 58.68000000000001 172 57.360000000000014 172 56 C177.28 56 182.56 56 188 56 C188 54.68000000000001 188 53.360000000000014 188 52 C191.96 52 195.92 52 200 52 C200 50.68000000000001 200 49.360000000000014 200 48 C209.24 48 218.48 48 228 48 C228 49.31999999999999 228 50.639999999999986 228 52 C224.04 52 220.08 52 216 52 C216 53.31999999999999 216 54.639999999999986 216 56 C210.72 56 205.44 56 200 56 C200 57.31999999999999 200 58.639999999999986 200 60 C194.72 60 189.44 60 184 60 C184 61.31999999999999 184 62.639999999999986 184 64 C178.72 64 173.44 64 168 64 C168 65.32 168 66.63999999999999 168 68 C162.72 68 157.44 68 152 68 C152 69.32 152 70.63999999999999 152 72 C148.04 72 144.08 72 140 72 C140 73.32 140 74.63999999999999 140 76 C134.72 76 129.44 76 124 76 C124 77.32 124 78.63999999999999 124 80 C120.03999999999999 80 116.08 80 112 80 C112 81.32 112 82.63999999999999 112 84 C106.72 84 101.44 84 96 84 C96 85.32 96 86.63999999999999 96 88 C92.04 88 88.08 88 84 88 C84 89.32 84 90.63999999999999 84 92 C81.36 92 78.72 92 76 92 C76 93.32 76 94.63999999999999 76 96 C73.36 96 70.72 96 68 96 C68 97.32 68 98.63999999999999 68 100 C66.68 100 65.36 100 64 100 C64 101.32 64 102.63999999999999 64 104 C62.68000000000001 104 61.36 104 60 104 C60 107.95999999999998 60 111.92000000000002 60 116 C58.68000000000001 116 57.36 116 56 116 C56 117.32 56 118.63999999999999 56 120 C54.68 120 53.36 120 52 120 C52 121.32 52 122.63999999999999 52 124 C48.04 124 44.08 124 40 124 C40 122.68 40 121.36000000000001 40 120 C38.68 120 37.36 120 36 120 C36 118.68 36 117.36000000000001 36 116 C34.68 116 33.36 116 32 116 C32 112.04000000000002 32 108.07999999999998 32 104 C33.32 104 34.64 104 36 104 C36 102.68 36 101.36000000000001 36 100 C37.32 100 38.64 100 40 100 C40 98.68 40 97.36000000000001 40 96 C41.32 96 42.64 96 44 96 C44 90.72 44 85.44 44 80 C36.08 80 28.159999999999997 80 20 80 C20 78.68 20 77.36000000000001 20 76 C18.68 76 17.36 76 16 76 C16 74.68 16 73.36000000000001 16 72 C14.68 72 13.36 72 12 72 C12 69.36000000000001 12 66.72 12 64 C10.68 64 9.36 64 8 64 C8 73.24000000000001 8 82.48000000000002 8 92 C6.68 92 5.359999999999999 92 4 92 C4 93.32 4 94.63999999999999 4 96 C2.6799999999999997 96 1.3599999999999994 96 0 96 C0 94.68 0 93.36000000000001 0 92 C-1.3200000000000003 92 -2.6400000000000006 92 -4 92 C-4 80.12 -4 68.24000000000001 -4 56 C-5.32 56 -6.640000000000001 56 -8 56 C-8 50.72 -8 45.44 -8 40 C-6.68 40 -5.359999999999999 40 -4 40 C-4 28.120000000000005 -4 16.239999999999995 -4 4 C-2.6799999999999997 4 -1.3599999999999994 4 0 4 C0 2.680000000000007 0 1.3599999999999994 0 0 Z M4 28 C4 31.960000000000008 4 35.92 4 40 C5.32 40 6.640000000000001 40 8 40 C8 36.03999999999999 8 32.08 8 28 C6.68 28 5.359999999999999 28 4 28 Z M48 80 C48 85.28 48 90.56 48 96 C49.32 96 50.64 96 52 96 C52 97.32 52 98.63999999999999 52 100 C54.64 100 57.28 100 60 100 C60 98.68 60 97.36000000000001 60 96 C61.31999999999999 96 62.64 96 64 96 C64 94.68 64 93.36000000000001 64 92 C66.64 92 69.28 92 72 92 C72 90.68 72 89.36000000000001 72 88 C74.64 88 77.28 88 80 88 C80 86.68 80 85.36000000000001 80 84 C83.96000000000001 84 87.92 84 92 84 C92 82.68 92 81.36000000000001 92 80 C77.47999999999999 80 62.959999999999994 80 48 80 Z "
     fill="#351C04"
     transform="translate(8,84)"
     id="path3" />
  <path
     d="M0 0 C1.3200000000000003 0 2.6400000000000006 0 4 0 C4 1.3199999999999932 4 2.6400000000000006 4 4 C5.32 4 6.640000000000001 4 8 4 C8 9.280000000000001 8 14.560000000000002 8 20 C9.32 20 10.64 20 12 20 C12 23.960000000000008 12 27.92 12 32 C13.32 32 14.64 32 16 32 C16 33.31999999999999 16 34.639999999999986 16 36 C13.36 36 10.719999999999999 36 8 36 C8 37.31999999999999 8 38.639999999999986 8 40 C31.760000000000005 40 55.52000000000001 40 80 40 C80 41.31999999999999 80 42.639999999999986 80 44 C81.32 44 82.63999999999999 44 84 44 C84 45.31999999999999 84 46.639999999999986 84 48 C58.92 48 33.84 48 8 48 C8 50.639999999999986 8 53.28 8 56 C2.719999999999999 56 -2.5600000000000023 56 -8 56 C-8 57.31999999999999 -8 58.639999999999986 -8 60 C-10.64 60 -13.280000000000001 60 -16 60 C-16 41.51999999999998 -16 23.039999999999992 -16 4 C-10.719999999999999 4 -5.439999999999998 4 0 4 C0 2.680000000000007 0 1.3599999999999994 0 0 Z "
     fill="#C80000"
     transform="translate(48,100)"
     id="path4" />
  <path
     d="M0 0 C9.240000000000009 0 18.47999999999999 0 28 0 C28 1.3199999999999932 28 2.6399999999999864 28 4 C24.039999999999992 4 20.080000000000013 4 16 4 C16 5.319999999999993 16 6.639999999999986 16 8 C10.719999999999999 8 5.439999999999998 8 0 8 C0 9.319999999999993 0 10.639999999999986 0 12 C-5.280000000000001 12 -10.560000000000002 12 -16 12 C-16 13.319999999999993 -16 14.639999999999986 -16 16 C-21.28 16 -26.560000000000002 16 -32 16 C-32 17.319999999999993 -32 18.639999999999986 -32 20 C-37.28 20 -42.56 20 -48 20 C-48 21.319999999999993 -48 22.639999999999986 -48 24 C-51.95999999999998 24 -55.920000000000016 24 -60 24 C-60 25.319999999999993 -60 26.639999999999986 -60 28 C-95.64 28 -131.28 28 -168 28 C-168 26.680000000000007 -168 25.360000000000014 -168 24 C-162.72 24 -157.44 24 -152 24 C-152 21.360000000000014 -152 18.72 -152 16 C-126.92 16 -101.84 16 -76 16 C-76 14.680000000000007 -76 13.360000000000014 -76 12 C-73.36000000000001 12 -70.72 12 -68 12 C-68 13.319999999999993 -68 14.639999999999986 -68 16 C-66.68 16 -65.36000000000001 16 -64 16 C-64 17.319999999999993 -64 18.639999999999986 -64 20 C-62.68000000000001 20 -61.360000000000014 20 -60 20 C-60 18.680000000000007 -60 17.360000000000014 -60 16 C-54.72 16 -49.44 16 -44 16 C-44 14.680000000000007 -44 13.360000000000014 -44 12 C-38.72 12 -33.44 12 -28 12 C-28 10.680000000000007 -28 9.360000000000014 -28 8 C-22.72 8 -17.439999999999998 8 -12 8 C-12 6.680000000000007 -12 5.360000000000014 -12 4 C-8.039999999999992 4 -4.0800000000000125 4 0 4 C0 2.680000000000007 0 1.3600000000000136 0 0 Z "
     fill="#850000"
     transform="translate(208,132)"
     id="path5" />
  <path
     d="M0 0 C3.9599999999999795 0 7.920000000000016 0 12 0 C12 1.3200000000000003 12 2.6400000000000006 12 4 C13.319999999999993 4 14.639999999999986 4 16 4 C16 5.32 16 6.640000000000001 16 8 C17.319999999999993 8 18.639999999999986 8 20 8 C20 9.319999999999993 20 10.64 20 12 C21.319999999999993 12 22.639999999999986 12 24 12 C24 13.319999999999993 24 14.64 24 16 C25.319999999999993 16 26.639999999999986 16 28 16 C28 33.16 28 50.31999999999999 28 68 C26.680000000000007 68 25.360000000000014 68 24 68 C24 69.32 24 70.64 24 72 C22.680000000000007 72 21.360000000000014 72 20 72 C20 73.32 20 74.63999999999999 20 76 C17.360000000000014 76 14.719999999999999 76 12 76 C12 74.68 12 73.36000000000001 12 72 C10.680000000000007 72 9.360000000000014 72 8 72 C8 70.68 8 69.36 8 68 C6.680000000000007 68 5.360000000000014 68 4 68 C4 65.36 4 62.72 4 60 C6.639999999999986 60 9.280000000000001 60 12 60 C12 56.03999999999999 12 52.08 12 48 C10.680000000000007 48 9.360000000000014 48 8 48 C8 45.36 8 42.72 8 40 C9.319999999999993 40 10.639999999999986 40 12 40 C12 34.72 12 29.439999999999998 12 24 C10.680000000000007 24 9.360000000000014 24 8 24 C8 21.36 8 18.72 8 16 C9.319999999999993 16 10.639999999999986 16 12 16 C12 13.36 12 10.719999999999999 12 8 C8.04000000000002 8 4.079999999999984 8 0 8 C0 9.319999999999993 0 10.64 0 12 C-2.6399999999999864 12 -5.280000000000001 12 -8 12 C-8 14.64 -8 17.28 -8 20 C-9.319999999999993 20 -10.639999999999986 20 -12 20 C-12 21.319999999999993 -12 22.64 -12 24 C-13.319999999999993 24 -14.639999999999986 24 -16 24 C-16 26.64 -16 29.28 -16 32 C-17.319999999999993 32 -18.639999999999986 32 -20 32 C-20 34.64 -20 37.28 -20 40 C-21.319999999999993 40 -22.639999999999986 40 -24 40 C-24 42.64 -24 45.28 -24 48 C-37.19999999999999 48 -50.400000000000006 48 -64 48 C-64 51.96000000000001 -64 55.92 -64 60 C-65.32 60 -66.63999999999999 60 -68 60 C-68 56.03999999999999 -68 52.08 -68 48 C-69.32 48 -70.63999999999999 48 -72 48 C-72 46.68000000000001 -72 45.36 -72 44 C-57.47999999999999 44 -42.96000000000001 44 -28 44 C-28 41.36 -28 38.72 -28 36 C-26.680000000000007 36 -25.360000000000014 36 -24 36 C-24 33.36 -24 30.72 -24 28 C-22.680000000000007 28 -21.360000000000014 28 -20 28 C-20 25.36 -20 22.72 -20 20 C-18.680000000000007 20 -17.360000000000014 20 -16 20 C-16 18.680000000000007 -16 17.36 -16 16 C-14.680000000000007 16 -13.360000000000014 16 -12 16 C-12 13.36 -12 10.719999999999999 -12 8 C-9.360000000000014 8 -6.719999999999999 8 -4 8 C-4 6.68 -4 5.359999999999999 -4 4 C-2.680000000000007 4 -1.3600000000000136 4 0 4 C0 2.6799999999999997 0 1.3599999999999994 0 0 Z "
     fill="#C60000"
     transform="translate(228,56)"
     id="path6" />
  <path
     d="M0 0 C3.960000000000001 0 7.920000000000002 0 12 0 C12 1.3199999999999932 12 2.6400000000000006 12 4 C22.560000000000002 4 33.120000000000005 4 44 4 C44 5.319999999999993 44 6.640000000000001 44 8 C45.31999999999999 8 46.64 8 48 8 C48 13.280000000000001 48 18.560000000000002 48 24 C49.31999999999999 24 50.64 24 52 24 C52 27.960000000000008 52 31.92 52 36 C53.31999999999999 36 54.64 36 56 36 C56 37.31999999999999 56 38.639999999999986 56 40 C45.44 40 34.879999999999995 40 24 40 C24 37.360000000000014 24 34.72 24 32 C22.680000000000007 32 21.36 32 20 32 C20 28.039999999999992 20 24.08 20 20 C18.680000000000007 20 17.36 20 16 20 C16 25.28 16 30.560000000000002 16 36 C17.319999999999993 36 18.64 36 20 36 C20 37.31999999999999 20 38.639999999999986 20 40 C17.36 40 14.719999999999999 40 12 40 C12 37.360000000000014 12 34.72 12 32 C10.680000000000007 32 9.36 32 8 32 C8 28.039999999999992 8 24.08 8 20 C6.680000000000007 20 5.359999999999999 20 4 20 C4 14.719999999999999 4 9.439999999999998 4 4 C2.6799999999999997 4 1.3599999999999994 4 0 4 C0 2.680000000000007 0 1.3599999999999994 0 0 Z "
     fill="#C80000"
     transform="translate(60,96)"
     id="path7" />
  <path
     d="M0 0 C33 0 66 0 100 0 C100 1.3199999999999932 100 2.6399999999999864 100 4 C96.04000000000002 4 92.08 4 88 4 C88 5.319999999999993 88 6.639999999999986 88 8 C82.72 8 77.44 8 72 8 C72 9.319999999999993 72 10.639999999999986 72 12 C68.04 12 64.08 12 60 12 C60 13.319999999999993 60 14.639999999999986 60 16 C57.36 16 54.72 16 52 16 C52 17.319999999999993 52 18.639999999999986 52 20 C49.36 20 46.72 20 44 20 C44 21.319999999999993 44 22.639999999999986 44 24 C42.68000000000001 24 41.36 24 40 24 C40 25.319999999999993 40 26.639999999999986 40 28 C38.68000000000001 28 37.36 28 36 28 C36 31.960000000000008 36 35.920000000000016 36 40 C34.68000000000001 40 33.36 40 32 40 C32 41.31999999999999 32 42.639999999999986 32 44 C30.68 44 29.36 44 28 44 C28 45.31999999999999 28 46.639999999999986 28 48 C24.04 48 20.08 48 16 48 C16 46.68000000000001 16 45.360000000000014 16 44 C14.68 44 13.36 44 12 44 C12 42.68000000000001 12 41.360000000000014 12 40 C10.68 40 9.36 40 8 40 C8 36.03999999999999 8 32.079999999999984 8 28 C9.32 28 10.64 28 12 28 C12 26.680000000000007 12 25.360000000000014 12 24 C13.32 24 14.64 24 16 24 C16 22.680000000000007 16 21.360000000000014 16 20 C17.32 20 18.64 20 20 20 C20 14.719999999999999 20 9.439999999999998 20 4 C13.399999999999999 4 6.799999999999997 4 0 4 C0 2.680000000000007 0 1.3600000000000136 0 0 Z M24 4 C24 9.280000000000001 24 14.560000000000002 24 20 C25.32 20 26.64 20 28 20 C28 21.319999999999993 28 22.639999999999986 28 24 C30.64 24 33.28 24 36 24 C36 22.680000000000007 36 21.360000000000014 36 20 C37.31999999999999 20 38.64 20 40 20 C40 18.680000000000007 40 17.360000000000014 40 16 C42.64 16 45.28 16 48 16 C48 14.680000000000007 48 13.360000000000014 48 12 C50.64 12 53.28 12 56 12 C56 10.680000000000007 56 9.360000000000014 56 8 C59.96000000000001 8 63.92 8 68 8 C68 6.680000000000007 68 5.360000000000014 68 4 C53.47999999999999 4 38.959999999999994 4 24 4 Z "
     fill="#520000"
     transform="translate(32,160)"
     id="path8" />
  <path
     d="M0 0 C25.08 0 50.16 0 76 0 C76 1.3200000000000003 76 2.6400000000000006 76 4 C77.32 4 78.64 4 80 4 C80 5.319999999999993 80 6.640000000000001 80 8 C82.64 8 85.28 8 88 8 C88 9.319999999999993 88 10.64 88 12 C57.64 12 27.28 12 -4 12 C-4 9.36 -4 6.719999999999999 -4 4 C-2.6799999999999997 4 -1.3599999999999994 4 0 4 C0 2.6799999999999997 0 1.3599999999999994 0 0 Z "
     fill="#D1601C"
     transform="translate(40,60)"
     id="path9" />
  <path
     d="M0 0 C9.240000000000009 0 18.480000000000018 0 28 0 C28 1.3199999999999932 28 2.6399999999999864 28 4 C24.04000000000002 4 20.079999999999984 4 16 4 C16 5.319999999999993 16 6.639999999999986 16 8 C10.719999999999999 8 5.439999999999998 8 0 8 C0 9.319999999999993 0 10.639999999999986 0 12 C-5.280000000000001 12 -10.560000000000002 12 -16 12 C-16 13.319999999999993 -16 14.639999999999986 -16 16 C-21.28 16 -26.560000000000002 16 -32 16 C-32 17.319999999999993 -32 18.639999999999986 -32 20 C-37.28 20 -42.56 20 -48 20 C-48 21.319999999999993 -48 22.639999999999986 -48 24 C-51.96000000000001 24 -55.920000000000016 24 -60 24 C-60 25.319999999999993 -60 26.639999999999986 -60 28 C-65.28 28 -70.56 28 -76 28 C-76 26.680000000000007 -76 25.360000000000014 -76 24 C-72.03999999999999 24 -68.08000000000001 24 -64 24 C-64 22.680000000000007 -64 21.360000000000014 -64 20 C-62.68000000000001 20 -61.360000000000014 20 -60 20 C-60 18.680000000000007 -60 17.360000000000014 -60 16 C-54.72 16 -49.44 16 -44 16 C-44 14.680000000000007 -44 13.360000000000014 -44 12 C-38.72 12 -33.44 12 -28 12 C-28 10.680000000000007 -28 9.360000000000014 -28 8 C-22.72 8 -17.439999999999998 8 -12 8 C-12 6.680000000000007 -12 5.360000000000014 -12 4 C-8.04000000000002 4 -4.079999999999984 4 0 4 C0 2.680000000000007 0 1.3600000000000136 0 0 Z "
     fill="#520000"
     transform="translate(208,132)"
     id="path10" />
  <path
     d="M0 0 C3.960000000000001 0 7.920000000000002 0 12 0 C12 1.3199999999999932 12 2.6400000000000006 12 4 C22.560000000000002 4 33.120000000000005 4 44 4 C44 5.319999999999993 44 6.640000000000001 44 8 C45.31999999999999 8 46.64 8 48 8 C48 9.319999999999993 48 10.64 48 12 C37.44 12 26.879999999999995 12 16 12 C16 19.92 16 27.840000000000003 16 36 C17.319999999999993 36 18.64 36 20 36 C20 37.31999999999999 20 38.639999999999986 20 40 C17.36 40 14.719999999999999 40 12 40 C12 37.360000000000014 12 34.72 12 32 C10.680000000000007 32 9.36 32 8 32 C8 28.039999999999992 8 24.08 8 20 C6.680000000000007 20 5.359999999999999 20 4 20 C4 14.719999999999999 4 9.439999999999998 4 4 C2.6799999999999997 4 1.3599999999999994 4 0 4 C0 2.680000000000007 0 1.3599999999999994 0 0 Z "
     fill="#520000"
     transform="translate(60,96)"
     id="path11" />
  <path
     d="M0 0 C3.960000000000001 0 7.920000000000002 0 12 0 C12 1.3199999999999932 12 2.6399999999999864 12 4 C13.32 4 14.64 4 16 4 C16 5.319999999999993 16 6.639999999999986 16 8 C17.319999999999993 8 18.64 8 20 8 C20 11.960000000000008 20 15.919999999999987 20 20 C18.680000000000007 20 17.36 20 16 20 C16 21.319999999999993 16 22.639999999999986 16 24 C14.68 24 13.36 24 12 24 C12 25.319999999999993 12 26.639999999999986 12 28 C8.04 28 4.079999999999998 28 0 28 C0 26.680000000000007 0 25.360000000000014 0 24 C-1.3200000000000003 24 -2.6400000000000006 24 -4 24 C-4 22.680000000000007 -4 21.360000000000014 -4 20 C-5.32 20 -6.640000000000001 20 -8 20 C-8 16.039999999999992 -8 12.080000000000013 -8 8 C-6.68 8 -5.359999999999999 8 -4 8 C-4 6.680000000000007 -4 5.360000000000014 -4 4 C-2.6799999999999997 4 -1.3599999999999994 4 0 4 C0 2.680000000000007 0 1.3600000000000136 0 0 Z "
     fill="#121212"
     transform="translate(48,180)"
     id="path12" />
  <path
     d="M0 0 C23.760000000000005 0 47.52000000000001 0 72 0 C72 1.3199999999999932 72 2.6399999999999864 72 4 C73.32 4 74.63999999999999 4 76 4 C76 5.319999999999993 76 6.639999999999986 76 8 C50.92 8 25.840000000000003 8 0 8 C0 5.360000000000014 0 2.719999999999999 0 0 Z "
     fill="#D5621D"
     transform="translate(56,140)"
     id="path13" />
  <path
     d="M0 0 C6.599999999999994 0 13.199999999999989 0 20 0 C20 1.3199999999999932 20 2.6400000000000006 20 4 C21.319999999999993 4 22.639999999999986 4 24 4 C24 2.680000000000007 24 1.3599999999999994 24 0 C25.319999999999993 0 26.639999999999986 0 28 0 C28 1.3199999999999932 28 2.6400000000000006 28 4 C29.319999999999993 4 30.639999999999986 4 32 4 C32 7.959999999999994 32 11.920000000000002 32 16 C30.680000000000007 16 29.360000000000014 16 28 16 C28 17.319999999999993 28 18.64 28 20 C18.75999999999999 20 9.52000000000001 20 0 20 C0 17.36 0 14.719999999999999 0 12 C-1.3199999999999932 12 -2.6400000000000006 12 -4 12 C-4 9.36 -4 6.719999999999999 -4 4 C-2.680000000000007 4 -1.3599999999999994 4 0 4 C0 2.680000000000007 0 1.3599999999999994 0 0 Z M4 4 C4 5.319999999999993 4 6.640000000000001 4 8 C9.280000000000001 8 14.560000000000002 8 20 8 C20 6.680000000000007 20 5.359999999999999 20 4 C14.719999999999999 4 9.439999999999998 4 4 4 Z "
     fill="#D87E2D"
     transform="translate(128,100)"
     id="path14" />
  <path
     d="M0 0 C2.6399999999999864 0 5.280000000000001 0 8 0 C8 2.6400000000000006 8 5.280000000000001 8 8 C5.360000000000014 8 2.719999999999999 8 0 8 C0 9.319999999999993 0 10.64 0 12 C-2.6399999999999864 12 -5.280000000000001 12 -8 12 C-8 14.64 -8 17.28 -8 20 C-9.319999999999993 20 -10.639999999999986 20 -12 20 C-12 21.319999999999993 -12 22.64 -12 24 C-13.319999999999993 24 -14.639999999999986 24 -16 24 C-16 26.64 -16 29.28 -16 32 C-17.319999999999993 32 -18.639999999999986 32 -20 32 C-20 34.64 -20 37.28 -20 40 C-21.319999999999993 40 -22.639999999999986 40 -24 40 C-24 42.64 -24 45.28 -24 48 C-37.19999999999999 48 -50.400000000000006 48 -64 48 C-64 51.96000000000001 -64 55.92 -64 60 C-65.32 60 -66.63999999999999 60 -68 60 C-68 56.03999999999999 -68 52.08 -68 48 C-69.32 48 -70.63999999999999 48 -72 48 C-72 46.68000000000001 -72 45.36 -72 44 C-57.47999999999999 44 -42.96000000000001 44 -28 44 C-28 41.36 -28 38.72 -28 36 C-26.680000000000007 36 -25.360000000000014 36 -24 36 C-24 33.36 -24 30.72 -24 28 C-22.680000000000007 28 -21.360000000000014 28 -20 28 C-20 25.36 -20 22.72 -20 20 C-18.680000000000007 20 -17.360000000000014 20 -16 20 C-16 18.680000000000007 -16 17.36 -16 16 C-14.680000000000007 16 -13.360000000000014 16 -12 16 C-12 13.36 -12 10.719999999999999 -12 8 C-9.360000000000014 8 -6.719999999999999 8 -4 8 C-4 6.68 -4 5.359999999999999 -4 4 C-2.680000000000007 4 -1.3600000000000136 4 0 4 C0 2.6799999999999997 0 1.3599999999999994 0 0 Z "
     fill="#520000"
     transform="translate(228,56)"
     id="path15" />
  <path
     d="M0 0 C1.3200000000000003 0 2.6400000000000006 0 4 0 C4 17.159999999999997 4 34.31999999999999 4 52 C2.6799999999999997 52 1.3599999999999994 52 0 52 C0 50.68000000000001 0 49.360000000000014 0 48 C-1.3200000000000003 48 -2.6400000000000006 48 -4 48 C-4 45.360000000000014 -4 42.72 -4 40 C-5.32 40 -6.640000000000001 40 -8 40 C-8 30.75999999999999 -8 21.519999999999996 -8 12 C-6.68 12 -5.359999999999999 12 -4 12 C-4 9.36 -4 6.719999999999999 -4 4 C-2.6799999999999997 4 -1.3599999999999994 4 0 4 C0 2.680000000000007 0 1.3599999999999994 0 0 Z "
     fill="#361A00"
     transform="translate(28,104)"
     id="path16" />
  <path
     d="M0 0 C2.64 0 5.28 0 8 0 C8 1.3199999999999932 8 2.6400000000000006 8 4 C6.68 4 5.359999999999999 4 4 4 C4 6.639999999999986 4 9.280000000000001 4 12 C7.96 12 11.92 12 16 12 C16 13.319999999999993 16 14.639999999999986 16 16 C14.68 16 13.36 16 12 16 C12 23.920000000000016 12 31.840000000000003 12 40 C13.32 40 14.64 40 16 40 C16 43.96000000000001 16 47.920000000000016 16 52 C14.68 52 13.36 52 12 52 C12 53.31999999999999 12 54.639999999999986 12 56 C10.68 56 9.36 56 8 56 C8 54.68000000000001 8 53.360000000000014 8 52 C6.68 52 5.359999999999999 52 4 52 C4 40.120000000000005 4 28.24000000000001 4 16 C2.6799999999999997 16 1.3599999999999999 16 0 16 C0 10.719999999999999 0 5.439999999999998 0 0 Z "
     fill="#351C04"
     transform="translate(0,124)"
     id="path17" />
  <path
     d="M0 0 C2.6400000000000006 0 5.280000000000001 0 8 0 C8 1.3199999999999932 8 2.6400000000000006 8 4 C6.68 4 5.359999999999999 4 4 4 C4 5.319999999999993 4 6.640000000000001 4 8 C2.6799999999999997 8 1.3599999999999994 8 0 8 C0 10.64 0 13.280000000000001 0 16 C-1.3200000000000003 16 -2.6400000000000006 16 -4 16 C-4 25.24000000000001 -4 34.48000000000002 -4 44 C-2.6799999999999997 44 -1.3599999999999994 44 0 44 C0 46.639999999999986 0 49.28 0 52 C1.3200000000000003 52 2.6400000000000006 52 4 52 C4 53.31999999999999 4 54.639999999999986 4 56 C5.32 56 6.640000000000001 56 8 56 C8 58.639999999999986 8 61.28 8 64 C6.68 64 5.359999999999999 64 4 64 C4 62.68000000000001 4 61.360000000000014 4 60 C2.6799999999999997 60 1.3599999999999994 60 0 60 C0 58.68000000000001 0 57.360000000000014 0 56 C-1.3200000000000003 56 -2.6400000000000006 56 -4 56 C-4 53.360000000000014 -4 50.72 -4 48 C-5.32 48 -6.640000000000001 48 -8 48 C-8 53.28 -8 58.56 -8 64 C-9.32 64 -10.64 64 -12 64 C-12 56.079999999999984 -12 48.16 -12 40 C-10.68 40 -9.36 40 -8 40 C-8 30.75999999999999 -8 21.519999999999996 -8 12 C-6.68 12 -5.359999999999999 12 -4 12 C-4 9.36 -4 6.719999999999999 -4 4 C-2.6799999999999997 4 -1.3599999999999994 4 0 4 C0 2.680000000000007 0 1.3599999999999994 0 0 Z "
     fill="#6F3900"
     transform="translate(24,100)"
     id="path18" />
  <path
     d="M0 0 C2.6399999999999864 0 5.280000000000001 0 8 0 C8 1.3199999999999932 8 2.6399999999999864 8 4 C6.680000000000007 4 5.360000000000014 4 4 4 C4 5.319999999999993 4 6.639999999999986 4 8 C-22.400000000000006 8 -48.80000000000001 8 -76 8 C-76 6.680000000000007 -76 5.360000000000014 -76 4 C-50.92 4 -25.840000000000003 4 0 4 C0 2.680000000000007 0 1.3600000000000136 0 0 Z "
     fill="#361A00"
     transform="translate(132,144)"
     id="path19" />
  <path
     d="M0 0 C6.599999999999994 0 13.200000000000003 0 20 0 C20 1.3199999999999932 20 2.6399999999999864 20 4 C14.719999999999999 4 9.439999999999998 4 4 4 C4 5.319999999999993 4 6.639999999999986 4 8 C0.03999999999999204 8 -3.9200000000000017 8 -8 8 C-8 9.319999999999993 -8 10.639999999999986 -8 12 C-10.64 12 -13.280000000000001 12 -16 12 C-16 13.319999999999993 -16 14.639999999999986 -16 16 C-18.64 16 -21.28 16 -24 16 C-24 17.319999999999993 -24 18.639999999999986 -24 20 C-25.319999999999993 20 -26.64 20 -28 20 C-28 21.319999999999993 -28 22.639999999999986 -28 24 C-30.64 24 -33.28 24 -36 24 C-36 22.680000000000007 -36 21.360000000000014 -36 20 C-34.68000000000001 20 -33.36 20 -32 20 C-32 18.680000000000007 -32 17.360000000000014 -32 16 C-30.680000000000007 16 -29.36 16 -28 16 C-28 14.680000000000007 -28 13.360000000000014 -28 12 C-25.36 12 -22.72 12 -20 12 C-20 10.680000000000007 -20 9.360000000000014 -20 8 C-17.36 8 -14.719999999999999 8 -12 8 C-12 6.680000000000007 -12 5.360000000000014 -12 4 C-8.039999999999992 4 -4.079999999999998 4 0 4 C0 2.680000000000007 0 1.3600000000000136 0 0 Z "
     fill="#361A00"
     transform="translate(100,164)"
     id="path20" />
  <path
     d="M0 0 C15.840000000000003 0 31.680000000000007 0 48 0 C48 1.3199999999999932 48 2.6400000000000006 48 4 C46.68000000000001 4 45.360000000000014 4 44 4 C44 5.319999999999993 44 6.640000000000001 44 8 C34.75999999999999 8 25.52000000000001 8 16 8 C16 6.680000000000007 16 5.359999999999999 16 4 C10.719999999999999 4 5.439999999999998 4 0 4 C0 2.680000000000007 0 1.3599999999999994 0 0 Z "
     fill="#FF8E15"
     transform="translate(168,108)"
     id="path21" />
  <path
     d="M0 0 C25.08 0 50.16 0 76 0 C76 1.3200000000000003 76 2.6400000000000006 76 4 C50.92 4 25.840000000000003 4 0 4 C0 2.6799999999999997 0 1.3599999999999994 0 0 Z "
     fill="#361A00"
     transform="translate(40,60)"
     id="path22" />
  <path
     d="M0 0 C3.9599999999999937 0 7.920000000000002 0 12 0 C12 1.3199999999999932 12 2.6400000000000006 12 4 C10.680000000000007 4 9.36 4 8 4 C8 6.640000000000001 8 9.280000000000001 8 12 C9.319999999999993 12 10.64 12 12 12 C12 14.64 12 17.28 12 20 C21.24000000000001 20 30.47999999999999 20 40 20 C40 21.319999999999993 40 22.64 40 24 C30.75999999999999 24 21.52000000000001 24 12 24 C12 25.319999999999993 12 26.64 12 28 C10.680000000000007 28 9.36 28 8 28 C8 24.039999999999992 8 20.08 8 16 C6.680000000000007 16 5.359999999999999 16 4 16 C4 12.039999999999992 4 8.079999999999998 4 4 C2.680000000000007 4 1.3599999999999994 4 0 4 C0 2.680000000000007 0 1.3599999999999994 0 0 Z "
     fill="#361A00"
     transform="translate(116,100)"
     id="path23" />
  <path
     d="M0 0 C1.3199999999999932 0 2.6400000000000006 0 4 0 C4 1.3199999999999932 4 2.6400000000000006 4 4 C5.319999999999993 4 6.640000000000001 4 8 4 C8 7.959999999999994 8 11.920000000000002 8 16 C9.319999999999993 16 10.64 16 12 16 C12 21.28 12 26.560000000000002 12 32 C13.319999999999993 32 14.64 32 16 32 C16 33.31999999999999 16 34.639999999999986 16 36 C13.36 36 10.719999999999999 36 8 36 C8 33.360000000000014 8 30.72 8 28 C6.680000000000007 28 5.359999999999999 28 4 28 C4 24.039999999999992 4 20.08 4 16 C2.680000000000007 16 1.3599999999999994 16 0 16 C0 10.719999999999999 0 5.439999999999998 0 0 Z "
     fill="#C80000"
     transform="translate(64,100)"
     id="path24" />
  <path
     d="M0 0 C10.560000000000002 0 21.120000000000005 0 32 0 C32 2.6400000000000006 32 5.280000000000001 32 8 C21.439999999999998 8 10.879999999999995 8 0 8 C0 5.359999999999999 0 2.719999999999999 0 0 Z "
     fill="#FF8E15"
     transform="translate(76,108)"
     id="path25" />
  <path
     d="M0 0 C1.3200000000000003 0 2.6400000000000006 0 4 0 C4 1.3199999999999932 4 2.6399999999999864 4 4 C5.32 4 6.640000000000001 4 8 4 C8 5.319999999999993 8 6.639999999999986 8 8 C9.32 8 10.64 8 12 8 C12 9.319999999999993 12 10.639999999999986 12 12 C10.68 12 9.36 12 8 12 C8 13.319999999999993 8 14.639999999999986 8 16 C6.68 16 5.359999999999999 16 4 16 C4 17.319999999999993 4 18.639999999999986 4 20 C2.6799999999999997 20 1.3599999999999994 20 0 20 C0 18.680000000000007 0 17.360000000000014 0 16 C-1.3200000000000003 16 -2.6400000000000006 16 -4 16 C-4 14.680000000000007 -4 13.360000000000014 -4 12 C-5.32 12 -6.640000000000001 12 -8 12 C-8 10.680000000000007 -8 9.360000000000014 -8 8 C-6.68 8 -5.359999999999999 8 -4 8 C-4 6.680000000000007 -4 5.360000000000014 -4 4 C-2.6799999999999997 4 -1.3599999999999994 4 0 4 C0 2.680000000000007 0 1.3600000000000136 0 0 Z "
     fill="#EDEDED"
     transform="translate(52,184)"
     id="path26" />
  <path
     d="M0 0 C1.3200000000000003 0 2.6400000000000006 0 4 0 C4 2.6399999999999864 4 5.280000000000001 4 8 C5.32 8 6.640000000000001 8 8 8 C8 9.319999999999993 8 10.639999999999986 8 12 C9.32 12 10.64 12 12 12 C12 13.319999999999993 12 14.639999999999986 12 16 C14.64 16 17.28 16 20 16 C20 17.319999999999993 20 18.639999999999986 20 20 C16.04 20 12.079999999999998 20 8 20 C8 18.680000000000007 8 17.360000000000014 8 16 C6.68 16 5.359999999999999 16 4 16 C4 14.680000000000007 4 13.360000000000014 4 12 C2.6799999999999997 12 1.3599999999999994 12 0 12 C0 8.039999999999992 0 4.0800000000000125 0 0 Z "
     fill="#121212"
     transform="translate(40,188)"
     id="path27" />
  <path
     d="M0 0 C1.3200000000000003 0 2.6400000000000006 0 4 0 C4 11.879999999999995 4 23.75999999999999 4 36 C2.6799999999999997 36 1.3599999999999994 36 0 36 C0 24.120000000000005 0 12.240000000000009 0 0 Z "
     fill="#6F3900"
     transform="translate(4,140)"
     id="path28" />
  <path
     d="M0 0 C1.3200000000000003 0 2.6400000000000006 0 4 0 C4 11.879999999999995 4 23.760000000000005 4 36 C2.6799999999999997 36 1.3599999999999994 36 0 36 C0 24.120000000000005 0 12.239999999999995 0 0 Z "
     fill="#6F3900"
     transform="translate(4,88)"
     id="path29" />
  <path
     d="M0 0 C5.280000000000001 0 10.560000000000002 0 16 0 C16 1.3199999999999932 16 2.6399999999999864 16 4 C12.039999999999992 4 8.079999999999984 4 4 4 C4 5.319999999999993 4 6.639999999999986 4 8 C-1.2800000000000011 8 -6.560000000000002 8 -12 8 C-12 6.680000000000007 -12 5.360000000000014 -12 4 C-8.039999999999992 4 -4.0800000000000125 4 0 4 C0 2.680000000000007 0 1.3600000000000136 0 0 Z "
     fill="#520000"
     transform="translate(144,152)"
     id="path30" />
  <path
     d="M0 0 C10.560000000000002 0 21.120000000000005 0 32 0 C32 1.3199999999999932 32 2.6400000000000006 32 4 C21.439999999999998 4 10.879999999999995 4 0 4 C0 2.680000000000007 0 1.3599999999999994 0 0 Z "
     fill="#C80000"
     transform="translate(76,104)"
     id="path31" />
  <path
     d="M0 0 C9.240000000000009 0 18.47999999999999 0 28 0 C28 1.3199999999999932 28 2.6400000000000006 28 4 C18.75999999999999 4 9.52000000000001 4 0 4 C0 2.680000000000007 0 1.3599999999999994 0 0 Z "
     fill="#B4532D"
     transform="translate(128,116)"
     id="path32" />
  <path
     d="M0 0 C1.3199999999999932 0 2.6400000000000006 0 4 0 C4 1.3199999999999932 4 2.6400000000000006 4 4 C5.319999999999993 4 6.640000000000001 4 8 4 C8 7.959999999999994 8 11.920000000000002 8 16 C5.359999999999999 16 2.719999999999999 16 0 16 C0 10.719999999999999 0 5.439999999999998 0 0 Z "
     fill="#60360F"
     transform="translate(112,100)"
     id="path33" />
  <path
     d="M0 0 C1.3199999999999932 0 2.6400000000000006 0 4 0 C4 3.960000000000008 4 7.9199999999999875 4 12 C2.680000000000007 12 1.3599999999999994 12 0 12 C0 13.319999999999993 0 14.639999999999986 0 16 C-2.6400000000000006 16 -5.280000000000001 16 -8 16 C-8 14.680000000000007 -8 13.360000000000014 -8 12 C-6.68 12 -5.359999999999999 12 -4 12 C-4 10.680000000000007 -4 9.360000000000014 -4 8 C-2.6799999999999997 8 -1.3599999999999994 8 0 8 C0 5.360000000000014 0 2.719999999999999 0 0 Z "
     fill="#0E0E0E"
     transform="translate(64,188)"
     id="path34" />
  <path
     d="M0 0 C1.3200000000000003 0 2.6400000000000006 0 4 0 C4 7.9199999999999875 4 15.840000000000003 4 24 C2.6799999999999997 24 1.3599999999999994 24 0 24 C0 16.079999999999984 0 8.159999999999997 0 0 Z "
     fill="#F89B43"
     transform="translate(12,140)"
     id="path35" />
  <path
     d="M0 0 C3.96 0 7.92 0 12 0 C12 2.6399999999999864 12 5.280000000000001 12 8 C8.04 8 4.08 8 0 8 C0 5.360000000000014 0 2.719999999999999 0 0 Z "
     fill="#575757"
     transform="translate(4,128)"
     id="path36" />
  <path
     d="M0 0 C2.64 0 5.28 0 8 0 C8 1.3199999999999932 8 2.6400000000000006 8 4 C6.68 4 5.359999999999999 4 4 4 C4 6.639999999999986 4 9.280000000000001 4 12 C5.32 12 6.640000000000001 12 8 12 C8 13.319999999999993 8 14.639999999999986 8 16 C5.359999999999999 16 2.7199999999999998 16 0 16 C0 10.719999999999999 0 5.439999999999998 0 0 Z "
     fill="#353535"
     transform="translate(0,124)"
     id="path37" />
  <path
     d="M0 0 C3.960000000000008 0 7.9199999999999875 0 12 0 C12 1.3199999999999932 12 2.6400000000000006 12 4 C10.680000000000007 4 9.360000000000014 4 8 4 C8 7.959999999999994 8 11.920000000000002 8 16 C6.680000000000007 16 5.360000000000014 16 4 16 C4 12.039999999999992 4 8.079999999999998 4 4 C2.680000000000007 4 1.3600000000000136 4 0 4 C0 2.680000000000007 0 1.3599999999999994 0 0 Z "
     fill="#3C2612"
     transform="translate(156,100)"
     id="path38" />
  <path
     d="M0 0 C2.6400000000000006 0 5.280000000000001 0 8 0 C8 1.3199999999999932 8 2.6400000000000006 8 4 C6.68 4 5.359999999999999 4 4 4 C4 5.319999999999993 4 6.640000000000001 4 8 C-1.2800000000000011 8 -6.560000000000002 8 -12 8 C-12 6.680000000000007 -12 5.359999999999999 -12 4 C-8.04 4 -4.079999999999998 4 0 4 C0 2.680000000000007 0 1.3599999999999994 0 0 Z "
     fill="#520000"
     transform="translate(44,96)"
     id="path39" />
  <path
     d="M0 0 C6.599999999999994 0 13.199999999999989 0 20 0 C20 1.3199999999999932 20 2.6400000000000006 20 4 C13.400000000000006 4 6.800000000000011 4 0 4 C0 2.680000000000007 0 1.3599999999999994 0 0 Z "
     fill="#B4532D"
     transform="translate(132,108)"
     id="path40" />
  <path
     d="M0 0 C1.3199999999999932 0 2.6400000000000006 0 4 0 C4 1.3199999999999932 4 2.6400000000000006 4 4 C5.319999999999993 4 6.640000000000001 4 8 4 C8 6.640000000000001 8 9.280000000000001 8 12 C5.359999999999999 12 2.719999999999999 12 0 12 C0 8.039999999999992 0 4.079999999999998 0 0 Z "
     fill="#C80000"
     transform="translate(64,100)"
     id="path42" />
  <path
     d="M0 0 C1.3200000000000003 0 2.6400000000000006 0 4 0 C4 5.280000000000001 4 10.560000000000002 4 16 C2.6799999999999997 16 1.3599999999999994 16 0 16 C0 10.719999999999999 0 5.439999999999998 0 0 Z "
     fill="#361A00"
     transform="translate(52,164)"
     id="path43" />
  <path
     d="M0 0 C2.6399999999999864 0 5.280000000000001 0 8 0 C8 1.3199999999999932 8 2.6400000000000006 8 4 C6.680000000000007 4 5.360000000000014 4 4 4 C4 5.319999999999993 4 6.639999999999986 4 8 C1.3600000000000136 8 -1.2800000000000011 8 -4 8 C-4 6.680000000000007 -4 5.360000000000014 -4 4 C-2.680000000000007 4 -1.3600000000000136 4 0 4 C0 2.680000000000007 0 1.3599999999999994 0 0 Z "
     fill="#520000"
     transform="translate(244,124)"
     id="path44" />
  <path
     d="M0 0 C3.960000000000008 0 7.9199999999999875 0 12 0 C12 1.3199999999999932 12 2.6400000000000006 12 4 C10.680000000000007 4 9.360000000000014 4 8 4 C8 5.319999999999993 8 6.640000000000001 8 8 C6.680000000000007 8 5.360000000000014 8 4 8 C4 6.680000000000007 4 5.359999999999999 4 4 C2.680000000000007 4 1.3600000000000136 4 0 4 C0 2.680000000000007 0 1.3599999999999994 0 0 Z "
     fill="#ED912E"
     transform="translate(204,108)"
     id="path45" />
  <path
     d="M0 0 C3.9599999999999937 0 7.920000000000002 0 12 0 C12 2.6400000000000006 12 5.280000000000001 12 8 C10.680000000000007 8 9.36 8 8 8 C8 6.680000000000007 8 5.359999999999999 8 4 C5.359999999999999 4 2.719999999999999 4 0 4 C0 2.680000000000007 0 1.3599999999999994 0 0 Z "
     fill="#E89337"
     transform="translate(96,108)"
     id="path46" />
  <path
     d="M0 0 C5.280000000000001 0 10.560000000000002 0 16 0 C16 1.3199999999999932 16 2.6400000000000006 16 4 C10.719999999999999 4 5.439999999999998 4 0 4 C0 2.680000000000007 0 1.3599999999999994 0 0 Z "
     fill="#FF8E15"
     transform="translate(40,108)"
     id="path47" />
  <path
     d="M0 0 C1.3200000000000003 0 2.6400000000000006 0 4 0 C4 5.280000000000001 4 10.560000000000002 4 16 C2.6799999999999997 16 1.3599999999999994 16 0 16 C0 10.719999999999999 0 5.439999999999998 0 0 Z "
     fill="#60360F"
     transform="translate(60,100)"
     id="path48" />
  <path
     d="M0 0 C1.3199999999999932 0 2.6400000000000006 0 4 0 C4 5.280000000000001 4 10.560000000000002 4 16 C2.680000000000007 16 1.3599999999999994 16 0 16 C0 10.719999999999999 0 5.439999999999998 0 0 Z "
     fill="#60360F"
     transform="translate(108,84)"
     id="path49" />
  <path
     d="M0 0 C1.3200000000000003 0 2.6400000000000006 0 4 0 C4 5.280000000000001 4 10.560000000000002 4 16 C2.6799999999999997 16 1.3599999999999994 16 0 16 C0 10.719999999999999 0 5.439999999999998 0 0 Z "
     fill="#60360F"
     transform="translate(56,84)"
     id="path50" />
  <path
     d="M0 0 C3.960000000000001 0 7.920000000000002 0 12 0 C12 1.3199999999999932 12 2.6399999999999864 12 4 C8.04 4 4.079999999999998 4 0 4 C0 2.680000000000007 0 1.3600000000000136 0 0 Z "
     fill="#000000"
     transform="translate(48,204)"
     id="path51" />
  <path
     d="M0 0 C2.6400000000000006 0 5.280000000000001 0 8 0 C8 1.3199999999999932 8 2.6399999999999864 8 4 C6.68 4 5.359999999999999 4 4 4 C4 5.319999999999993 4 6.639999999999986 4 8 C2.6799999999999997 8 1.3599999999999994 8 0 8 C0 5.360000000000014 0 2.719999999999999 0 0 Z "
     fill="#252525"
     transform="translate(44,184)"
     id="path52" />
  <path
     d="M0 0 C1.3200000000000003 0 2.6400000000000006 0 4 0 C4 3.960000000000008 4 7.9199999999999875 4 12 C2.6799999999999997 12 1.3599999999999994 12 0 12 C0 8.039999999999992 0 4.0800000000000125 0 0 Z "
     fill="#6E3800"
     transform="translate(12,164)"
     id="path53" />
  <path
     d="M0 0 C3.960000000000008 0 7.9199999999999875 0 12 0 C12 1.3199999999999932 12 2.6399999999999864 12 4 C8.039999999999992 4 4.0800000000000125 4 0 4 C0 2.680000000000007 0 1.3600000000000136 0 0 Z "
     fill="#850000"
     transform="translate(148,148)"
     id="path54" />
  <path
     d="M0 0 C3.960000000000008 0 7.9199999999999875 0 12 0 C12 1.3199999999999932 12 2.6399999999999864 12 4 C8.039999999999992 4 4.0800000000000125 4 0 4 C0 2.680000000000007 0 1.3600000000000136 0 0 Z "
     fill="#850000"
     transform="translate(164,144)"
     id="path55" />
  <path
     d="M0 0 C3.960000000000008 0 7.9199999999999875 0 12 0 C12 1.3199999999999932 12 2.6399999999999864 12 4 C8.039999999999992 4 4.0800000000000125 4 0 4 C0 2.680000000000007 0 1.3600000000000136 0 0 Z "
     fill="#850000"
     transform="translate(208,132)"
     id="path56" />
  <path
     d="M0 0 C1.3199999999999932 0 2.6400000000000006 0 4 0 C4 3.9599999999999937 4 7.920000000000002 4 12 C2.680000000000007 12 1.3599999999999994 12 0 12 C0 8.039999999999992 0 4.079999999999998 0 0 Z "
     fill="#C80000"
     transform="translate(120,116)"
     id="path57" />
  <path
     d="M0 0 C1.3199999999999932 0 2.6400000000000006 0 4 0 C4 3.9599999999999937 4 7.920000000000002 4 12 C2.680000000000007 12 1.3599999999999994 12 0 12 C0 8.039999999999992 0 4.079999999999998 0 0 Z "
     fill="#60360F"
     transform="translate(116,116)"
     id="path58" />
  <path
     d="M0 0 C1.3199999999999932 0 2.6400000000000006 0 4 0 C4 3.9599999999999937 4 7.920000000000002 4 12 C2.680000000000007 12 1.3599999999999994 12 0 12 C0 8.039999999999992 0 4.079999999999998 0 0 Z "
     fill="#60360F"
     transform="translate(64,116)"
     id="path59" />
  <path
     d="M0 0 C1.3199999999999932 0 2.6399999999999864 0 4 0 C4 3.9599999999999937 4 7.920000000000002 4 12 C2.680000000000007 12 1.3600000000000136 12 0 12 C0 8.039999999999992 0 4.079999999999998 0 0 Z "
     fill="#C0612D"
     transform="translate(156,104)"
     id="path60" />
  <path
     d="M0 0 C1.3199999999999932 0 2.6399999999999864 0 4 0 C4 2.6400000000000006 4 5.280000000000001 4 8 C1.3600000000000136 8 -1.2800000000000011 8 -4 8 C-4 6.680000000000007 -4 5.359999999999999 -4 4 C-2.680000000000007 4 -1.3600000000000136 4 0 4 C0 2.680000000000007 0 1.3599999999999994 0 0 Z "
     fill="#E6C5B9"
     transform="translate(152,100)"
     id="path61" />
  <path
     d="M0 0 C2.6400000000000006 0 5.280000000000001 0 8 0 C8 1.3199999999999932 8 2.6400000000000006 8 4 C6.680000000000007 4 5.360000000000014 4 4 4 C4 5.319999999999993 4 6.640000000000001 4 8 C2.680000000000007 8 1.3599999999999994 8 0 8 C0 5.359999999999999 0 2.719999999999999 0 0 Z "
     fill="#C0612D"
     transform="translate(124,104)"
     id="path62" />
  <path
     d="M0 0 C1.3199999999999932 0 2.6400000000000006 0 4 0 C4 3.9599999999999937 4 7.920000000000002 4 12 C2.680000000000007 12 1.3599999999999994 12 0 12 C0 8.039999999999992 0 4.079999999999998 0 0 Z "
     fill="#C80000"
     transform="translate(116,104)"
     id="path63" />
  <path
     d="M0 0 C1.3199999999999932 0 2.6400000000000006 0 4 0 C4 3.9599999999999937 4 7.920000000000002 4 12 C2.680000000000007 12 1.3599999999999994 12 0 12 C0 8.039999999999992 0 4.079999999999998 0 0 Z "
     fill="#361A00"
     transform="translate(72,104)"
     id="path64" />
  <path
     d="M0 0 C3.9599999999999937 0 7.920000000000002 0 12 0 C12 1.3199999999999932 12 2.6400000000000006 12 4 C8.039999999999992 4 4.079999999999998 4 0 4 C0 2.680000000000007 0 1.3599999999999994 0 0 Z "
     fill="#3C2612"
     transform="translate(116,100)"
     id="path65" />
  <path
     d="M0 0 C1.3200000000000003 0 2.6400000000000006 0 4 0 C4 3.9599999999999937 4 7.920000000000002 4 12 C2.6799999999999997 12 1.3599999999999994 12 0 12 C0 8.039999999999992 0 4.079999999999998 0 0 Z "
     fill="#FFA046"
     transform="translate(12,100)"
     id="path66" />
  <path
     d="M0 0 C1.3200000000000003 0 2.6400000000000006 0 4 0 C4 3.9599999999999937 4 7.920000000000002 4 12 C2.6799999999999997 12 1.3599999999999994 12 0 12 C0 8.039999999999992 0 4.079999999999998 0 0 Z "
     fill="#6E3800"
     transform="translate(12,88)"
     id="path67" />
  <path
     d="M0 0 C2.6400000000000006 0 5.280000000000001 0 8 0 C8 1.3199999999999932 8 2.6400000000000006 8 4 C6.68 4 5.359999999999999 4 4 4 C4 5.319999999999993 4 6.640000000000001 4 8 C2.6799999999999997 8 1.3599999999999994 8 0 8 C0 5.359999999999999 0 2.719999999999999 0 0 Z "
     fill="#957A61"
     transform="translate(52,76)"
     id="path68" />
  <path
     d="M0 0 C2.6400000000000006 0 5.280000000000001 0 8 0 C8 1.3199999999999932 8 2.6399999999999864 8 4 C5.359999999999999 4 2.719999999999999 4 0 4 C0 2.680000000000007 0 1.3600000000000136 0 0 Z "
     fill="#1C1C1C"
     transform="translate(56,200)"
     id="path69" />
  <path
     d="M0 0 C2.6399999999999864 0 5.280000000000001 0 8 0 C8 1.3199999999999932 8 2.6399999999999864 8 4 C5.360000000000014 4 2.719999999999999 4 0 4 C0 2.680000000000007 0 1.3600000000000136 0 0 Z "
     fill="#850000"
     transform="translate(180,140)"
     id="path70" />
  <path
     d="M0 0 C1.3200000000000003 0 2.6400000000000006 0 4 0 C4 2.6399999999999864 4 5.280000000000001 4 8 C2.6799999999999997 8 1.3599999999999994 8 0 8 C0 5.360000000000014 0 2.719999999999999 0 0 Z "
     fill="#361A00"
     transform="translate(52,140)"
     id="path71" />
  <path
     d="M0 0 C2.6399999999999864 0 5.280000000000001 0 8 0 C8 1.3199999999999932 8 2.6399999999999864 8 4 C5.360000000000014 4 2.719999999999999 4 0 4 C0 2.680000000000007 0 1.3600000000000136 0 0 Z "
     fill="#850000"
     transform="translate(196,136)"
     id="path72" />
  <path
     d="M0 0 C2.6399999999999864 0 5.280000000000001 0 8 0 C8 1.3199999999999932 8 2.6399999999999864 8 4 C5.360000000000014 4 2.719999999999999 4 0 4 C0 2.680000000000007 0 1.3600000000000136 0 0 Z "
     fill="#E38927"
     transform="translate(232,128)"
     id="path73" />
  <path
     d="M0 0 C1.3199999999999932 0 2.6400000000000006 0 4 0 C4 2.6399999999999864 4 5.280000000000001 4 8 C2.680000000000007 8 1.3599999999999994 8 0 8 C0 5.360000000000014 0 2.719999999999999 0 0 Z "
     fill="#C80000"
     transform="translate(124,128)"
     id="path74" />
  <path
     d="M0 0 C1.3199999999999932 0 2.6400000000000006 0 4 0 C4 2.6399999999999864 4 5.280000000000001 4 8 C2.680000000000007 8 1.3599999999999994 8 0 8 C0 5.360000000000014 0 2.719999999999999 0 0 Z "
     fill="#60360F"
     transform="translate(120,128)"
     id="path75" />
  <path
     d="M0 0 C1.3199999999999932 0 2.6400000000000006 0 4 0 C4 2.6399999999999864 4 5.280000000000001 4 8 C2.680000000000007 8 1.3599999999999994 8 0 8 C0 5.360000000000014 0 2.719999999999999 0 0 Z "
     fill="#60360F"
     transform="translate(68,128)"
     id="path76" />
  <path
     d="M0 0 C1.3199999999999932 0 2.6399999999999864 0 4 0 C4 2.6400000000000006 4 5.280000000000001 4 8 C2.680000000000007 8 1.3600000000000136 8 0 8 C0 5.359999999999999 0 2.719999999999999 0 0 Z "
     fill="#361A00"
     transform="translate(232,116)"
     id="path77" />
  <path
     d="M0 0 C1.3199999999999932 0 2.6399999999999864 0 4 0 C4 2.6400000000000006 4 5.280000000000001 4 8 C2.680000000000007 8 1.3600000000000136 8 0 8 C0 5.359999999999999 0 2.719999999999999 0 0 Z "
     fill="#361A00"
     transform="translate(160,108)"
     id="path78" />
  <path
     d="M0 0 C2.6400000000000006 0 5.280000000000001 0 8 0 C8 1.3199999999999932 8 2.6400000000000006 8 4 C5.359999999999999 4 2.719999999999999 4 0 4 C0 2.680000000000007 0 1.3599999999999994 0 0 Z "
     fill="#FF8E15"
     transform="translate(64,108)"
     id="path79" />
  <path
     d="M0 0 C1.3199999999999932 0 2.6399999999999864 0 4 0 C4 2.6400000000000006 4 5.280000000000001 4 8 C2.680000000000007 8 1.3600000000000136 8 0 8 C0 5.359999999999999 0 2.719999999999999 0 0 Z "
     fill="#361A00"
     transform="translate(236,96)"
     id="path80" />
  <path
     d="M0 0 C1.3199999999999932 0 2.6400000000000006 0 4 0 C4 2.6400000000000006 4 5.280000000000001 4 8 C2.680000000000007 8 1.3599999999999994 8 0 8 C0 5.359999999999999 0 2.719999999999999 0 0 Z "
     fill="#60360F"
     transform="translate(104,76)"
     id="path81" />
  <path
     d="M0 0 C1.3199999999999932 0 2.6399999999999864 0 4 0 C4 2.6400000000000006 4 5.280000000000001 4 8 C2.680000000000007 8 1.3600000000000136 8 0 8 C0 5.359999999999999 0 2.719999999999999 0 0 Z "
     fill="#361A00"
     transform="translate(236,72)"
     id="path82" />
  <path
     d="M0 0 C2.6400000000000006 0 5.280000000000001 0 8 0 C8 1.3199999999999932 8 2.6400000000000006 8 4 C5.359999999999999 4 2.719999999999999 4 0 4 C0 2.680000000000007 0 1.3599999999999994 0 0 Z "
     fill="#361A00"
     transform="translate(120,68)"
     id="path83" />
  <path
     d="M0 0 C1.3200000000000003 0 2.6400000000000006 0 4 0 C4 2.6400000000000006 4 5.280000000000001 4 8 C2.6799999999999997 8 1.3599999999999994 8 0 8 C0 5.359999999999999 0 2.719999999999999 0 0 Z "
     fill="#361A00"
     transform="translate(36,64)"
     id="path84" />
  <path
     d="M0 0 C1.3199999999999932 0 2.6399999999999864 0 4 0 C4 2.6400000000000006 4 5.280000000000001 4 8 C2.680000000000007 8 1.3600000000000136 8 0 8 C0 5.359999999999999 0 2.719999999999999 0 0 Z "
     fill="#E89337"
     transform="translate(236,56)"
     id="path85" />
  <path
     d="M0 0 C1.3199999999999932 0 2.6399999999999864 0 4 0 C4 1.3199999999999932 4 2.6400000000000006 4 4 C2.680000000000007 4 1.3600000000000136 4 0 4 C0 2.680000000000007 0 1.3599999999999994 0 0 Z "
     fill="#FFFFFF"
     transform="translate(148,96)"
     id="path86" />
</svg>
