<?xml version="1.0" encoding="UTF-8"?>
<svg xmlns="http://www.w3.org/2000/svg" width="192" height="192" viewBox="0 0 192 192">
  <rect x="84" y="16" width="4" height="4" fill="#FF5307"/>
  <rect x="88" y="16" width="4" height="4" fill="#F05C04"/>
  <rect x="80" y="20" width="4" height="4" fill="#FF5100"/>
  <rect x="84" y="20" width="4" height="4" fill="#FF580A"/>
  <rect x="76" y="24" width="4" height="4" fill="#FF5500"/>
  <rect x="80" y="24" width="4" height="4" fill="#F74C06"/>
  <rect x="84" y="24" width="4" height="4" fill="#FF4D00"/>
  <rect x="72" y="28" width="4" height="4" fill="#FD4900"/>
  <rect x="76" y="28" width="4" height="4" fill="#FF4300"/>
  <rect x="80" y="28" width="4" height="4" fill="#FF5000"/>
  <rect x="68" y="32" width="4" height="4" fill="#FF5000"/>
  <rect x="72" y="32" width="4" height="4" fill="#FD5003"/>
  <rect x="76" y="32" width="4" height="4" fill="#FF4F01"/>
  <rect x="80" y="32" width="4" height="4" fill="#FF520A"/>
  <rect x="68" y="36" width="4" height="4" fill="#FF5700"/>
  <rect x="72" y="36" width="4" height="4" fill="#FF580D"/>
  <rect x="76" y="36" width="4" height="4" fill="#FF5400"/>
  <rect x="80" y="36" width="4" height="4" fill="#FF5200"/>
  <rect x="64" y="40" width="4" height="4" fill="#FF5100"/>
  <rect x="68" y="40" width="4" height="4" fill="#FF5011"/>
  <rect x="72" y="40" width="4" height="4" fill="#F74400"/>
  <rect x="76" y="40" width="4" height="4" fill="#F85800"/>
  <rect x="80" y="40" width="4" height="4" fill="#FB5500"/>
  <rect x="64" y="44" width="4" height="4" fill="#FF5100"/>
  <rect x="68" y="44" width="4" height="4" fill="#FF5100"/>
  <rect x="72" y="44" width="4" height="4" fill="#FF5100"/>
  <rect x="76" y="44" width="4" height="4" fill="#FF5002"/>
  <rect x="80" y="44" width="4" height="4" fill="#F85600"/>
  <rect x="64" y="48" width="4" height="4" fill="#FF5100"/>
  <rect x="68" y="48" width="4" height="4" fill="#FF5100"/>
  <rect x="72" y="48" width="4" height="4" fill="#FF5100"/>
  <rect x="76" y="48" width="4" height="4" fill="#FF5303"/>
  <rect x="80" y="48" width="4" height="4" fill="#FB5900"/>
  <rect x="116" y="48" width="4" height="4" fill="#FF5800"/>
  <rect x="60" y="52" width="4" height="4" fill="#FF4903"/>
  <rect x="64" y="52" width="4" height="4" fill="#FF5100"/>
  <rect x="68" y="52" width="4" height="4" fill="#FF5100"/>
  <rect x="72" y="52" width="4" height="4" fill="#FF5100"/>
  <rect x="76" y="52" width="4" height="4" fill="#FF4E00"/>
  <rect x="80" y="52" width="4" height="4" fill="#FF5300"/>
  <rect x="116" y="52" width="4" height="4" fill="#FF5410"/>
  <rect x="60" y="56" width="4" height="4" fill="#FA4E04"/>
  <rect x="64" y="56" width="4" height="4" fill="#FF5100"/>
  <rect x="68" y="56" width="4" height="4" fill="#FF5100"/>
  <rect x="72" y="56" width="4" height="4" fill="#FF5100"/>
  <rect x="76" y="56" width="4" height="4" fill="#FF5701"/>
  <rect x="80" y="56" width="4" height="4" fill="#FF5300"/>
  <rect x="116" y="56" width="4" height="4" fill="#FF5400"/>
  <rect x="120" y="56" width="4" height="4" fill="#FF5607"/>
  <rect x="60" y="60" width="4" height="4" fill="#FF4900"/>
  <rect x="64" y="60" width="4" height="4" fill="#FF5100"/>
  <rect x="68" y="60" width="4" height="4" fill="#FF5100"/>
  <rect x="72" y="60" width="4" height="4" fill="#FF5100"/>
  <rect x="76" y="60" width="4" height="4" fill="#FA5304"/>
  <rect x="80" y="60" width="4" height="4" fill="#FF4A00"/>
  <rect x="84" y="60" width="4" height="4" fill="#E94802"/>
  <rect x="112" y="60" width="4" height="4" fill="#FF5000"/>
  <rect x="116" y="60" width="4" height="4" fill="#FF5100"/>
  <rect x="120" y="60" width="4" height="4" fill="#FF5808"/>
  <rect x="60" y="64" width="4" height="4" fill="#FF4900"/>
  <rect x="64" y="64" width="4" height="4" fill="#FF5100"/>
  <rect x="68" y="64" width="4" height="4" fill="#FF5100"/>
  <rect x="72" y="64" width="4" height="4" fill="#FF5100"/>
  <rect x="76" y="64" width="4" height="4" fill="#FF5306"/>
  <rect x="80" y="64" width="4" height="4" fill="#FF5D07"/>
  <rect x="84" y="64" width="4" height="4" fill="#FF610E"/>
  <rect x="88" y="64" width="4" height="4" fill="#FF5700"/>
  <rect x="108" y="64" width="4" height="4" fill="#F85301"/>
  <rect x="112" y="64" width="4" height="4" fill="#F84B00"/>
  <rect x="116" y="64" width="4" height="4" fill="#FF5B0E"/>
  <rect x="120" y="64" width="4" height="4" fill="#FE5400"/>
  <rect x="124" y="64" width="4" height="4" fill="#FB4B00"/>
  <rect x="60" y="68" width="4" height="4" fill="#FF4A00"/>
  <rect x="64" y="68" width="4" height="4" fill="#FF5100"/>
  <rect x="68" y="68" width="4" height="4" fill="#FF5100"/>
  <rect x="72" y="68" width="4" height="4" fill="#FF5100"/>
  <rect x="76" y="68" width="4" height="4" fill="#FF5100"/>
  <rect x="80" y="68" width="4" height="4" fill="#FF5100"/>
  <rect x="84" y="68" width="4" height="4" fill="#FF5100"/>
  <rect x="88" y="68" width="4" height="4" fill="#FF5100"/>
  <rect x="92" y="68" width="4" height="4" fill="#FF5100"/>
  <rect x="96" y="68" width="4" height="4" fill="#FF5100"/>
  <rect x="100" y="68" width="4" height="4" fill="#FF5100"/>
  <rect x="104" y="68" width="4" height="4" fill="#FF5100"/>
  <rect x="108" y="68" width="4" height="4" fill="#FF5100"/>
  <rect x="112" y="68" width="4" height="4" fill="#FF5100"/>
  <rect x="116" y="68" width="4" height="4" fill="#FF5100"/>
  <rect x="120" y="68" width="4" height="4" fill="#FF5100"/>
  <rect x="124" y="68" width="4" height="4" fill="#EE5300"/>
  <rect x="60" y="72" width="4" height="4" fill="#FF5100"/>
  <rect x="64" y="72" width="4" height="4" fill="#FF5100"/>
  <rect x="68" y="72" width="4" height="4" fill="#FF5100"/>
  <rect x="72" y="72" width="4" height="4" fill="#FF5100"/>
  <rect x="76" y="72" width="4" height="4" fill="#FF5100"/>
  <rect x="80" y="72" width="4" height="4" fill="#FF5100"/>
  <rect x="84" y="72" width="4" height="4" fill="#FF5100"/>
  <rect x="88" y="72" width="4" height="4" fill="#FF5100"/>
  <rect x="92" y="72" width="4" height="4" fill="#FF5100"/>
  <rect x="96" y="72" width="4" height="4" fill="#FF5100"/>
  <rect x="100" y="72" width="4" height="4" fill="#FF5100"/>
  <rect x="104" y="72" width="4" height="4" fill="#FF5100"/>
  <rect x="108" y="72" width="4" height="4" fill="#FF5100"/>
  <rect x="112" y="72" width="4" height="4" fill="#FF5100"/>
  <rect x="116" y="72" width="4" height="4" fill="#FF5100"/>
  <rect x="120" y="72" width="4" height="4" fill="#FF5100"/>
  <rect x="124" y="72" width="4" height="4" fill="#FF4E08"/>
  <rect x="148" y="72" width="4" height="4" fill="#FF5200"/>
  <rect x="64" y="76" width="4" height="4" fill="#FF5100"/>
  <rect x="68" y="76" width="4" height="4" fill="#FF5100"/>
  <rect x="72" y="76" width="4" height="4" fill="#FF5100"/>
  <rect x="76" y="76" width="4" height="4" fill="#FF5100"/>
  <rect x="80" y="76" width="4" height="4" fill="#FF5100"/>
  <rect x="84" y="76" width="4" height="4" fill="#FF5100"/>
  <rect x="88" y="76" width="4" height="4" fill="#FF5100"/>
  <rect x="92" y="76" width="4" height="4" fill="#FF5100"/>
  <rect x="96" y="76" width="4" height="4" fill="#FF5100"/>
  <rect x="100" y="76" width="4" height="4" fill="#FF5100"/>
  <rect x="104" y="76" width="4" height="4" fill="#FF5100"/>
  <rect x="108" y="76" width="4" height="4" fill="#FF5100"/>
  <rect x="112" y="76" width="4" height="4" fill="#FF5100"/>
  <rect x="116" y="76" width="4" height="4" fill="#FF5100"/>
  <rect x="120" y="76" width="4" height="4" fill="#FF5100"/>
  <rect x="124" y="76" width="4" height="4" fill="#FF4D0D"/>
  <rect x="148" y="76" width="4" height="4" fill="#FE4809"/>
  <rect x="152" y="76" width="4" height="4" fill="#FF5C03"/>
  <rect x="64" y="80" width="4" height="4" fill="#FF5100"/>
  <rect x="68" y="80" width="4" height="4" fill="#FF5100"/>
  <rect x="72" y="80" width="4" height="4" fill="#FF5100"/>
  <rect x="76" y="80" width="4" height="4" fill="#FF5100"/>
  <rect x="80" y="80" width="4" height="4" fill="#FF5100"/>
  <rect x="84" y="80" width="4" height="4" fill="#FF5100"/>
  <rect x="88" y="80" width="4" height="4" fill="#FF5B09"/>
  <rect x="92" y="80" width="4" height="4" fill="#FF5003"/>
  <rect x="96" y="80" width="4" height="4" fill="#F45400"/>
  <rect x="100" y="80" width="4" height="4" fill="#FF9626"/>
  <rect x="104" y="80" width="4" height="4" fill="#FFA838"/>
  <rect x="108" y="80" width="4" height="4" fill="#FF4B00"/>
  <rect x="112" y="80" width="4" height="4" fill="#FF5100"/>
  <rect x="116" y="80" width="4" height="4" fill="#FF5100"/>
  <rect x="120" y="80" width="4" height="4" fill="#FF5100"/>
  <rect x="124" y="80" width="4" height="4" fill="#FF4F03"/>
  <rect x="144" y="80" width="4" height="4" fill="#FF4A00"/>
  <rect x="148" y="80" width="4" height="4" fill="#FF5506"/>
  <rect x="152" y="80" width="4" height="4" fill="#FF5000"/>
  <rect x="64" y="84" width="4" height="4" fill="#FF5100"/>
  <rect x="68" y="84" width="4" height="4" fill="#FF5100"/>
  <rect x="72" y="84" width="4" height="4" fill="#FF5100"/>
  <rect x="76" y="84" width="4" height="4" fill="#FF5100"/>
  <rect x="80" y="84" width="4" height="4" fill="#FF5100"/>
  <rect x="84" y="84" width="4" height="4" fill="#FF5100"/>
  <rect x="88" y="84" width="4" height="4" fill="#FF4F01"/>
  <rect x="92" y="84" width="4" height="4" fill="#F35200"/>
  <rect x="96" y="84" width="4" height="4" fill="#FFAD37"/>
  <rect x="100" y="84" width="4" height="4" fill="#F9B633"/>
  <rect x="104" y="84" width="4" height="4" fill="#FC8C1E"/>
  <rect x="108" y="84" width="4" height="4" fill="#FF540A"/>
  <rect x="112" y="84" width="4" height="4" fill="#FF5100"/>
  <rect x="116" y="84" width="4" height="4" fill="#FF5100"/>
  <rect x="120" y="84" width="4" height="4" fill="#FF5100"/>
  <rect x="124" y="84" width="4" height="4" fill="#FF4D03"/>
  <rect x="128" y="84" width="4" height="4" fill="#FF5100"/>
  <rect x="144" y="84" width="4" height="4" fill="#FF5100"/>
  <rect x="148" y="84" width="4" height="4" fill="#F84D00"/>
  <rect x="152" y="84" width="4" height="4" fill="#FF4A00"/>
  <rect x="64" y="88" width="4" height="4" fill="#FF5100"/>
  <rect x="68" y="88" width="4" height="4" fill="#FF5100"/>
  <rect x="72" y="88" width="4" height="4" fill="#FF5100"/>
  <rect x="76" y="88" width="4" height="4" fill="#FF5100"/>
  <rect x="80" y="88" width="4" height="4" fill="#FF5100"/>
  <rect x="84" y="88" width="4" height="4" fill="#FF5100"/>
  <rect x="88" y="88" width="4" height="4" fill="#FF4700"/>
  <rect x="92" y="88" width="4" height="4" fill="#FF962D"/>
  <rect x="96" y="88" width="4" height="4" fill="#F3B32F"/>
  <rect x="100" y="88" width="4" height="4" fill="#FFB636"/>
  <rect x="104" y="88" width="4" height="4" fill="#FB760F"/>
  <rect x="108" y="88" width="4" height="4" fill="#FF550B"/>
  <rect x="112" y="88" width="4" height="4" fill="#FF5100"/>
  <rect x="116" y="88" width="4" height="4" fill="#FF5100"/>
  <rect x="120" y="88" width="4" height="4" fill="#FF5100"/>
  <rect x="124" y="88" width="4" height="4" fill="#FF4C02"/>
  <rect x="128" y="88" width="4" height="4" fill="#FF5300"/>
  <rect x="148" y="88" width="4" height="4" fill="#FF5E0F"/>
  <rect x="64" y="92" width="4" height="4" fill="#FF5100"/>
  <rect x="68" y="92" width="4" height="4" fill="#FF5100"/>
  <rect x="72" y="92" width="4" height="4" fill="#FF5100"/>
  <rect x="76" y="92" width="4" height="4" fill="#FF5505"/>
  <rect x="80" y="92" width="4" height="4" fill="#FF5402"/>
  <rect x="84" y="92" width="4" height="4" fill="#FB5000"/>
  <rect x="88" y="92" width="4" height="4" fill="#FD931D"/>
  <rect x="92" y="92" width="4" height="4" fill="#FDB030"/>
  <rect x="96" y="92" width="4" height="4" fill="#FFB535"/>
  <rect x="100" y="92" width="4" height="4" fill="#FFB93A"/>
  <rect x="104" y="92" width="4" height="4" fill="#F95F05"/>
  <rect x="108" y="92" width="4" height="4" fill="#FF5101"/>
  <rect x="112" y="92" width="4" height="4" fill="#FF5100"/>
  <rect x="116" y="92" width="4" height="4" fill="#FF5100"/>
  <rect x="120" y="92" width="4" height="4" fill="#FF5100"/>
  <rect x="124" y="92" width="4" height="4" fill="#FF5300"/>
  <rect x="40" y="96" width="4" height="4" fill="#FD4D00"/>
  <rect x="64" y="96" width="4" height="4" fill="#FF5100"/>
  <rect x="68" y="96" width="4" height="4" fill="#FF5100"/>
  <rect x="72" y="96" width="4" height="4" fill="#FF5100"/>
  <rect x="76" y="96" width="4" height="4" fill="#F84D00"/>
  <rect x="80" y="96" width="4" height="4" fill="#FE4E00"/>
  <rect x="84" y="96" width="4" height="4" fill="#FF8D1F"/>
  <rect x="88" y="96" width="4" height="4" fill="#FCB332"/>
  <rect x="92" y="96" width="4" height="4" fill="#FEB333"/>
  <rect x="96" y="96" width="4" height="4" fill="#FFB232"/>
  <rect x="100" y="96" width="4" height="4" fill="#FFAB30"/>
  <rect x="104" y="96" width="4" height="4" fill="#F85800"/>
  <rect x="108" y="96" width="4" height="4" fill="#FF5101"/>
  <rect x="112" y="96" width="4" height="4" fill="#FF5100"/>
  <rect x="116" y="96" width="4" height="4" fill="#FF5100"/>
  <rect x="120" y="96" width="4" height="4" fill="#FF5100"/>
  <rect x="124" y="96" width="4" height="4" fill="#FF4F00"/>
  <rect x="36" y="100" width="4" height="4" fill="#FF4D08"/>
  <rect x="40" y="100" width="4" height="4" fill="#FF5701"/>
  <rect x="64" y="100" width="4" height="4" fill="#FF5100"/>
  <rect x="68" y="100" width="4" height="4" fill="#FF5100"/>
  <rect x="72" y="100" width="4" height="4" fill="#FF5100"/>
  <rect x="76" y="100" width="4" height="4" fill="#FB4500"/>
  <rect x="80" y="100" width="4" height="4" fill="#ED4F00"/>
  <rect x="84" y="100" width="4" height="4" fill="#FAB131"/>
  <rect x="88" y="100" width="4" height="4" fill="#FFB232"/>
  <rect x="92" y="100" width="4" height="4" fill="#FFB232"/>
  <rect x="96" y="100" width="4" height="4" fill="#FFB232"/>
  <rect x="100" y="100" width="4" height="4" fill="#FFA92F"/>
  <rect x="104" y="100" width="4" height="4" fill="#F75100"/>
  <rect x="108" y="100" width="4" height="4" fill="#FF5605"/>
  <rect x="112" y="100" width="4" height="4" fill="#FF5100"/>
  <rect x="116" y="100" width="4" height="4" fill="#FF5100"/>
  <rect x="120" y="100" width="4" height="4" fill="#FF5100"/>
  <rect x="124" y="100" width="4" height="4" fill="#FF590D"/>
  <rect x="36" y="104" width="4" height="4" fill="#EA4C00"/>
  <rect x="40" y="104" width="4" height="4" fill="#FF4600"/>
  <rect x="64" y="104" width="4" height="4" fill="#FF5100"/>
  <rect x="68" y="104" width="4" height="4" fill="#FF5100"/>
  <rect x="72" y="104" width="4" height="4" fill="#FF5100"/>
  <rect x="76" y="104" width="4" height="4" fill="#FF4F00"/>
  <rect x="80" y="104" width="4" height="4" fill="#FD6D0C"/>
  <rect x="84" y="104" width="4" height="4" fill="#FCB332"/>
  <rect x="88" y="104" width="4" height="4" fill="#FFB232"/>
  <rect x="92" y="104" width="4" height="4" fill="#FFB232"/>
  <rect x="96" y="104" width="4" height="4" fill="#FFB232"/>
  <rect x="100" y="104" width="4" height="4" fill="#FFAB31"/>
  <rect x="104" y="104" width="4" height="4" fill="#F85200"/>
  <rect x="108" y="104" width="4" height="4" fill="#FF5504"/>
  <rect x="112" y="104" width="4" height="4" fill="#FF5100"/>
  <rect x="116" y="104" width="4" height="4" fill="#FF5100"/>
  <rect x="120" y="104" width="4" height="4" fill="#FF5100"/>
  <rect x="124" y="104" width="4" height="4" fill="#FF5509"/>
  <rect x="32" y="108" width="4" height="4" fill="#FF4F00"/>
  <rect x="36" y="108" width="4" height="4" fill="#FF5F07"/>
  <rect x="40" y="108" width="4" height="4" fill="#F85400"/>
  <rect x="64" y="108" width="4" height="4" fill="#FF5100"/>
  <rect x="68" y="108" width="4" height="4" fill="#FF5100"/>
  <rect x="72" y="108" width="4" height="4" fill="#FF5100"/>
  <rect x="76" y="108" width="4" height="4" fill="#FF5300"/>
  <rect x="80" y="108" width="4" height="4" fill="#FF9C2C"/>
  <rect x="84" y="108" width="4" height="4" fill="#FDB52F"/>
  <rect x="88" y="108" width="4" height="4" fill="#FFB232"/>
  <rect x="92" y="108" width="4" height="4" fill="#FFB232"/>
  <rect x="96" y="108" width="4" height="4" fill="#FFB232"/>
  <rect x="100" y="108" width="4" height="4" fill="#FFAE34"/>
  <rect x="104" y="108" width="4" height="4" fill="#FC5600"/>
  <rect x="108" y="108" width="4" height="4" fill="#FF5504"/>
  <rect x="112" y="108" width="4" height="4" fill="#FF5100"/>
  <rect x="116" y="108" width="4" height="4" fill="#FF5100"/>
  <rect x="120" y="108" width="4" height="4" fill="#FF5100"/>
  <rect x="124" y="108" width="4" height="4" fill="#FF4A00"/>
  <rect x="32" y="112" width="4" height="4" fill="#FF4F00"/>
  <rect x="36" y="112" width="4" height="4" fill="#FF5100"/>
  <rect x="40" y="112" width="4" height="4" fill="#FC5300"/>
  <rect x="60" y="112" width="4" height="4" fill="#FF5400"/>
  <rect x="64" y="112" width="4" height="4" fill="#FF5100"/>
  <rect x="68" y="112" width="4" height="4" fill="#FF5100"/>
  <rect x="72" y="112" width="4" height="4" fill="#FF5100"/>
  <rect x="76" y="112" width="4" height="4" fill="#FF4D00"/>
  <rect x="80" y="112" width="4" height="4" fill="#FFAD32"/>
  <rect x="84" y="112" width="4" height="4" fill="#FDB433"/>
  <rect x="88" y="112" width="4" height="4" fill="#FFB232"/>
  <rect x="92" y="112" width="4" height="4" fill="#FFB232"/>
  <rect x="96" y="112" width="4" height="4" fill="#FFB232"/>
  <rect x="100" y="112" width="4" height="4" fill="#FFB939"/>
  <rect x="104" y="112" width="4" height="4" fill="#E55300"/>
  <rect x="108" y="112" width="4" height="4" fill="#FF5301"/>
  <rect x="112" y="112" width="4" height="4" fill="#FF5100"/>
  <rect x="116" y="112" width="4" height="4" fill="#FF5100"/>
  <rect x="120" y="112" width="4" height="4" fill="#FF5100"/>
  <rect x="124" y="112" width="4" height="4" fill="#F44D07"/>
  <rect x="152" y="112" width="4" height="4" fill="#F45A14"/>
  <rect x="32" y="116" width="4" height="4" fill="#FF5300"/>
  <rect x="36" y="116" width="4" height="4" fill="#FF4F00"/>
  <rect x="40" y="116" width="4" height="4" fill="#F64F00"/>
  <rect x="44" y="116" width="4" height="4" fill="#FF5403"/>
  <rect x="48" y="116" width="4" height="4" fill="#FB4E01"/>
  <rect x="52" y="116" width="4" height="4" fill="#F95305"/>
  <rect x="56" y="116" width="4" height="4" fill="#FF4E02"/>
  <rect x="60" y="116" width="4" height="4" fill="#FF5202"/>
  <rect x="64" y="116" width="4" height="4" fill="#FF5100"/>
  <rect x="68" y="116" width="4" height="4" fill="#FF5100"/>
  <rect x="72" y="116" width="4" height="4" fill="#FF5100"/>
  <rect x="76" y="116" width="4" height="4" fill="#FF4D01"/>
  <rect x="80" y="116" width="4" height="4" fill="#FFAF34"/>
  <rect x="84" y="116" width="4" height="4" fill="#FDB232"/>
  <rect x="88" y="116" width="4" height="4" fill="#FFB232"/>
  <rect x="92" y="116" width="4" height="4" fill="#FFB232"/>
  <rect x="96" y="116" width="4" height="4" fill="#FFB232"/>
  <rect x="100" y="116" width="4" height="4" fill="#FFBA3A"/>
  <rect x="104" y="116" width="4" height="4" fill="#F06700"/>
  <rect x="108" y="116" width="4" height="4" fill="#FF5301"/>
  <rect x="112" y="116" width="4" height="4" fill="#FF5100"/>
  <rect x="116" y="116" width="4" height="4" fill="#FF5100"/>
  <rect x="120" y="116" width="4" height="4" fill="#FF5100"/>
  <rect x="124" y="116" width="4" height="4" fill="#FC5416"/>
  <rect x="152" y="116" width="4" height="4" fill="#F44C0B"/>
  <rect x="32" y="120" width="4" height="4" fill="#FF5201"/>
  <rect x="36" y="120" width="4" height="4" fill="#FF5000"/>
  <rect x="40" y="120" width="4" height="4" fill="#FD5100"/>
  <rect x="44" y="120" width="4" height="4" fill="#FF5105"/>
  <rect x="48" y="120" width="4" height="4" fill="#FF5200"/>
  <rect x="52" y="120" width="4" height="4" fill="#FF4E00"/>
  <rect x="56" y="120" width="4" height="4" fill="#FE4F00"/>
  <rect x="60" y="120" width="4" height="4" fill="#FE4F00"/>
  <rect x="64" y="120" width="4" height="4" fill="#FF5100"/>
  <rect x="68" y="120" width="4" height="4" fill="#FF5100"/>
  <rect x="72" y="120" width="4" height="4" fill="#FF5100"/>
  <rect x="76" y="120" width="4" height="4" fill="#FF4E03"/>
  <rect x="80" y="120" width="4" height="4" fill="#FFA82F"/>
  <rect x="84" y="120" width="4" height="4" fill="#FFB334"/>
  <rect x="88" y="120" width="4" height="4" fill="#FFB232"/>
  <rect x="92" y="120" width="4" height="4" fill="#FFB232"/>
  <rect x="96" y="120" width="4" height="4" fill="#FFB232"/>
  <rect x="100" y="120" width="4" height="4" fill="#FDB232"/>
  <rect x="104" y="120" width="4" height="4" fill="#FF9A29"/>
  <rect x="108" y="120" width="4" height="4" fill="#FF5000"/>
  <rect x="112" y="120" width="4" height="4" fill="#FF5100"/>
  <rect x="116" y="120" width="4" height="4" fill="#FF5100"/>
  <rect x="120" y="120" width="4" height="4" fill="#FF5100"/>
  <rect x="124" y="120" width="4" height="4" fill="#FF4400"/>
  <rect x="148" y="120" width="4" height="4" fill="#FF5400"/>
  <rect x="152" y="120" width="4" height="4" fill="#F15200"/>
  <rect x="28" y="124" width="4" height="4" fill="#FF5801"/>
  <rect x="32" y="124" width="4" height="4" fill="#FF5202"/>
  <rect x="36" y="124" width="4" height="4" fill="#F75502"/>
  <rect x="40" y="124" width="4" height="4" fill="#FF5100"/>
  <rect x="44" y="124" width="4" height="4" fill="#FF5100"/>
  <rect x="48" y="124" width="4" height="4" fill="#FF5100"/>
  <rect x="52" y="124" width="4" height="4" fill="#FF5100"/>
  <rect x="56" y="124" width="4" height="4" fill="#FF4D00"/>
  <rect x="60" y="124" width="4" height="4" fill="#FF4C00"/>
  <rect x="64" y="124" width="4" height="4" fill="#FF5100"/>
  <rect x="68" y="124" width="4" height="4" fill="#FF5100"/>
  <rect x="72" y="124" width="4" height="4" fill="#FF5100"/>
  <rect x="76" y="124" width="4" height="4" fill="#FF4D01"/>
  <rect x="80" y="124" width="4" height="4" fill="#FF9629"/>
  <rect x="84" y="124" width="4" height="4" fill="#F0A820"/>
  <rect x="88" y="124" width="4" height="4" fill="#FFAF29"/>
  <rect x="92" y="124" width="4" height="4" fill="#FFB435"/>
  <rect x="96" y="124" width="4" height="4" fill="#FEAF30"/>
  <rect x="100" y="124" width="4" height="4" fill="#FEAC2C"/>
  <rect x="104" y="124" width="4" height="4" fill="#FFB432"/>
  <rect x="108" y="124" width="4" height="4" fill="#FA4D00"/>
  <rect x="112" y="124" width="4" height="4" fill="#FF5603"/>
  <rect x="116" y="124" width="4" height="4" fill="#FA5400"/>
  <rect x="120" y="124" width="4" height="4" fill="#FF5000"/>
  <rect x="124" y="124" width="4" height="4" fill="#FF5100"/>
  <rect x="128" y="124" width="4" height="4" fill="#FF5100"/>
  <rect x="132" y="124" width="4" height="4" fill="#FF5100"/>
  <rect x="136" y="124" width="4" height="4" fill="#FF5403"/>
  <rect x="140" y="124" width="4" height="4" fill="#FD4E00"/>
  <rect x="144" y="124" width="4" height="4" fill="#FF5000"/>
  <rect x="148" y="124" width="4" height="4" fill="#FF5000"/>
  <rect x="152" y="124" width="4" height="4" fill="#EF570B"/>
  <rect x="32" y="128" width="4" height="4" fill="#FF5506"/>
  <rect x="36" y="128" width="4" height="4" fill="#F54F00"/>
  <rect x="40" y="128" width="4" height="4" fill="#FF5100"/>
  <rect x="44" y="128" width="4" height="4" fill="#FF5100"/>
  <rect x="48" y="128" width="4" height="4" fill="#FF5100"/>
  <rect x="52" y="128" width="4" height="4" fill="#FF5606"/>
  <rect x="56" y="128" width="4" height="4" fill="#FE750D"/>
  <rect x="60" y="128" width="4" height="4" fill="#FCB738"/>
  <rect x="64" y="128" width="4" height="4" fill="#FF5100"/>
  <rect x="68" y="128" width="4" height="4" fill="#FF5100"/>
  <rect x="72" y="128" width="4" height="4" fill="#FF5100"/>
  <rect x="76" y="128" width="4" height="4" fill="#FF5003"/>
  <rect x="80" y="128" width="4" height="4" fill="#FB7E14"/>
  <rect x="84" y="128" width="4" height="4" fill="#F6AE26"/>
  <rect x="88" y="128" width="4" height="4" fill="#F3BB4C"/>
  <rect x="92" y="128" width="4" height="4" fill="#FCB537"/>
  <rect x="96" y="128" width="4" height="4" fill="#FFB534"/>
  <rect x="100" y="128" width="4" height="4" fill="#FFB232"/>
  <rect x="104" y="128" width="4" height="4" fill="#FFB32F"/>
  <rect x="108" y="128" width="4" height="4" fill="#FF7F1A"/>
  <rect x="112" y="128" width="4" height="4" fill="#FF5101"/>
  <rect x="116" y="128" width="4" height="4" fill="#FF5304"/>
  <rect x="120" y="128" width="4" height="4" fill="#FA4E00"/>
  <rect x="124" y="128" width="4" height="4" fill="#FF5100"/>
  <rect x="128" y="128" width="4" height="4" fill="#FF5100"/>
  <rect x="132" y="128" width="4" height="4" fill="#FF5100"/>
  <rect x="136" y="128" width="4" height="4" fill="#FD4E00"/>
  <rect x="140" y="128" width="4" height="4" fill="#FF5100"/>
  <rect x="144" y="128" width="4" height="4" fill="#FF5000"/>
  <rect x="148" y="128" width="4" height="4" fill="#FF4E02"/>
  <rect x="152" y="128" width="4" height="4" fill="#FF5400"/>
  <rect x="32" y="132" width="4" height="4" fill="#FF5302"/>
  <rect x="36" y="132" width="4" height="4" fill="#FA4E00"/>
  <rect x="40" y="132" width="4" height="4" fill="#FF5100"/>
  <rect x="44" y="132" width="4" height="4" fill="#FF5100"/>
  <rect x="48" y="132" width="4" height="4" fill="#FF5100"/>
  <rect x="52" y="132" width="4" height="4" fill="#F55300"/>
  <rect x="56" y="132" width="4" height="4" fill="#FFB231"/>
  <rect x="60" y="132" width="4" height="4" fill="#F6B02C"/>
  <rect x="64" y="132" width="4" height="4" fill="#FF5100"/>
  <rect x="68" y="132" width="4" height="4" fill="#FF5100"/>
  <rect x="72" y="132" width="4" height="4" fill="#FF5100"/>
  <rect x="76" y="132" width="4" height="4" fill="#FF5103"/>
  <rect x="80" y="132" width="4" height="4" fill="#F46F08"/>
  <rect x="84" y="132" width="4" height="4" fill="#FCB42C"/>
  <rect x="88" y="132" width="4" height="4" fill="#FBB231"/>
  <rect x="92" y="132" width="4" height="4" fill="#FFD976"/>
  <rect x="96" y="132" width="4" height="4" fill="#FEB02A"/>
  <rect x="100" y="132" width="4" height="4" fill="#FFB535"/>
  <rect x="104" y="132" width="4" height="4" fill="#FCAE28"/>
  <rect x="108" y="132" width="4" height="4" fill="#FFA62D"/>
  <rect x="112" y="132" width="4" height="4" fill="#F65200"/>
  <rect x="116" y="132" width="4" height="4" fill="#FF5101"/>
  <rect x="120" y="132" width="4" height="4" fill="#FA4F00"/>
  <rect x="124" y="132" width="4" height="4" fill="#FF5100"/>
  <rect x="128" y="132" width="4" height="4" fill="#FF5100"/>
  <rect x="132" y="132" width="4" height="4" fill="#FF5100"/>
  <rect x="136" y="132" width="4" height="4" fill="#FF5302"/>
  <rect x="140" y="132" width="4" height="4" fill="#FF5100"/>
  <rect x="144" y="132" width="4" height="4" fill="#FF5100"/>
  <rect x="148" y="132" width="4" height="4" fill="#FF4903"/>
  <rect x="152" y="132" width="4" height="4" fill="#FF5200"/>
  <rect x="32" y="136" width="4" height="4" fill="#FE5B20"/>
  <rect x="36" y="136" width="4" height="4" fill="#FF5200"/>
  <rect x="40" y="136" width="4" height="4" fill="#FF4F00"/>
  <rect x="44" y="136" width="4" height="4" fill="#F44F00"/>
  <rect x="48" y="136" width="4" height="4" fill="#FF5000"/>
  <rect x="52" y="136" width="4" height="4" fill="#F79B1C"/>
  <rect x="56" y="136" width="4" height="4" fill="#FDB02E"/>
  <rect x="60" y="136" width="4" height="4" fill="#FFA72F"/>
  <rect x="64" y="136" width="4" height="4" fill="#FF5100"/>
  <rect x="68" y="136" width="4" height="4" fill="#FF5100"/>
  <rect x="72" y="136" width="4" height="4" fill="#F74D00"/>
  <rect x="76" y="136" width="4" height="4" fill="#F55807"/>
  <rect x="80" y="136" width="4" height="4" fill="#FF7614"/>
  <rect x="84" y="136" width="4" height="4" fill="#FBBC31"/>
  <rect x="88" y="136" width="4" height="4" fill="#FDAB23"/>
  <rect x="92" y="136" width="4" height="4" fill="#FCEA94"/>
  <rect x="96" y="136" width="4" height="4" fill="#F3B842"/>
  <rect x="100" y="136" width="4" height="4" fill="#FFB232"/>
  <rect x="104" y="136" width="4" height="4" fill="#FFB333"/>
  <rect x="108" y="136" width="4" height="4" fill="#FDB030"/>
  <rect x="112" y="136" width="4" height="4" fill="#F6A321"/>
  <rect x="116" y="136" width="4" height="4" fill="#FB5D00"/>
  <rect x="120" y="136" width="4" height="4" fill="#FF4E04"/>
  <rect x="124" y="136" width="4" height="4" fill="#F45000"/>
  <rect x="128" y="136" width="4" height="4" fill="#FF5200"/>
  <rect x="132" y="136" width="4" height="4" fill="#FC5200"/>
  <rect x="136" y="136" width="4" height="4" fill="#F45E00"/>
  <rect x="140" y="136" width="4" height="4" fill="#F25300"/>
  <rect x="144" y="136" width="4" height="4" fill="#FF4900"/>
  <rect x="148" y="136" width="4" height="4" fill="#F24302"/>
  <rect x="32" y="140" width="4" height="4" fill="#FF4A00"/>
  <rect x="36" y="140" width="4" height="4" fill="#FC5300"/>
  <rect x="40" y="140" width="4" height="4" fill="#FF5000"/>
  <rect x="44" y="140" width="4" height="4" fill="#FF5203"/>
  <rect x="48" y="140" width="4" height="4" fill="#F34900"/>
  <rect x="52" y="140" width="4" height="4" fill="#FBB52F"/>
  <rect x="56" y="140" width="4" height="4" fill="#F7AE2B"/>
  <rect x="60" y="140" width="4" height="4" fill="#FFB839"/>
  <rect x="64" y="140" width="4" height="4" fill="#F65100"/>
  <rect x="68" y="140" width="4" height="4" fill="#FF5106"/>
  <rect x="72" y="140" width="4" height="4" fill="#FF4B00"/>
  <rect x="76" y="140" width="4" height="4" fill="#FF4800"/>
  <rect x="80" y="140" width="4" height="4" fill="#FFA730"/>
  <rect x="84" y="140" width="4" height="4" fill="#FBAD27"/>
  <rect x="88" y="140" width="4" height="4" fill="#FFB834"/>
  <rect x="92" y="140" width="4" height="4" fill="#FFF39E"/>
  <rect x="96" y="140" width="4" height="4" fill="#FFDE75"/>
  <rect x="100" y="140" width="4" height="4" fill="#FFB232"/>
  <rect x="104" y="140" width="4" height="4" fill="#FFB232"/>
  <rect x="108" y="140" width="4" height="4" fill="#FFB434"/>
  <rect x="112" y="140" width="4" height="4" fill="#FFB231"/>
  <rect x="116" y="140" width="4" height="4" fill="#FEB535"/>
  <rect x="120" y="140" width="4" height="4" fill="#FC861A"/>
  <rect x="124" y="140" width="4" height="4" fill="#FD5C01"/>
  <rect x="128" y="140" width="4" height="4" fill="#FE8618"/>
  <rect x="132" y="140" width="4" height="4" fill="#FDAB2E"/>
  <rect x="136" y="140" width="4" height="4" fill="#FC6605"/>
  <rect x="140" y="140" width="4" height="4" fill="#F45501"/>
  <rect x="144" y="140" width="4" height="4" fill="#FF4900"/>
  <rect x="36" y="144" width="4" height="4" fill="#EE5712"/>
  <rect x="40" y="144" width="4" height="4" fill="#FE4E00"/>
  <rect x="44" y="144" width="4" height="4" fill="#FF4D01"/>
  <rect x="48" y="144" width="4" height="4" fill="#F55400"/>
  <rect x="52" y="144" width="4" height="4" fill="#F0B229"/>
  <rect x="56" y="144" width="4" height="4" fill="#FEAF2E"/>
  <rect x="60" y="144" width="4" height="4" fill="#F9B634"/>
  <rect x="64" y="144" width="4" height="4" fill="#FF8D2B"/>
  <rect x="68" y="144" width="4" height="4" fill="#F64C00"/>
  <rect x="72" y="144" width="4" height="4" fill="#F74E00"/>
  <rect x="76" y="144" width="4" height="4" fill="#FB6703"/>
  <rect x="80" y="144" width="4" height="4" fill="#F9B432"/>
  <rect x="84" y="144" width="4" height="4" fill="#FFB532"/>
  <rect x="88" y="144" width="4" height="4" fill="#FFB837"/>
  <rect x="92" y="144" width="4" height="4" fill="#FFF09B"/>
  <rect x="96" y="144" width="4" height="4" fill="#FFEA8E"/>
  <rect x="100" y="144" width="4" height="4" fill="#FFB535"/>
  <rect x="104" y="144" width="4" height="4" fill="#FFB232"/>
  <rect x="108" y="144" width="4" height="4" fill="#FFB333"/>
  <rect x="112" y="144" width="4" height="4" fill="#FFB031"/>
  <rect x="116" y="144" width="4" height="4" fill="#F9B935"/>
  <rect x="120" y="144" width="4" height="4" fill="#FFB033"/>
  <rect x="124" y="144" width="4" height="4" fill="#FAB735"/>
  <rect x="128" y="144" width="4" height="4" fill="#FEB532"/>
  <rect x="132" y="144" width="4" height="4" fill="#FEB12D"/>
  <rect x="136" y="144" width="4" height="4" fill="#FD6706"/>
  <rect x="140" y="144" width="4" height="4" fill="#F25300"/>
  <rect x="144" y="144" width="4" height="4" fill="#FF4A00"/>
  <rect x="36" y="148" width="4" height="4" fill="#E75F00"/>
  <rect x="40" y="148" width="4" height="4" fill="#FF4B00"/>
  <rect x="44" y="148" width="4" height="4" fill="#FD4E00"/>
  <rect x="48" y="148" width="4" height="4" fill="#FF5E06"/>
  <rect x="52" y="148" width="4" height="4" fill="#FFB232"/>
  <rect x="56" y="148" width="4" height="4" fill="#FFB232"/>
  <rect x="60" y="148" width="4" height="4" fill="#FFB232"/>
  <rect x="64" y="148" width="4" height="4" fill="#FFB232"/>
  <rect x="68" y="148" width="4" height="4" fill="#FFB232"/>
  <rect x="72" y="148" width="4" height="4" fill="#FFB232"/>
  <rect x="76" y="148" width="4" height="4" fill="#FFB330"/>
  <rect x="80" y="148" width="4" height="4" fill="#FEB437"/>
  <rect x="84" y="148" width="4" height="4" fill="#FAB131"/>
  <rect x="88" y="148" width="4" height="4" fill="#F9B240"/>
  <rect x="92" y="148" width="4" height="4" fill="#FEEE97"/>
  <rect x="96" y="148" width="4" height="4" fill="#FDEFA4"/>
  <rect x="100" y="148" width="4" height="4" fill="#F7BA45"/>
  <rect x="104" y="148" width="4" height="4" fill="#FFB22F"/>
  <rect x="108" y="148" width="4" height="4" fill="#FFB533"/>
  <rect x="112" y="148" width="4" height="4" fill="#FFB232"/>
  <rect x="116" y="148" width="4" height="4" fill="#FFB232"/>
  <rect x="120" y="148" width="4" height="4" fill="#FFB232"/>
  <rect x="124" y="148" width="4" height="4" fill="#FFB232"/>
  <rect x="128" y="148" width="4" height="4" fill="#FFB232"/>
  <rect x="132" y="148" width="4" height="4" fill="#FFB232"/>
  <rect x="136" y="148" width="4" height="4" fill="#EA6903"/>
  <rect x="140" y="148" width="4" height="4" fill="#FF4C00"/>
  <rect x="144" y="148" width="4" height="4" fill="#FC4B00"/>
  <rect x="40" y="152" width="4" height="4" fill="#FF4E00"/>
  <rect x="44" y="152" width="4" height="4" fill="#FF5103"/>
  <rect x="48" y="152" width="4" height="4" fill="#FF5A05"/>
  <rect x="52" y="152" width="4" height="4" fill="#FFB232"/>
  <rect x="56" y="152" width="4" height="4" fill="#FFB232"/>
  <rect x="60" y="152" width="4" height="4" fill="#FFB232"/>
  <rect x="64" y="152" width="4" height="4" fill="#FFB232"/>
  <rect x="68" y="152" width="4" height="4" fill="#FFB232"/>
  <rect x="72" y="152" width="4" height="4" fill="#FFB232"/>
  <rect x="76" y="152" width="4" height="4" fill="#FCB235"/>
  <rect x="80" y="152" width="4" height="4" fill="#FFB431"/>
  <rect x="84" y="152" width="4" height="4" fill="#FFB02F"/>
  <rect x="88" y="152" width="4" height="4" fill="#FED77C"/>
  <rect x="92" y="152" width="4" height="4" fill="#FAEE98"/>
  <rect x="96" y="152" width="4" height="4" fill="#FFED95"/>
  <rect x="100" y="152" width="4" height="4" fill="#F7C355"/>
  <rect x="104" y="152" width="4" height="4" fill="#FFB22D"/>
  <rect x="108" y="152" width="4" height="4" fill="#FFB535"/>
  <rect x="112" y="152" width="4" height="4" fill="#FFB232"/>
  <rect x="116" y="152" width="4" height="4" fill="#FFB232"/>
  <rect x="120" y="152" width="4" height="4" fill="#FFB232"/>
  <rect x="124" y="152" width="4" height="4" fill="#FFB232"/>
  <rect x="128" y="152" width="4" height="4" fill="#FFB232"/>
  <rect x="132" y="152" width="4" height="4" fill="#FFB232"/>
  <rect x="136" y="152" width="4" height="4" fill="#F46403"/>
  <rect x="140" y="152" width="4" height="4" fill="#FF4D00"/>
  <rect x="144" y="152" width="4" height="4" fill="#FD5100"/>
  <rect x="148" y="152" width="4" height="4" fill="#FF4A00"/>
  <rect x="152" y="152" width="4" height="4" fill="#FF4F00"/>
  <rect x="156" y="152" width="4" height="4" fill="#FF5200"/>
  <rect x="160" y="152" width="4" height="4" fill="#FB5B00"/>
  <rect x="40" y="156" width="4" height="4" fill="#FF5200"/>
  <rect x="44" y="156" width="4" height="4" fill="#FF5205"/>
  <rect x="48" y="156" width="4" height="4" fill="#FF5100"/>
  <rect x="52" y="156" width="4" height="4" fill="#FFB232"/>
  <rect x="56" y="156" width="4" height="4" fill="#FFB232"/>
  <rect x="60" y="156" width="4" height="4" fill="#FFB232"/>
  <rect x="64" y="156" width="4" height="4" fill="#FFB232"/>
  <rect x="68" y="156" width="4" height="4" fill="#FFB232"/>
  <rect x="72" y="156" width="4" height="4" fill="#FFB232"/>
  <rect x="76" y="156" width="4" height="4" fill="#F9AF32"/>
  <rect x="80" y="156" width="4" height="4" fill="#FFB12E"/>
  <rect x="84" y="156" width="4" height="4" fill="#FBC24F"/>
  <rect x="88" y="156" width="4" height="4" fill="#FFEB98"/>
  <rect x="92" y="156" width="4" height="4" fill="#F9EF96"/>
  <rect x="96" y="156" width="4" height="4" fill="#FFEB92"/>
  <rect x="100" y="156" width="4" height="4" fill="#F6CB63"/>
  <rect x="104" y="156" width="4" height="4" fill="#FFB22B"/>
  <rect x="108" y="156" width="4" height="4" fill="#FFB435"/>
  <rect x="112" y="156" width="4" height="4" fill="#FFB232"/>
  <rect x="116" y="156" width="4" height="4" fill="#FFB232"/>
  <rect x="120" y="156" width="4" height="4" fill="#FFB232"/>
  <rect x="124" y="156" width="4" height="4" fill="#FFB232"/>
  <rect x="128" y="156" width="4" height="4" fill="#FFB232"/>
  <rect x="132" y="156" width="4" height="4" fill="#FFB232"/>
  <rect x="136" y="156" width="4" height="4" fill="#F65700"/>
  <rect x="140" y="156" width="4" height="4" fill="#FB4C00"/>
  <rect x="144" y="156" width="4" height="4" fill="#FC5100"/>
  <rect x="148" y="156" width="4" height="4" fill="#FF6319"/>
  <rect x="152" y="156" width="4" height="4" fill="#FC4700"/>
  <rect x="156" y="156" width="4" height="4" fill="#FF5B0A"/>
  <rect x="40" y="160" width="4" height="4" fill="#FF5E00"/>
  <rect x="44" y="160" width="4" height="4" fill="#FF5120"/>
  <rect x="48" y="160" width="4" height="4" fill="#FF4400"/>
  <rect x="52" y="160" width="4" height="4" fill="#FFB02A"/>
  <rect x="56" y="160" width="4" height="4" fill="#FFBB32"/>
  <rect x="60" y="160" width="4" height="4" fill="#FFAA29"/>
  <rect x="64" y="160" width="4" height="4" fill="#FFB232"/>
  <rect x="68" y="160" width="4" height="4" fill="#FFB232"/>
  <rect x="72" y="160" width="4" height="4" fill="#FFB232"/>
  <rect x="76" y="160" width="4" height="4" fill="#F7B233"/>
  <rect x="80" y="160" width="4" height="4" fill="#F9B02F"/>
  <rect x="84" y="160" width="4" height="4" fill="#FDEB95"/>
  <rect x="88" y="160" width="4" height="4" fill="#FEEC96"/>
  <rect x="92" y="160" width="4" height="4" fill="#FEEC96"/>
  <rect x="96" y="160" width="4" height="4" fill="#FEEC96"/>
  <rect x="100" y="160" width="4" height="4" fill="#FDD979"/>
  <rect x="104" y="160" width="4" height="4" fill="#FFAD27"/>
  <rect x="108" y="160" width="4" height="4" fill="#FCBA42"/>
  <rect x="112" y="160" width="4" height="4" fill="#F1B845"/>
  <rect x="116" y="160" width="4" height="4" fill="#FFB32C"/>
  <rect x="120" y="160" width="4" height="4" fill="#FFB32E"/>
  <rect x="124" y="160" width="4" height="4" fill="#FFB835"/>
  <rect x="128" y="160" width="4" height="4" fill="#FAB22A"/>
  <rect x="132" y="160" width="4" height="4" fill="#FFA62D"/>
  <rect x="136" y="160" width="4" height="4" fill="#FF5100"/>
  <rect x="140" y="160" width="4" height="4" fill="#FF5100"/>
  <rect x="144" y="160" width="4" height="4" fill="#FF5100"/>
  <rect x="148" y="160" width="4" height="4" fill="#F95000"/>
  <rect x="152" y="160" width="4" height="4" fill="#FF4D1E"/>
  <rect x="156" y="160" width="4" height="4" fill="#FA4F00"/>
  <rect x="44" y="164" width="4" height="4" fill="#FF5200"/>
  <rect x="48" y="164" width="4" height="4" fill="#F15105"/>
  <rect x="52" y="164" width="4" height="4" fill="#FC921C"/>
  <rect x="56" y="164" width="4" height="4" fill="#F4B62F"/>
  <rect x="60" y="164" width="4" height="4" fill="#FFB431"/>
  <rect x="64" y="164" width="4" height="4" fill="#FFB232"/>
  <rect x="68" y="164" width="4" height="4" fill="#FFB232"/>
  <rect x="72" y="164" width="4" height="4" fill="#FFB232"/>
  <rect x="76" y="164" width="4" height="4" fill="#FFB532"/>
  <rect x="80" y="164" width="4" height="4" fill="#FFC854"/>
  <rect x="84" y="164" width="4" height="4" fill="#FFF19C"/>
  <rect x="88" y="164" width="4" height="4" fill="#FEEC96"/>
  <rect x="92" y="164" width="4" height="4" fill="#FEEC96"/>
  <rect x="96" y="164" width="4" height="4" fill="#FEEC96"/>
  <rect x="100" y="164" width="4" height="4" fill="#FFE993"/>
  <rect x="104" y="164" width="4" height="4" fill="#F9C95D"/>
  <rect x="108" y="164" width="4" height="4" fill="#FDDA76"/>
  <rect x="112" y="164" width="4" height="4" fill="#F9BC47"/>
  <rect x="116" y="164" width="4" height="4" fill="#FFB32C"/>
  <rect x="120" y="164" width="4" height="4" fill="#FFB432"/>
  <rect x="124" y="164" width="4" height="4" fill="#FFAD2E"/>
  <rect x="128" y="164" width="4" height="4" fill="#FEBB36"/>
  <rect x="132" y="164" width="4" height="4" fill="#FF7715"/>
  <rect x="136" y="164" width="4" height="4" fill="#FF5100"/>
  <rect x="140" y="164" width="4" height="4" fill="#FF5100"/>
  <rect x="144" y="164" width="4" height="4" fill="#FF5100"/>
  <rect x="148" y="164" width="4" height="4" fill="#F74700"/>
  <rect x="152" y="164" width="4" height="4" fill="#FF5700"/>
  <rect x="52" y="168" width="4" height="4" fill="#FF4900"/>
  <rect x="56" y="168" width="4" height="4" fill="#FEAE33"/>
  <rect x="60" y="168" width="4" height="4" fill="#FDB330"/>
  <rect x="64" y="168" width="4" height="4" fill="#FFB232"/>
  <rect x="68" y="168" width="4" height="4" fill="#FFB232"/>
  <rect x="72" y="168" width="4" height="4" fill="#FFB232"/>
  <rect x="76" y="168" width="4" height="4" fill="#FFB52E"/>
  <rect x="80" y="168" width="4" height="4" fill="#FFE07C"/>
  <rect x="84" y="168" width="4" height="4" fill="#F8E996"/>
  <rect x="88" y="168" width="4" height="4" fill="#FEEC96"/>
  <rect x="92" y="168" width="4" height="4" fill="#FEEC96"/>
  <rect x="96" y="168" width="4" height="4" fill="#FEEC96"/>
  <rect x="100" y="168" width="4" height="4" fill="#FCEB93"/>
  <rect x="104" y="168" width="4" height="4" fill="#FFEF97"/>
  <rect x="108" y="168" width="4" height="4" fill="#F8EC96"/>
  <rect x="112" y="168" width="4" height="4" fill="#F5B33B"/>
  <rect x="116" y="168" width="4" height="4" fill="#FFB52E"/>
  <rect x="120" y="168" width="4" height="4" fill="#FAB335"/>
  <rect x="124" y="168" width="4" height="4" fill="#F7B12B"/>
  <rect x="128" y="168" width="4" height="4" fill="#FF8B1C"/>
  <rect x="132" y="168" width="4" height="4" fill="#F84D00"/>
  <rect x="136" y="168" width="4" height="4" fill="#FF5100"/>
  <rect x="140" y="168" width="4" height="4" fill="#FF5100"/>
  <rect x="144" y="168" width="4" height="4" fill="#FF5100"/>
  <rect x="148" y="168" width="4" height="4" fill="#FF5401"/>
  <rect x="52" y="172" width="4" height="4" fill="#EC4E0F"/>
  <rect x="56" y="172" width="4" height="4" fill="#FF841B"/>
  <rect x="60" y="172" width="4" height="4" fill="#FEB42F"/>
  <rect x="64" y="172" width="4" height="4" fill="#FFB233"/>
  <rect x="68" y="172" width="4" height="4" fill="#FFAE30"/>
  <rect x="72" y="172" width="4" height="4" fill="#FFB434"/>
  <rect x="76" y="172" width="4" height="4" fill="#FFB12D"/>
  <rect x="80" y="172" width="4" height="4" fill="#FFE588"/>
  <rect x="84" y="172" width="4" height="4" fill="#F9EF9A"/>
  <rect x="88" y="172" width="4" height="4" fill="#FEEC96"/>
  <rect x="92" y="172" width="4" height="4" fill="#FEEC96"/>
  <rect x="96" y="172" width="4" height="4" fill="#FEEC96"/>
  <rect x="100" y="172" width="4" height="4" fill="#FFEB9B"/>
  <rect x="104" y="172" width="4" height="4" fill="#FBEB93"/>
  <rect x="108" y="172" width="4" height="4" fill="#FDEC92"/>
  <rect x="112" y="172" width="4" height="4" fill="#F7B334"/>
  <rect x="116" y="172" width="4" height="4" fill="#FFB134"/>
  <rect x="120" y="172" width="4" height="4" fill="#FFB22C"/>
  <rect x="124" y="172" width="4" height="4" fill="#FFBC3A"/>
  <rect x="128" y="172" width="4" height="4" fill="#FB5700"/>
  <rect x="132" y="172" width="4" height="4" fill="#FF5004"/>
  <rect x="136" y="172" width="4" height="4" fill="#FB4800"/>
  <rect x="140" y="172" width="4" height="4" fill="#FF500A"/>
  <rect x="144" y="172" width="4" height="4" fill="#F04C00"/>
  <rect x="56" y="176" width="4" height="4" fill="#FF4B00"/>
  <rect x="60" y="176" width="4" height="4" fill="#F87B07"/>
  <rect x="64" y="176" width="4" height="4" fill="#FCAF2F"/>
  <rect x="68" y="176" width="4" height="4" fill="#F9B331"/>
  <rect x="72" y="176" width="4" height="4" fill="#FFB233"/>
  <rect x="76" y="176" width="4" height="4" fill="#FFB12B"/>
  <rect x="80" y="176" width="4" height="4" fill="#FFE887"/>
  <rect x="84" y="176" width="4" height="4" fill="#FEEF9A"/>
  <rect x="88" y="176" width="4" height="4" fill="#FEEC96"/>
  <rect x="92" y="176" width="4" height="4" fill="#FEEC96"/>
  <rect x="96" y="176" width="4" height="4" fill="#FEEC96"/>
  <rect x="100" y="176" width="4" height="4" fill="#FFF09A"/>
  <rect x="104" y="176" width="4" height="4" fill="#F7E78F"/>
  <rect x="108" y="176" width="4" height="4" fill="#FFDD76"/>
  <rect x="112" y="176" width="4" height="4" fill="#FFAF32"/>
  <rect x="116" y="176" width="4" height="4" fill="#FEB131"/>
  <rect x="120" y="176" width="4" height="4" fill="#FFB633"/>
  <rect x="124" y="176" width="4" height="4" fill="#FE7912"/>
  <rect x="128" y="176" width="4" height="4" fill="#FF5000"/>
  <rect x="132" y="176" width="4" height="4" fill="#FF5001"/>
  <rect x="136" y="176" width="4" height="4" fill="#F25300"/>
  <rect x="64" y="180" width="4" height="4" fill="#F97D0D"/>
  <rect x="68" y="180" width="4" height="4" fill="#FFB235"/>
  <rect x="72" y="180" width="4" height="4" fill="#FEB131"/>
  <rect x="76" y="180" width="4" height="4" fill="#FFB22A"/>
  <rect x="80" y="180" width="4" height="4" fill="#FFDE7A"/>
  <rect x="84" y="180" width="4" height="4" fill="#FFF098"/>
  <rect x="88" y="180" width="4" height="4" fill="#FEEC96"/>
  <rect x="92" y="180" width="4" height="4" fill="#FEEC96"/>
  <rect x="96" y="180" width="4" height="4" fill="#FEEC96"/>
  <rect x="100" y="180" width="4" height="4" fill="#FCEB91"/>
  <rect x="104" y="180" width="4" height="4" fill="#FFF095"/>
  <rect x="108" y="180" width="4" height="4" fill="#FEB942"/>
  <rect x="112" y="180" width="4" height="4" fill="#FDB32C"/>
  <rect x="116" y="180" width="4" height="4" fill="#FFB633"/>
  <rect x="120" y="180" width="4" height="4" fill="#FF7B12"/>
  <rect x="124" y="180" width="4" height="4" fill="#FD5001"/>
  <rect x="128" y="180" width="4" height="4" fill="#FF5404"/>
  <rect x="68" y="184" width="4" height="4" fill="#F28109"/>
  <rect x="72" y="184" width="4" height="4" fill="#FFB033"/>
  <rect x="76" y="184" width="4" height="4" fill="#FFB126"/>
  <rect x="80" y="184" width="4" height="4" fill="#FAD064"/>
  <rect x="84" y="184" width="4" height="4" fill="#F9F091"/>
  <rect x="88" y="184" width="4" height="4" fill="#FFF1A5"/>
  <rect x="92" y="184" width="4" height="4" fill="#FFE79D"/>
  <rect x="96" y="184" width="4" height="4" fill="#FFE89C"/>
  <rect x="100" y="184" width="4" height="4" fill="#FFE988"/>
  <rect x="104" y="184" width="4" height="4" fill="#FFE988"/>
  <rect x="108" y="184" width="4" height="4" fill="#E3B730"/>
  <rect x="112" y="184" width="4" height="4" fill="#FFB444"/>
  <rect x="116" y="184" width="4" height="4" fill="#FF9B34"/>
  <rect x="120" y="184" width="4" height="4" fill="#FF4B00"/>
  <rect x="124" y="184" width="4" height="4" fill="#FF5408"/>
  <rect x="80" y="188" width="4" height="4" fill="#FF9F23"/>
  <rect x="84" y="188" width="4" height="4" fill="#F4E97D"/>
  <rect x="88" y="188" width="4" height="4" fill="#FFF1A8"/>
  <rect x="92" y="188" width="4" height="4" fill="#F6E89D"/>
  <rect x="96" y="188" width="4" height="4" fill="#FCE89F"/>
  <rect x="100" y="188" width="4" height="4" fill="#FCD675"/>
  <rect x="104" y="188" width="4" height="4" fill="#EDB82E"/>
  <rect x="108" y="188" width="4" height="4" fill="#FBA826"/>
  <rect x="112" y="188" width="4" height="4" fill="#FF4E08"/>
</svg>
