<?xml version="1.0" encoding="UTF-8"?>
<svg xmlns="http://www.w3.org/2000/svg" width="128" height="128" viewBox="0 0 128 128">
  <rect x="52" y="0" width="4" height="4" fill="#A3A1A1"/>
  <rect x="56" y="0" width="4" height="4" fill="#A3A1A1"/>
  <rect x="60" y="0" width="4" height="4" fill="#888888"/>
  <rect x="64" y="0" width="4" height="4" fill="#A3A1A1"/>
  <rect x="68" y="0" width="4" height="4" fill="#888888"/>
  <rect x="72" y="0" width="4" height="4" fill="#A3A1A1"/>
  <rect x="40" y="4" width="4" height="4" fill="#76757A"/>
  <rect x="44" y="4" width="4" height="4" fill="#A7A7A7"/>
  <rect x="48" y="4" width="4" height="4" fill="#B9B9B9"/>
  <rect x="52" y="4" width="4" height="4" fill="#B9B9B9"/>
  <rect x="56" y="4" width="4" height="4" fill="#D0D0D2"/>
  <rect x="60" y="4" width="4" height="4" fill="#E3E3E5"/>
  <rect x="64" y="4" width="4" height="4" fill="#BCBCBE"/>
  <rect x="68" y="4" width="4" height="4" fill="#B0B0B2"/>
  <rect x="72" y="4" width="4" height="4" fill="#A9A9AB"/>
  <rect x="76" y="4" width="4" height="4" fill="#AEAEAE"/>
  <rect x="80" y="4" width="4" height="4" fill="#C0C0C2"/>
  <rect x="84" y="4" width="4" height="4" fill="#696870"/>
  <rect x="32" y="8" width="4" height="4" fill="#B0B0B0"/>
  <rect x="36" y="8" width="4" height="4" fill="#B9B9B9"/>
  <rect x="40" y="8" width="4" height="4" fill="#ABABA9"/>
  <rect x="44" y="8" width="4" height="4" fill="#9D9D9B"/>
  <rect x="48" y="8" width="4" height="4" fill="#B0B0B0"/>
  <rect x="52" y="8" width="4" height="4" fill="#9C9C9A"/>
  <rect x="56" y="8" width="4" height="4" fill="#AFAFAF"/>
  <rect x="60" y="8" width="4" height="4" fill="#B3B3B3"/>
  <rect x="64" y="8" width="4" height="4" fill="#A0A0A0"/>
  <rect x="68" y="8" width="4" height="4" fill="#AEAEAC"/>
  <rect x="72" y="8" width="4" height="4" fill="#989795"/>
  <rect x="76" y="8" width="4" height="4" fill="#969495"/>
  <rect x="80" y="8" width="4" height="4" fill="#908E91"/>
  <rect x="84" y="8" width="4" height="4" fill="#B0B0B2"/>
  <rect x="88" y="8" width="4" height="4" fill="#949398"/>
  <rect x="92" y="8" width="4" height="4" fill="#48474C"/>
  <rect x="24" y="12" width="4" height="4" fill="#909090"/>
  <rect x="28" y="12" width="4" height="4" fill="#A8A8A8"/>
  <rect x="32" y="12" width="4" height="4" fill="#A6A5A1"/>
  <rect x="36" y="12" width="4" height="4" fill="#797874"/>
  <rect x="40" y="12" width="4" height="4" fill="#9D9C9A"/>
  <rect x="44" y="12" width="4" height="4" fill="#777672"/>
  <rect x="48" y="12" width="4" height="4" fill="#656460"/>
  <rect x="52" y="12" width="4" height="4" fill="#6B6A65"/>
  <rect x="56" y="12" width="4" height="4" fill="#5C5B57"/>
  <rect x="60" y="12" width="4" height="4" fill="#6A6964"/>
  <rect x="64" y="12" width="4" height="4" fill="#8C8B87"/>
  <rect x="68" y="12" width="4" height="4" fill="#83827D"/>
  <rect x="72" y="12" width="4" height="4" fill="#888481"/>
  <rect x="76" y="12" width="4" height="4" fill="#93928E"/>
  <rect x="80" y="12" width="4" height="4" fill="#8A8987"/>
  <rect x="84" y="12" width="4" height="4" fill="#D0CFCD"/>
  <rect x="88" y="12" width="4" height="4" fill="#C6C4C5"/>
  <rect x="92" y="12" width="4" height="4" fill="#7A7879"/>
  <rect x="96" y="12" width="4" height="4" fill="#41403E"/>
  <rect x="20" y="16" width="4" height="4" fill="#989793"/>
  <rect x="24" y="16" width="4" height="4" fill="#61605B"/>
  <rect x="28" y="16" width="4" height="4" fill="#4D4C48"/>
  <rect x="32" y="16" width="4" height="4" fill="#82817D"/>
  <rect x="36" y="16" width="4" height="4" fill="#B5B4B2"/>
  <rect x="40" y="16" width="4" height="4" fill="#9F9E9C"/>
  <rect x="44" y="16" width="4" height="4" fill="#868581"/>
  <rect x="48" y="16" width="4" height="4" fill="#C9C8C4"/>
  <rect x="52" y="16" width="4" height="4" fill="#42413C"/>
  <rect x="56" y="16" width="4" height="4" fill="#A4A39F"/>
  <rect x="60" y="16" width="4" height="4" fill="#605F5B"/>
  <rect x="64" y="16" width="4" height="4" fill="#74736F"/>
  <rect x="68" y="16" width="4" height="4" fill="#777672"/>
  <rect x="72" y="16" width="4" height="4" fill="#6F6B68"/>
  <rect x="76" y="16" width="4" height="4" fill="#6A6663"/>
  <rect x="80" y="16" width="4" height="4" fill="#73706B"/>
  <rect x="84" y="16" width="4" height="4" fill="#B6B5B3"/>
  <rect x="88" y="16" width="4" height="4" fill="#A8A7A3"/>
  <rect x="92" y="16" width="4" height="4" fill="#939192"/>
  <rect x="96" y="16" width="4" height="4" fill="#ADABAC"/>
  <rect x="100" y="16" width="4" height="4" fill="#6F6D6E"/>
  <rect x="16" y="20" width="4" height="4" fill="#474745"/>
  <rect x="20" y="20" width="4" height="4" fill="#5F5A57"/>
  <rect x="24" y="20" width="4" height="4" fill="#7D7976"/>
  <rect x="28" y="20" width="4" height="4" fill="#AAA6A3"/>
  <rect x="32" y="20" width="4" height="4" fill="#C3BFBC"/>
  <rect x="36" y="20" width="4" height="4" fill="#6D6C67"/>
  <rect x="40" y="20" width="4" height="4" fill="#7A7975"/>
  <rect x="44" y="20" width="4" height="4" fill="#5B5853"/>
  <rect x="48" y="20" width="4" height="4" fill="#5E5A57"/>
  <rect x="52" y="20" width="4" height="4" fill="#5C5855"/>
  <rect x="56" y="20" width="4" height="4" fill="#A09F9B"/>
  <rect x="60" y="20" width="4" height="4" fill="#8B8A86"/>
  <rect x="64" y="20" width="4" height="4" fill="#81807E"/>
  <rect x="68" y="20" width="4" height="4" fill="#83827E"/>
  <rect x="72" y="20" width="4" height="4" fill="#848381"/>
  <rect x="76" y="20" width="4" height="4" fill="#ADA9A8"/>
  <rect x="80" y="20" width="4" height="4" fill="#736F6C"/>
  <rect x="84" y="20" width="4" height="4" fill="#868583"/>
  <rect x="88" y="20" width="4" height="4" fill="#989795"/>
  <rect x="92" y="20" width="4" height="4" fill="#AFADAE"/>
  <rect x="96" y="20" width="4" height="4" fill="#797876"/>
  <rect x="100" y="20" width="4" height="4" fill="#92918F"/>
  <rect x="104" y="20" width="4" height="4" fill="#8B898C"/>
  <rect x="12" y="24" width="4" height="4" fill="#6F6E6A"/>
  <rect x="16" y="24" width="4" height="4" fill="#45413E"/>
  <rect x="20" y="24" width="4" height="4" fill="#4E4A47"/>
  <rect x="24" y="24" width="4" height="4" fill="#4A4549"/>
  <rect x="28" y="24" width="4" height="4" fill="#8B8784"/>
  <rect x="32" y="24" width="4" height="4" fill="#5B5851"/>
  <rect x="36" y="24" width="4" height="4" fill="#4A4945"/>
  <rect x="40" y="24" width="4" height="4" fill="#3E3A39"/>
  <rect x="44" y="24" width="4" height="4" fill="#63605B"/>
  <rect x="48" y="24" width="4" height="4" fill="#5F5C55"/>
  <rect x="52" y="24" width="4" height="4" fill="#5A574E"/>
  <rect x="56" y="24" width="4" height="4" fill="#595651"/>
  <rect x="60" y="24" width="4" height="4" fill="#938F8C"/>
  <rect x="64" y="24" width="4" height="4" fill="#A9A5A4"/>
  <rect x="68" y="24" width="4" height="4" fill="#E3DFDE"/>
  <rect x="72" y="24" width="4" height="4" fill="#9A9997"/>
  <rect x="76" y="24" width="4" height="4" fill="#F0ECEB"/>
  <rect x="80" y="24" width="4" height="4" fill="#8A8985"/>
  <rect x="84" y="24" width="4" height="4" fill="#8C8B87"/>
  <rect x="88" y="24" width="4" height="4" fill="#858480"/>
  <rect x="92" y="24" width="4" height="4" fill="#A3A2A0"/>
  <rect x="96" y="24" width="4" height="4" fill="#7F7E7C"/>
  <rect x="100" y="24" width="4" height="4" fill="#898886"/>
  <rect x="104" y="24" width="4" height="4" fill="#8E8C8D"/>
  <rect x="108" y="24" width="4" height="4" fill="#89878A"/>
  <rect x="12" y="28" width="4" height="4" fill="#585451"/>
  <rect x="16" y="28" width="4" height="4" fill="#534F4C"/>
  <rect x="20" y="28" width="4" height="4" fill="#676362"/>
  <rect x="24" y="28" width="4" height="4" fill="#7E7A77"/>
  <rect x="28" y="28" width="4" height="4" fill="#595651"/>
  <rect x="32" y="28" width="4" height="4" fill="#504D48"/>
  <rect x="36" y="28" width="4" height="4" fill="#464445"/>
  <rect x="40" y="28" width="4" height="4" fill="#3F3D3E"/>
  <rect x="44" y="28" width="4" height="4" fill="#4C4849"/>
  <rect x="48" y="28" width="4" height="4" fill="#5F5C57"/>
  <rect x="52" y="28" width="4" height="4" fill="#5D5A55"/>
  <rect x="56" y="28" width="4" height="4" fill="#888580"/>
  <rect x="60" y="28" width="4" height="4" fill="#797572"/>
  <rect x="64" y="28" width="4" height="4" fill="#999594"/>
  <rect x="68" y="28" width="4" height="4" fill="#ADA9A8"/>
  <rect x="72" y="28" width="4" height="4" fill="#A5A19E"/>
  <rect x="76" y="28" width="4" height="4" fill="#6F6B68"/>
  <rect x="80" y="28" width="4" height="4" fill="#6C6964"/>
  <rect x="84" y="28" width="4" height="4" fill="#A5A19E"/>
  <rect x="88" y="28" width="4" height="4" fill="#605C59"/>
  <rect x="92" y="28" width="4" height="4" fill="#A4A3A1"/>
  <rect x="96" y="28" width="4" height="4" fill="#BBBAB8"/>
  <rect x="100" y="28" width="4" height="4" fill="#9F9E9C"/>
  <rect x="104" y="28" width="4" height="4" fill="#8D8B8C"/>
  <rect x="108" y="28" width="4" height="4" fill="#817F82"/>
  <rect x="112" y="28" width="4" height="4" fill="#949295"/>
  <rect x="8" y="32" width="4" height="4" fill="#4C4C4C"/>
  <rect x="12" y="32" width="4" height="4" fill="#4D4B4E"/>
  <rect x="16" y="32" width="4" height="4" fill="#565455"/>
  <rect x="20" y="32" width="4" height="4" fill="#61605E"/>
  <rect x="24" y="32" width="4" height="4" fill="#55514E"/>
  <rect x="28" y="32" width="4" height="4" fill="#5A5653"/>
  <rect x="32" y="32" width="4" height="4" fill="#504F4B"/>
  <rect x="36" y="32" width="4" height="4" fill="#B4B3B1"/>
  <rect x="40" y="32" width="4" height="4" fill="#434142"/>
  <rect x="44" y="32" width="4" height="4" fill="#46423F"/>
  <rect x="48" y="32" width="4" height="4" fill="#53504B"/>
  <rect x="52" y="32" width="4" height="4" fill="#726E6B"/>
  <rect x="56" y="32" width="4" height="4" fill="#7A7977"/>
  <rect x="60" y="32" width="4" height="4" fill="#6A6967"/>
  <rect x="64" y="32" width="4" height="4" fill="#989493"/>
  <rect x="68" y="32" width="4" height="4" fill="#55514E"/>
  <rect x="72" y="32" width="4" height="4" fill="#504D48"/>
  <rect x="76" y="32" width="4" height="4" fill="#615D5A"/>
  <rect x="80" y="32" width="4" height="4" fill="#484441"/>
  <rect x="84" y="32" width="4" height="4" fill="#9B9794"/>
  <rect x="88" y="32" width="4" height="4" fill="#625E5B"/>
  <rect x="92" y="32" width="4" height="4" fill="#A29E9D"/>
  <rect x="96" y="32" width="4" height="4" fill="#D4D3D1"/>
  <rect x="100" y="32" width="4" height="4" fill="#9F9E9C"/>
  <rect x="104" y="32" width="4" height="4" fill="#ACAAAB"/>
  <rect x="108" y="32" width="4" height="4" fill="#8A8889"/>
  <rect x="112" y="32" width="4" height="4" fill="#B7B7B9"/>
  <rect x="116" y="32" width="4" height="4" fill="#3B393E"/>
  <rect x="8" y="36" width="4" height="4" fill="#3E3E3C"/>
  <rect x="12" y="36" width="4" height="4" fill="#464243"/>
  <rect x="16" y="36" width="4" height="4" fill="#7C7974"/>
  <rect x="20" y="36" width="4" height="4" fill="#6C6865"/>
  <rect x="24" y="36" width="4" height="4" fill="#5C5855"/>
  <rect x="28" y="36" width="4" height="4" fill="#96928F"/>
  <rect x="32" y="36" width="4" height="4" fill="#4E4D4B"/>
  <rect x="36" y="36" width="4" height="4" fill="#4C4A4B"/>
  <rect x="40" y="36" width="4" height="4" fill="#413F40"/>
  <rect x="44" y="36" width="4" height="4" fill="#555452"/>
  <rect x="48" y="36" width="4" height="4" fill="#524E4D"/>
  <rect x="52" y="36" width="4" height="4" fill="#6F6B6A"/>
  <rect x="56" y="36" width="4" height="4" fill="#888483"/>
  <rect x="60" y="36" width="4" height="4" fill="#8B8A88"/>
  <rect x="64" y="36" width="4" height="4" fill="#6A6967"/>
  <rect x="68" y="36" width="4" height="4" fill="#3E3A39"/>
  <rect x="72" y="36" width="4" height="4" fill="#4F4B48"/>
  <rect x="76" y="36" width="4" height="4" fill="#484441"/>
  <rect x="80" y="36" width="4" height="4" fill="#898582"/>
  <rect x="84" y="36" width="4" height="4" fill="#656460"/>
  <rect x="88" y="36" width="4" height="4" fill="#B7B6B2"/>
  <rect x="92" y="36" width="4" height="4" fill="#BBBAB8"/>
  <rect x="96" y="36" width="4" height="4" fill="#D5D4D2"/>
  <rect x="100" y="36" width="4" height="4" fill="#CBCAC8"/>
  <rect x="104" y="36" width="4" height="4" fill="#B5B4B2"/>
  <rect x="108" y="36" width="4" height="4" fill="#B0AFAD"/>
  <rect x="112" y="36" width="4" height="4" fill="#9C9A9B"/>
  <rect x="116" y="36" width="4" height="4" fill="#7E7C81"/>
  <rect x="4" y="40" width="4" height="4" fill="#8B8B8B"/>
  <rect x="8" y="40" width="4" height="4" fill="#484647"/>
  <rect x="12" y="40" width="4" height="4" fill="#5B5754"/>
  <rect x="16" y="40" width="4" height="4" fill="#FEFCFF"/>
  <rect x="20" y="40" width="4" height="4" fill="#7F7E7A"/>
  <rect x="24" y="40" width="4" height="4" fill="#666563"/>
  <rect x="28" y="40" width="4" height="4" fill="#5C5A5B"/>
  <rect x="32" y="40" width="4" height="4" fill="#4D4C4A"/>
  <rect x="36" y="40" width="4" height="4" fill="#4D4B4C"/>
  <rect x="40" y="40" width="4" height="4" fill="#565455"/>
  <rect x="44" y="40" width="4" height="4" fill="#8B8A88"/>
  <rect x="48" y="40" width="4" height="4" fill="#787473"/>
  <rect x="52" y="40" width="4" height="4" fill="#999594"/>
  <rect x="56" y="40" width="4" height="4" fill="#777370"/>
  <rect x="60" y="40" width="4" height="4" fill="#4F4B48"/>
  <rect x="64" y="40" width="4" height="4" fill="#635F5E"/>
  <rect x="68" y="40" width="4" height="4" fill="#514D4C"/>
  <rect x="72" y="40" width="4" height="4" fill="#4C4845"/>
  <rect x="76" y="40" width="4" height="4" fill="#56524F"/>
  <rect x="80" y="40" width="4" height="4" fill="#44403D"/>
  <rect x="84" y="40" width="4" height="4" fill="#383733"/>
  <rect x="88" y="40" width="4" height="4" fill="#A8A7A3"/>
  <rect x="92" y="40" width="4" height="4" fill="#CBCAC8"/>
  <rect x="96" y="40" width="4" height="4" fill="#BAB9B7"/>
  <rect x="100" y="40" width="4" height="4" fill="#ADACAA"/>
  <rect x="104" y="40" width="4" height="4" fill="#B0AFAD"/>
  <rect x="108" y="40" width="4" height="4" fill="#5C5B59"/>
  <rect x="112" y="40" width="4" height="4" fill="#575654"/>
  <rect x="116" y="40" width="4" height="4" fill="#979598"/>
  <rect x="4" y="44" width="4" height="4" fill="#4A4A4A"/>
  <rect x="8" y="44" width="4" height="4" fill="#413F40"/>
  <rect x="12" y="44" width="4" height="4" fill="#585455"/>
  <rect x="16" y="44" width="4" height="4" fill="#6A6665"/>
  <rect x="20" y="44" width="4" height="4" fill="#51504E"/>
  <rect x="24" y="44" width="4" height="4" fill="#5E5D5B"/>
  <rect x="28" y="44" width="4" height="4" fill="#939192"/>
  <rect x="32" y="44" width="4" height="4" fill="#686765"/>
  <rect x="36" y="44" width="4" height="4" fill="#656462"/>
  <rect x="40" y="44" width="4" height="4" fill="#6D6B6C"/>
  <rect x="44" y="44" width="4" height="4" fill="#565251"/>
  <rect x="48" y="44" width="4" height="4" fill="#575352"/>
  <rect x="52" y="44" width="4" height="4" fill="#514D4C"/>
  <rect x="56" y="44" width="4" height="4" fill="#AFAEAC"/>
  <rect x="60" y="44" width="4" height="4" fill="#928E8D"/>
  <rect x="64" y="44" width="4" height="4" fill="#4E4A47"/>
  <rect x="68" y="44" width="4" height="4" fill="#3F3B3A"/>
  <rect x="72" y="44" width="4" height="4" fill="#413D3A"/>
  <rect x="76" y="44" width="4" height="4" fill="#504C49"/>
  <rect x="80" y="44" width="4" height="4" fill="#45413E"/>
  <rect x="84" y="44" width="4" height="4" fill="#3A383B"/>
  <rect x="88" y="44" width="4" height="4" fill="#7C7B79"/>
  <rect x="92" y="44" width="4" height="4" fill="#787775"/>
  <rect x="96" y="44" width="4" height="4" fill="#B3B2B0"/>
  <rect x="100" y="44" width="4" height="4" fill="#A4A3A1"/>
  <rect x="104" y="44" width="4" height="4" fill="#848381"/>
  <rect x="108" y="44" width="4" height="4" fill="#5F5E5C"/>
  <rect x="112" y="44" width="4" height="4" fill="#3D3C38"/>
  <rect x="116" y="44" width="4" height="4" fill="#737270"/>
  <rect x="120" y="44" width="4" height="4" fill="#2A282B"/>
  <rect x="4" y="48" width="4" height="4" fill="#484848"/>
  <rect x="8" y="48" width="4" height="4" fill="#363435"/>
  <rect x="12" y="48" width="4" height="4" fill="#454545"/>
  <rect x="16" y="48" width="4" height="4" fill="#555555"/>
  <rect x="20" y="48" width="4" height="4" fill="#797876"/>
  <rect x="24" y="48" width="4" height="4" fill="#615F60"/>
  <rect x="28" y="48" width="4" height="4" fill="#696866"/>
  <rect x="32" y="48" width="4" height="4" fill="#7C7B77"/>
  <rect x="36" y="48" width="4" height="4" fill="#6B6A68"/>
  <rect x="40" y="48" width="4" height="4" fill="#706F6D"/>
  <rect x="44" y="48" width="4" height="4" fill="#5C5B59"/>
  <rect x="48" y="48" width="4" height="4" fill="#565251"/>
  <rect x="52" y="48" width="4" height="4" fill="#969291"/>
  <rect x="56" y="48" width="4" height="4" fill="#A29E9D"/>
  <rect x="60" y="48" width="4" height="4" fill="#7D7976"/>
  <rect x="64" y="48" width="4" height="4" fill="#615D5A"/>
  <rect x="68" y="48" width="4" height="4" fill="#555150"/>
  <rect x="72" y="48" width="4" height="4" fill="#44403F"/>
  <rect x="76" y="48" width="4" height="4" fill="#4F4B4A"/>
  <rect x="80" y="48" width="4" height="4" fill="#494544"/>
  <rect x="84" y="48" width="4" height="4" fill="#3D3D3F"/>
  <rect x="88" y="48" width="4" height="4" fill="#BCBABB"/>
  <rect x="92" y="48" width="4" height="4" fill="#636260"/>
  <rect x="96" y="48" width="4" height="4" fill="#575654"/>
  <rect x="100" y="48" width="4" height="4" fill="#E0DFDD"/>
  <rect x="104" y="48" width="4" height="4" fill="#A9A8A6"/>
  <rect x="108" y="48" width="4" height="4" fill="#4E4D4B"/>
  <rect x="112" y="48" width="4" height="4" fill="#393836"/>
  <rect x="116" y="48" width="4" height="4" fill="#858482"/>
  <rect x="120" y="48" width="4" height="4" fill="#413F40"/>
  <rect x="0" y="52" width="4" height="4" fill="#E3E3E3"/>
  <rect x="4" y="52" width="4" height="4" fill="#464646"/>
  <rect x="8" y="52" width="4" height="4" fill="#454344"/>
  <rect x="12" y="52" width="4" height="4" fill="#424043"/>
  <rect x="16" y="52" width="4" height="4" fill="#5D5B5C"/>
  <rect x="20" y="52" width="4" height="4" fill="#646361"/>
  <rect x="24" y="52" width="4" height="4" fill="#686765"/>
  <rect x="28" y="52" width="4" height="4" fill="#949391"/>
  <rect x="32" y="52" width="4" height="4" fill="#9E9D9B"/>
  <rect x="36" y="52" width="4" height="4" fill="#9B9A98"/>
  <rect x="40" y="52" width="4" height="4" fill="#7C7B79"/>
  <rect x="44" y="52" width="4" height="4" fill="#9B9A98"/>
  <rect x="48" y="52" width="4" height="4" fill="#52514F"/>
  <rect x="52" y="52" width="4" height="4" fill="#ADA9A8"/>
  <rect x="56" y="52" width="4" height="4" fill="#413D3C"/>
  <rect x="60" y="52" width="4" height="4" fill="#585451"/>
  <rect x="64" y="52" width="4" height="4" fill="#656460"/>
  <rect x="68" y="52" width="4" height="4" fill="#6E6A69"/>
  <rect x="72" y="52" width="4" height="4" fill="#878684"/>
  <rect x="76" y="52" width="4" height="4" fill="#686463"/>
  <rect x="80" y="52" width="4" height="4" fill="#464445"/>
  <rect x="84" y="52" width="4" height="4" fill="#39393B"/>
  <rect x="88" y="52" width="4" height="4" fill="#444243"/>
  <rect x="92" y="52" width="4" height="4" fill="#353334"/>
  <rect x="96" y="52" width="4" height="4" fill="#2A2829"/>
  <rect x="100" y="52" width="4" height="4" fill="#A3A2A0"/>
  <rect x="104" y="52" width="4" height="4" fill="#EEEDEB"/>
  <rect x="108" y="52" width="4" height="4" fill="#4A4947"/>
  <rect x="112" y="52" width="4" height="4" fill="#4B4A48"/>
  <rect x="116" y="52" width="4" height="4" fill="#858482"/>
  <rect x="120" y="52" width="4" height="4" fill="#8E8E8E"/>
  <rect x="0" y="56" width="4" height="4" fill="#BEBEBC"/>
  <rect x="4" y="56" width="4" height="4" fill="#494949"/>
  <rect x="8" y="56" width="4" height="4" fill="#626061"/>
  <rect x="12" y="56" width="4" height="4" fill="#464648"/>
  <rect x="16" y="56" width="4" height="4" fill="#787677"/>
  <rect x="20" y="56" width="4" height="4" fill="#B6B4B5"/>
  <rect x="24" y="56" width="4" height="4" fill="#636162"/>
  <rect x="28" y="56" width="4" height="4" fill="#9C9A9B"/>
  <rect x="32" y="56" width="4" height="4" fill="#9E9D9B"/>
  <rect x="36" y="56" width="4" height="4" fill="#E1E0DE"/>
  <rect x="40" y="56" width="4" height="4" fill="#969495"/>
  <rect x="44" y="56" width="4" height="4" fill="#817F80"/>
  <rect x="48" y="56" width="4" height="4" fill="#686667"/>
  <rect x="52" y="56" width="4" height="4" fill="#252324"/>
  <rect x="56" y="56" width="4" height="4" fill="#5D5B5C"/>
  <rect x="60" y="56" width="4" height="4" fill="#3B393A"/>
  <rect x="64" y="56" width="4" height="4" fill="#272526"/>
  <rect x="68" y="56" width="4" height="4" fill="#676566"/>
  <rect x="72" y="56" width="4" height="4" fill="#CAC8C9"/>
  <rect x="76" y="56" width="4" height="4" fill="#333134"/>
  <rect x="80" y="56" width="4" height="4" fill="#3A393E"/>
  <rect x="84" y="56" width="4" height="4" fill="#737277"/>
  <rect x="88" y="56" width="4" height="4" fill="#313035"/>
  <rect x="92" y="56" width="4" height="4" fill="#3C3B40"/>
  <rect x="96" y="56" width="4" height="4" fill="#313133"/>
  <rect x="100" y="56" width="4" height="4" fill="#575654"/>
  <rect x="104" y="56" width="4" height="4" fill="#BDBCBA"/>
  <rect x="108" y="56" width="4" height="4" fill="#ABAAA8"/>
  <rect x="112" y="56" width="4" height="4" fill="#9D9C9A"/>
  <rect x="116" y="56" width="4" height="4" fill="#AEADAB"/>
  <rect x="120" y="56" width="4" height="4" fill="#B4B3B1"/>
  <rect x="0" y="60" width="4" height="4" fill="#D9D9D7"/>
  <rect x="4" y="60" width="4" height="4" fill="#5C5C5A"/>
  <rect x="8" y="60" width="4" height="4" fill="#41403E"/>
  <rect x="12" y="60" width="4" height="4" fill="#4A4849"/>
  <rect x="16" y="60" width="4" height="4" fill="#686667"/>
  <rect x="20" y="60" width="4" height="4" fill="#B7B5B6"/>
  <rect x="24" y="60" width="4" height="4" fill="#808080"/>
  <rect x="28" y="60" width="4" height="4" fill="#6B696A"/>
  <rect x="32" y="60" width="4" height="4" fill="#A0A0A0"/>
  <rect x="36" y="60" width="4" height="4" fill="#8B898A"/>
  <rect x="40" y="60" width="4" height="4" fill="#787677"/>
  <rect x="44" y="60" width="4" height="4" fill="#7D7B7C"/>
  <rect x="48" y="60" width="4" height="4" fill="#383639"/>
  <rect x="52" y="60" width="4" height="4" fill="#7F7D7E"/>
  <rect x="56" y="60" width="4" height="4" fill="#8E8D8B"/>
  <rect x="60" y="60" width="4" height="4" fill="#848283"/>
  <rect x="64" y="60" width="4" height="4" fill="#888687"/>
  <rect x="68" y="60" width="4" height="4" fill="#838182"/>
  <rect x="72" y="60" width="4" height="4" fill="#A3A1A2"/>
  <rect x="76" y="60" width="4" height="4" fill="#2D2D2F"/>
  <rect x="80" y="60" width="4" height="4" fill="#3B3A3F"/>
  <rect x="84" y="60" width="4" height="4" fill="#3E3E40"/>
  <rect x="88" y="60" width="4" height="4" fill="#434345"/>
  <rect x="92" y="60" width="4" height="4" fill="#333237"/>
  <rect x="96" y="60" width="4" height="4" fill="#3D3D3D"/>
  <rect x="100" y="60" width="4" height="4" fill="#5A5957"/>
  <rect x="104" y="60" width="4" height="4" fill="#5C5B59"/>
  <rect x="108" y="60" width="4" height="4" fill="#B4B3B1"/>
  <rect x="112" y="60" width="4" height="4" fill="#92918F"/>
  <rect x="116" y="60" width="4" height="4" fill="#4D4C4A"/>
  <rect x="120" y="60" width="4" height="4" fill="#8B8A88"/>
  <rect x="0" y="64" width="4" height="4" fill="#A0A0A0"/>
  <rect x="4" y="64" width="4" height="4" fill="#494947"/>
  <rect x="8" y="64" width="4" height="4" fill="#474644"/>
  <rect x="12" y="64" width="4" height="4" fill="#3F3D40"/>
  <rect x="16" y="64" width="4" height="4" fill="#3A3839"/>
  <rect x="20" y="64" width="4" height="4" fill="#858482"/>
  <rect x="24" y="64" width="4" height="4" fill="#6F6D6E"/>
  <rect x="28" y="64" width="4" height="4" fill="#656364"/>
  <rect x="32" y="64" width="4" height="4" fill="#8C8C8C"/>
  <rect x="36" y="64" width="4" height="4" fill="#707070"/>
  <rect x="40" y="64" width="4" height="4" fill="#5F5F5F"/>
  <rect x="44" y="64" width="4" height="4" fill="#6B696C"/>
  <rect x="48" y="64" width="4" height="4" fill="#3B383F"/>
  <rect x="52" y="64" width="4" height="4" fill="#5E5C5D"/>
  <rect x="56" y="64" width="4" height="4" fill="#898886"/>
  <rect x="60" y="64" width="4" height="4" fill="#D6D4D5"/>
  <rect x="64" y="64" width="4" height="4" fill="#B7B5B6"/>
  <rect x="68" y="64" width="4" height="4" fill="#DADADA"/>
  <rect x="72" y="64" width="4" height="4" fill="#959595"/>
  <rect x="76" y="64" width="4" height="4" fill="#535355"/>
  <rect x="80" y="64" width="4" height="4" fill="#3F3F41"/>
  <rect x="84" y="64" width="4" height="4" fill="#323234"/>
  <rect x="88" y="64" width="4" height="4" fill="#3B3B3D"/>
  <rect x="92" y="64" width="4" height="4" fill="#5C5B60"/>
  <rect x="96" y="64" width="4" height="4" fill="#333132"/>
  <rect x="100" y="64" width="4" height="4" fill="#838280"/>
  <rect x="104" y="64" width="4" height="4" fill="#484745"/>
  <rect x="108" y="64" width="4" height="4" fill="#373536"/>
  <rect x="112" y="64" width="4" height="4" fill="#51504E"/>
  <rect x="116" y="64" width="4" height="4" fill="#4D4C4A"/>
  <rect x="120" y="64" width="4" height="4" fill="#767573"/>
  <rect x="0" y="68" width="4" height="4" fill="#CBCBC9"/>
  <rect x="4" y="68" width="4" height="4" fill="#838383"/>
  <rect x="8" y="68" width="4" height="4" fill="#3C3A3B"/>
  <rect x="12" y="68" width="4" height="4" fill="#474548"/>
  <rect x="16" y="68" width="4" height="4" fill="#3B393C"/>
  <rect x="20" y="68" width="4" height="4" fill="#49474A"/>
  <rect x="24" y="68" width="4" height="4" fill="#444245"/>
  <rect x="28" y="68" width="4" height="4" fill="#898788"/>
  <rect x="32" y="68" width="4" height="4" fill="#838280"/>
  <rect x="36" y="68" width="4" height="4" fill="#7F7D7E"/>
  <rect x="40" y="68" width="4" height="4" fill="#757374"/>
  <rect x="44" y="68" width="4" height="4" fill="#58585A"/>
  <rect x="48" y="68" width="4" height="4" fill="#888888"/>
  <rect x="52" y="68" width="4" height="4" fill="#828081"/>
  <rect x="56" y="68" width="4" height="4" fill="#656462"/>
  <rect x="60" y="68" width="4" height="4" fill="#BCBBB9"/>
  <rect x="64" y="68" width="4" height="4" fill="#D7D6D4"/>
  <rect x="68" y="68" width="4" height="4" fill="#D1CFD0"/>
  <rect x="72" y="68" width="4" height="4" fill="#BBB9BA"/>
  <rect x="76" y="68" width="4" height="4" fill="#757577"/>
  <rect x="80" y="68" width="4" height="4" fill="#4A4A4C"/>
  <rect x="84" y="68" width="4" height="4" fill="#464648"/>
  <rect x="88" y="68" width="4" height="4" fill="#464646"/>
  <rect x="92" y="68" width="4" height="4" fill="#C3C3C5"/>
  <rect x="96" y="68" width="4" height="4" fill="#969495"/>
  <rect x="100" y="68" width="4" height="4" fill="#454344"/>
  <rect x="104" y="68" width="4" height="4" fill="#4E4C4D"/>
  <rect x="108" y="68" width="4" height="4" fill="#484647"/>
  <rect x="112" y="68" width="4" height="4" fill="#5E5D5B"/>
  <rect x="116" y="68" width="4" height="4" fill="#9B9A98"/>
  <rect x="120" y="68" width="4" height="4" fill="#7D7D7B"/>
  <rect x="4" y="72" width="4" height="4" fill="#CACACA"/>
  <rect x="8" y="72" width="4" height="4" fill="#413F40"/>
  <rect x="12" y="72" width="4" height="4" fill="#504E51"/>
  <rect x="16" y="72" width="4" height="4" fill="#444245"/>
  <rect x="20" y="72" width="4" height="4" fill="#424043"/>
  <rect x="24" y="72" width="4" height="4" fill="#504E4F"/>
  <rect x="28" y="72" width="4" height="4" fill="#494748"/>
  <rect x="32" y="72" width="4" height="4" fill="#535250"/>
  <rect x="36" y="72" width="4" height="4" fill="#858482"/>
  <rect x="40" y="72" width="4" height="4" fill="#91908E"/>
  <rect x="44" y="72" width="4" height="4" fill="#959394"/>
  <rect x="48" y="72" width="4" height="4" fill="#BAB8B9"/>
  <rect x="52" y="72" width="4" height="4" fill="#999798"/>
  <rect x="56" y="72" width="4" height="4" fill="#A9A8A6"/>
  <rect x="60" y="72" width="4" height="4" fill="#AFAEAC"/>
  <rect x="64" y="72" width="4" height="4" fill="#B2B1AF"/>
  <rect x="68" y="72" width="4" height="4" fill="#C1BFC0"/>
  <rect x="72" y="72" width="4" height="4" fill="#B6B4B5"/>
  <rect x="76" y="72" width="4" height="4" fill="#CDCBCE"/>
  <rect x="80" y="72" width="4" height="4" fill="#CFCDD0"/>
  <rect x="84" y="72" width="4" height="4" fill="#676568"/>
  <rect x="88" y="72" width="4" height="4" fill="#868485"/>
  <rect x="92" y="72" width="4" height="4" fill="#DDDBDC"/>
  <rect x="96" y="72" width="4" height="4" fill="#959492"/>
  <rect x="100" y="72" width="4" height="4" fill="#AAA8A9"/>
  <rect x="104" y="72" width="4" height="4" fill="#464445"/>
  <rect x="108" y="72" width="4" height="4" fill="#434142"/>
  <rect x="112" y="72" width="4" height="4" fill="#5B5A58"/>
  <rect x="116" y="72" width="4" height="4" fill="#959492"/>
  <rect x="120" y="72" width="4" height="4" fill="#868684"/>
  <rect x="4" y="76" width="4" height="4" fill="#D0D0CE"/>
  <rect x="8" y="76" width="4" height="4" fill="#565553"/>
  <rect x="12" y="76" width="4" height="4" fill="#5E5C5D"/>
  <rect x="16" y="76" width="4" height="4" fill="#3F3D3E"/>
  <rect x="20" y="76" width="4" height="4" fill="#434144"/>
  <rect x="24" y="76" width="4" height="4" fill="#5D5B5C"/>
  <rect x="28" y="76" width="4" height="4" fill="#595856"/>
  <rect x="32" y="76" width="4" height="4" fill="#4C4B49"/>
  <rect x="36" y="76" width="4" height="4" fill="#767573"/>
  <rect x="40" y="76" width="4" height="4" fill="#8E8D8B"/>
  <rect x="44" y="76" width="4" height="4" fill="#61605E"/>
  <rect x="48" y="76" width="4" height="4" fill="#9B999A"/>
  <rect x="52" y="76" width="4" height="4" fill="#BEBDBB"/>
  <rect x="56" y="76" width="4" height="4" fill="#B8B7B5"/>
  <rect x="60" y="76" width="4" height="4" fill="#B6B5B3"/>
  <rect x="64" y="76" width="4" height="4" fill="#DCDBD9"/>
  <rect x="68" y="76" width="4" height="4" fill="#C7C5C6"/>
  <rect x="72" y="76" width="4" height="4" fill="#B9B7B8"/>
  <rect x="76" y="76" width="4" height="4" fill="#DFDFE1"/>
  <rect x="80" y="76" width="4" height="4" fill="#99999B"/>
  <rect x="84" y="76" width="4" height="4" fill="#7E7E80"/>
  <rect x="88" y="76" width="4" height="4" fill="#908E8F"/>
  <rect x="92" y="76" width="4" height="4" fill="#9D9C9A"/>
  <rect x="96" y="76" width="4" height="4" fill="#ADACAA"/>
  <rect x="100" y="76" width="4" height="4" fill="#626061"/>
  <rect x="104" y="76" width="4" height="4" fill="#615F60"/>
  <rect x="108" y="76" width="4" height="4" fill="#757374"/>
  <rect x="112" y="76" width="4" height="4" fill="#C0BFBD"/>
  <rect x="116" y="76" width="4" height="4" fill="#C1C0BE"/>
  <rect x="120" y="76" width="4" height="4" fill="#8C8C8A"/>
  <rect x="4" y="80" width="4" height="4" fill="#B2B2B2"/>
  <rect x="8" y="80" width="4" height="4" fill="#AFAFAD"/>
  <rect x="12" y="80" width="4" height="4" fill="#8F8E8C"/>
  <rect x="16" y="80" width="4" height="4" fill="#7A7977"/>
  <rect x="20" y="80" width="4" height="4" fill="#535250"/>
  <rect x="24" y="80" width="4" height="4" fill="#423E3F"/>
  <rect x="28" y="80" width="4" height="4" fill="#4B4A48"/>
  <rect x="32" y="80" width="4" height="4" fill="#41403E"/>
  <rect x="36" y="80" width="4" height="4" fill="#4E4D4B"/>
  <rect x="40" y="80" width="4" height="4" fill="#979694"/>
  <rect x="44" y="80" width="4" height="4" fill="#8D8B8C"/>
  <rect x="48" y="80" width="4" height="4" fill="#848283"/>
  <rect x="52" y="80" width="4" height="4" fill="#B7B5B6"/>
  <rect x="56" y="80" width="4" height="4" fill="#939290"/>
  <rect x="60" y="80" width="4" height="4" fill="#969593"/>
  <rect x="64" y="80" width="4" height="4" fill="#ABAAA8"/>
  <rect x="68" y="80" width="4" height="4" fill="#ABA9AA"/>
  <rect x="72" y="80" width="4" height="4" fill="#CCCACB"/>
  <rect x="76" y="80" width="4" height="4" fill="#F3F3F5"/>
  <rect x="80" y="80" width="4" height="4" fill="#C7C7C9"/>
  <rect x="84" y="80" width="4" height="4" fill="#EFEFEF"/>
  <rect x="88" y="80" width="4" height="4" fill="#979596"/>
  <rect x="92" y="80" width="4" height="4" fill="#52514F"/>
  <rect x="96" y="80" width="4" height="4" fill="#A09F9B"/>
  <rect x="100" y="80" width="4" height="4" fill="#B4B2B3"/>
  <rect x="104" y="80" width="4" height="4" fill="#696768"/>
  <rect x="108" y="80" width="4" height="4" fill="#5F5D5E"/>
  <rect x="112" y="80" width="4" height="4" fill="#848381"/>
  <rect x="116" y="80" width="4" height="4" fill="#7A7977"/>
  <rect x="120" y="80" width="4" height="4" fill="#A1A19F"/>
  <rect x="4" y="84" width="4" height="4" fill="#DEDEDE"/>
  <rect x="8" y="84" width="4" height="4" fill="#C0C0BE"/>
  <rect x="12" y="84" width="4" height="4" fill="#A8A7A5"/>
  <rect x="16" y="84" width="4" height="4" fill="#888785"/>
  <rect x="20" y="84" width="4" height="4" fill="#898886"/>
  <rect x="24" y="84" width="4" height="4" fill="#333230"/>
  <rect x="28" y="84" width="4" height="4" fill="#4A4947"/>
  <rect x="32" y="84" width="4" height="4" fill="#A3A2A0"/>
  <rect x="36" y="84" width="4" height="4" fill="#5A5957"/>
  <rect x="40" y="84" width="4" height="4" fill="#454442"/>
  <rect x="44" y="84" width="4" height="4" fill="#484647"/>
  <rect x="48" y="84" width="4" height="4" fill="#646263"/>
  <rect x="52" y="84" width="4" height="4" fill="#B1B0AE"/>
  <rect x="56" y="84" width="4" height="4" fill="#989795"/>
  <rect x="60" y="84" width="4" height="4" fill="#9F9E9C"/>
  <rect x="64" y="84" width="4" height="4" fill="#A6A5A3"/>
  <rect x="68" y="84" width="4" height="4" fill="#A7A5A6"/>
  <rect x="72" y="84" width="4" height="4" fill="#B5B3B4"/>
  <rect x="76" y="84" width="4" height="4" fill="#C1BFC0"/>
  <rect x="80" y="84" width="4" height="4" fill="#D4D4D4"/>
  <rect x="84" y="84" width="4" height="4" fill="#EAEAEA"/>
  <rect x="88" y="84" width="4" height="4" fill="#656364"/>
  <rect x="92" y="84" width="4" height="4" fill="#5D5B5C"/>
  <rect x="96" y="84" width="4" height="4" fill="#D4D3D1"/>
  <rect x="100" y="84" width="4" height="4" fill="#B1AFB0"/>
  <rect x="104" y="84" width="4" height="4" fill="#848283"/>
  <rect x="108" y="84" width="4" height="4" fill="#6F6D6E"/>
  <rect x="112" y="84" width="4" height="4" fill="#767573"/>
  <rect x="116" y="84" width="4" height="4" fill="#949391"/>
  <rect x="8" y="88" width="4" height="4" fill="#F7F7F7"/>
  <rect x="12" y="88" width="4" height="4" fill="#A4A3A1"/>
  <rect x="16" y="88" width="4" height="4" fill="#9C9B99"/>
  <rect x="20" y="88" width="4" height="4" fill="#42413F"/>
  <rect x="24" y="88" width="4" height="4" fill="#3D3938"/>
  <rect x="28" y="88" width="4" height="4" fill="#797574"/>
  <rect x="32" y="88" width="4" height="4" fill="#686765"/>
  <rect x="36" y="88" width="4" height="4" fill="#5C5B59"/>
  <rect x="40" y="88" width="4" height="4" fill="#51504E"/>
  <rect x="44" y="88" width="4" height="4" fill="#555354"/>
  <rect x="48" y="88" width="4" height="4" fill="#A19FA0"/>
  <rect x="52" y="88" width="4" height="4" fill="#B6B5B3"/>
  <rect x="56" y="88" width="4" height="4" fill="#BBBAB8"/>
  <rect x="60" y="88" width="4" height="4" fill="#ADACAA"/>
  <rect x="64" y="88" width="4" height="4" fill="#949391"/>
  <rect x="68" y="88" width="4" height="4" fill="#A5A3A4"/>
  <rect x="72" y="88" width="4" height="4" fill="#B2B0B1"/>
  <rect x="76" y="88" width="4" height="4" fill="#ADABAC"/>
  <rect x="80" y="88" width="4" height="4" fill="#E5E5E5"/>
  <rect x="84" y="88" width="4" height="4" fill="#BCBCBC"/>
  <rect x="88" y="88" width="4" height="4" fill="#B6B4B5"/>
  <rect x="92" y="88" width="4" height="4" fill="#656364"/>
  <rect x="96" y="88" width="4" height="4" fill="#737172"/>
  <rect x="100" y="88" width="4" height="4" fill="#777777"/>
  <rect x="104" y="88" width="4" height="4" fill="#696768"/>
  <rect x="108" y="88" width="4" height="4" fill="#C4C4C4"/>
  <rect x="112" y="88" width="4" height="4" fill="#8D8D8B"/>
  <rect x="116" y="88" width="4" height="4" fill="#8E8D8B"/>
  <rect x="8" y="92" width="4" height="4" fill="#CBCBCB"/>
  <rect x="12" y="92" width="4" height="4" fill="#CFCECC"/>
  <rect x="16" y="92" width="4" height="4" fill="#888785"/>
  <rect x="20" y="92" width="4" height="4" fill="#6C6B69"/>
  <rect x="24" y="92" width="4" height="4" fill="#504F4D"/>
  <rect x="28" y="92" width="4" height="4" fill="#676362"/>
  <rect x="32" y="92" width="4" height="4" fill="#5C5A5B"/>
  <rect x="36" y="92" width="4" height="4" fill="#5A5A5A"/>
  <rect x="40" y="92" width="4" height="4" fill="#696768"/>
  <rect x="44" y="92" width="4" height="4" fill="#3E3C3D"/>
  <rect x="48" y="92" width="4" height="4" fill="#686667"/>
  <rect x="52" y="92" width="4" height="4" fill="#A8A6A7"/>
  <rect x="56" y="92" width="4" height="4" fill="#B6B5B3"/>
  <rect x="60" y="92" width="4" height="4" fill="#A6A6A4"/>
  <rect x="64" y="92" width="4" height="4" fill="#BDBCBA"/>
  <rect x="68" y="92" width="4" height="4" fill="#BEBDBB"/>
  <rect x="72" y="92" width="4" height="4" fill="#D4D2D3"/>
  <rect x="76" y="92" width="4" height="4" fill="#AEACAD"/>
  <rect x="80" y="92" width="4" height="4" fill="#B3B3B3"/>
  <rect x="84" y="92" width="4" height="4" fill="#CDCDCD"/>
  <rect x="88" y="92" width="4" height="4" fill="#A5A5A5"/>
  <rect x="92" y="92" width="4" height="4" fill="#9C9A9B"/>
  <rect x="96" y="92" width="4" height="4" fill="#CDCBCC"/>
  <rect x="100" y="92" width="4" height="4" fill="#B7B7B7"/>
  <rect x="104" y="92" width="4" height="4" fill="#B4B4B4"/>
  <rect x="108" y="92" width="4" height="4" fill="#DCDCDC"/>
  <rect x="112" y="92" width="4" height="4" fill="#B2B2B0"/>
  <rect x="12" y="96" width="4" height="4" fill="#B8B6B7"/>
  <rect x="16" y="96" width="4" height="4" fill="#D7D5D6"/>
  <rect x="20" y="96" width="4" height="4" fill="#C3C1C2"/>
  <rect x="24" y="96" width="4" height="4" fill="#9E9D9B"/>
  <rect x="28" y="96" width="4" height="4" fill="#989795"/>
  <rect x="32" y="96" width="4" height="4" fill="#B4B2B3"/>
  <rect x="36" y="96" width="4" height="4" fill="#ABA9AA"/>
  <rect x="40" y="96" width="4" height="4" fill="#474546"/>
  <rect x="44" y="96" width="4" height="4" fill="#4F4D4E"/>
  <rect x="48" y="96" width="4" height="4" fill="#A7A7A7"/>
  <rect x="52" y="96" width="4" height="4" fill="#BEBEBE"/>
  <rect x="56" y="96" width="4" height="4" fill="#CFCDCE"/>
  <rect x="60" y="96" width="4" height="4" fill="#D6D6D4"/>
  <rect x="64" y="96" width="4" height="4" fill="#C1C1BF"/>
  <rect x="68" y="96" width="4" height="4" fill="#ABABAB"/>
  <rect x="72" y="96" width="4" height="4" fill="#A4A2A3"/>
  <rect x="76" y="96" width="4" height="4" fill="#C5C5C5"/>
  <rect x="80" y="96" width="4" height="4" fill="#B3B3B3"/>
  <rect x="84" y="96" width="4" height="4" fill="#B1B1B1"/>
  <rect x="88" y="96" width="4" height="4" fill="#BDBDBD"/>
  <rect x="92" y="96" width="4" height="4" fill="#AEACAD"/>
  <rect x="96" y="96" width="4" height="4" fill="#B2B2B2"/>
  <rect x="100" y="96" width="4" height="4" fill="#DCDCDC"/>
  <rect x="104" y="96" width="4" height="4" fill="#C0C0C2"/>
  <rect x="108" y="96" width="4" height="4" fill="#DCDCDE"/>
  <rect x="112" y="96" width="4" height="4" fill="#F2F2F2"/>
  <rect x="16" y="100" width="4" height="4" fill="#CFCDCE"/>
  <rect x="20" y="100" width="4" height="4" fill="#BBBAB8"/>
  <rect x="24" y="100" width="4" height="4" fill="#A7A6A4"/>
  <rect x="28" y="100" width="4" height="4" fill="#C0BFBD"/>
  <rect x="32" y="100" width="4" height="4" fill="#838280"/>
  <rect x="36" y="100" width="4" height="4" fill="#7B7B7B"/>
  <rect x="40" y="100" width="4" height="4" fill="#D8D8D8"/>
  <rect x="44" y="100" width="4" height="4" fill="#B7B7B7"/>
  <rect x="48" y="100" width="4" height="4" fill="#EDEDED"/>
  <rect x="52" y="100" width="4" height="4" fill="#DCDCDC"/>
  <rect x="56" y="100" width="4" height="4" fill="#E9E9E9"/>
  <rect x="60" y="100" width="4" height="4" fill="#E8E8E8"/>
  <rect x="64" y="100" width="4" height="4" fill="#D7D7D7"/>
  <rect x="68" y="100" width="4" height="4" fill="#A6A6A6"/>
  <rect x="72" y="100" width="4" height="4" fill="#C9C9C7"/>
  <rect x="76" y="100" width="4" height="4" fill="#ADACAA"/>
  <rect x="80" y="100" width="4" height="4" fill="#CAC9C7"/>
  <rect x="84" y="100" width="4" height="4" fill="#A9A7A8"/>
  <rect x="88" y="100" width="4" height="4" fill="#B1B1AF"/>
  <rect x="92" y="100" width="4" height="4" fill="#B6B6B6"/>
  <rect x="96" y="100" width="4" height="4" fill="#C5C5C5"/>
  <rect x="100" y="100" width="4" height="4" fill="#C6C6C6"/>
  <rect x="104" y="100" width="4" height="4" fill="#B9B9BB"/>
  <rect x="108" y="100" width="4" height="4" fill="#A7A7A9"/>
  <rect x="20" y="104" width="4" height="4" fill="#A7A5A6"/>
  <rect x="24" y="104" width="4" height="4" fill="#B3B2B0"/>
  <rect x="28" y="104" width="4" height="4" fill="#B6B5B3"/>
  <rect x="32" y="104" width="4" height="4" fill="#B9B9B7"/>
  <rect x="36" y="104" width="4" height="4" fill="#BCBCBC"/>
  <rect x="40" y="104" width="4" height="4" fill="#D1D1D1"/>
  <rect x="44" y="104" width="4" height="4" fill="#CACACA"/>
  <rect x="48" y="104" width="4" height="4" fill="#F4F4F6"/>
  <rect x="52" y="104" width="4" height="4" fill="#EFEFF1"/>
  <rect x="56" y="104" width="4" height="4" fill="#E2E2E4"/>
  <rect x="60" y="104" width="4" height="4" fill="#E2E2E2"/>
  <rect x="64" y="104" width="4" height="4" fill="#AEAEAE"/>
  <rect x="68" y="104" width="4" height="4" fill="#CCCCCC"/>
  <rect x="72" y="104" width="4" height="4" fill="#AAAAAA"/>
  <rect x="76" y="104" width="4" height="4" fill="#A9A8A6"/>
  <rect x="80" y="104" width="4" height="4" fill="#A9A8A6"/>
  <rect x="84" y="104" width="4" height="4" fill="#BEBEBE"/>
  <rect x="88" y="104" width="4" height="4" fill="#BEBEBE"/>
  <rect x="92" y="104" width="4" height="4" fill="#B5B5B5"/>
  <rect x="96" y="104" width="4" height="4" fill="#D9D9D9"/>
  <rect x="100" y="104" width="4" height="4" fill="#979797"/>
  <rect x="104" y="104" width="4" height="4" fill="#888888"/>
  <rect x="24" y="108" width="4" height="4" fill="#B0AFAD"/>
  <rect x="28" y="108" width="4" height="4" fill="#8A8987"/>
  <rect x="32" y="108" width="4" height="4" fill="#C4C4C4"/>
  <rect x="36" y="108" width="4" height="4" fill="#B9B9B9"/>
  <rect x="40" y="108" width="4" height="4" fill="#CACACA"/>
  <rect x="44" y="108" width="4" height="4" fill="#E0E0E0"/>
  <rect x="48" y="108" width="4" height="4" fill="#F3F3F3"/>
  <rect x="52" y="108" width="4" height="4" fill="#E2E2E2"/>
  <rect x="56" y="108" width="4" height="4" fill="#E5E5E7"/>
  <rect x="60" y="108" width="4" height="4" fill="#D6D6D8"/>
  <rect x="64" y="108" width="4" height="4" fill="#DBDBDB"/>
  <rect x="68" y="108" width="4" height="4" fill="#D4D4D4"/>
  <rect x="72" y="108" width="4" height="4" fill="#B9B9B9"/>
  <rect x="76" y="108" width="4" height="4" fill="#FFFEFF"/>
  <rect x="80" y="108" width="4" height="4" fill="#BFBDBE"/>
  <rect x="84" y="108" width="4" height="4" fill="#E0E0E0"/>
  <rect x="88" y="108" width="4" height="4" fill="#D4D4D4"/>
  <rect x="92" y="108" width="4" height="4" fill="#CCCCCC"/>
  <rect x="96" y="108" width="4" height="4" fill="#ADADAD"/>
  <rect x="100" y="108" width="4" height="4" fill="#A5A5A5"/>
  <rect x="28" y="112" width="4" height="4" fill="#C3C1C2"/>
  <rect x="32" y="112" width="4" height="4" fill="#B0AFAD"/>
  <rect x="36" y="112" width="4" height="4" fill="#CAC8C9"/>
  <rect x="40" y="112" width="4" height="4" fill="#B2B0B1"/>
  <rect x="44" y="112" width="4" height="4" fill="#C2C2C2"/>
  <rect x="48" y="112" width="4" height="4" fill="#E0E0E2"/>
  <rect x="52" y="112" width="4" height="4" fill="#EAEAEC"/>
  <rect x="56" y="112" width="4" height="4" fill="#E8E8EA"/>
  <rect x="60" y="112" width="4" height="4" fill="#D1D1D3"/>
  <rect x="64" y="112" width="4" height="4" fill="#C2C2C4"/>
  <rect x="68" y="112" width="4" height="4" fill="#B6B6B6"/>
  <rect x="72" y="112" width="4" height="4" fill="#BABABA"/>
  <rect x="76" y="112" width="4" height="4" fill="#BEBCBD"/>
  <rect x="80" y="112" width="4" height="4" fill="#B2B0B1"/>
  <rect x="84" y="112" width="4" height="4" fill="#C6C6C6"/>
  <rect x="88" y="112" width="4" height="4" fill="#C5C5C5"/>
  <rect x="92" y="112" width="4" height="4" fill="#CACACA"/>
  <rect x="96" y="112" width="4" height="4" fill="#A6A6A6"/>
  <rect x="36" y="116" width="4" height="4" fill="#C3C3C3"/>
  <rect x="40" y="116" width="4" height="4" fill="#BCBABB"/>
  <rect x="44" y="116" width="4" height="4" fill="#CCCACB"/>
  <rect x="48" y="116" width="4" height="4" fill="#E6E6E8"/>
  <rect x="52" y="116" width="4" height="4" fill="#E4E4E6"/>
  <rect x="56" y="116" width="4" height="4" fill="#D5D5D7"/>
  <rect x="60" y="116" width="4" height="4" fill="#DCDCDE"/>
  <rect x="64" y="116" width="4" height="4" fill="#C8C8C8"/>
  <rect x="68" y="116" width="4" height="4" fill="#BABABA"/>
  <rect x="72" y="116" width="4" height="4" fill="#C0C0C0"/>
  <rect x="76" y="116" width="4" height="4" fill="#B2B0B1"/>
  <rect x="80" y="116" width="4" height="4" fill="#C2C0C1"/>
  <rect x="84" y="116" width="4" height="4" fill="#D5D3D4"/>
  <rect x="88" y="116" width="4" height="4" fill="#C5C3C4"/>
  <rect x="44" y="120" width="4" height="4" fill="#D1D1D1"/>
  <rect x="48" y="120" width="4" height="4" fill="#D4D4D6"/>
  <rect x="52" y="120" width="4" height="4" fill="#F6F6F8"/>
  <rect x="56" y="120" width="4" height="4" fill="#ECECEE"/>
  <rect x="60" y="120" width="4" height="4" fill="#D6D6D8"/>
  <rect x="64" y="120" width="4" height="4" fill="#BFBFBF"/>
  <rect x="68" y="120" width="4" height="4" fill="#C3C3C3"/>
  <rect x="72" y="120" width="4" height="4" fill="#DDDDDD"/>
  <rect x="76" y="120" width="4" height="4" fill="#BEBCBD"/>
  <rect x="80" y="120" width="4" height="4" fill="#D9D7D8"/>
</svg>
