<?xml version="1.0" encoding="UTF-8"?>
<svg xmlns="http://www.w3.org/2000/svg" width="256" height="256" viewBox="0 0 256 256">
  <rect x="96" y="36" width="4" height="4" fill="#F0E8C5"/>
  <rect x="96" y="40" width="4" height="4" fill="#4F4C3A"/>
  <rect x="148" y="44" width="4" height="4" fill="#D43B08"/>
  <rect x="152" y="44" width="4" height="4" fill="#CF2E04"/>
  <rect x="156" y="44" width="4" height="4" fill="#150303"/>
  <rect x="48" y="48" width="4" height="4" fill="#E74A05"/>
  <rect x="52" y="48" width="4" height="4" fill="#FA3C03"/>
  <rect x="56" y="48" width="4" height="4" fill="#CB2402"/>
  <rect x="108" y="48" width="4" height="4" fill="#F24F03"/>
  <rect x="144" y="48" width="4" height="4" fill="#190100"/>
  <rect x="148" y="48" width="4" height="4" fill="#FB4F05"/>
  <rect x="152" y="48" width="4" height="4" fill="#FA3403"/>
  <rect x="48" y="52" width="4" height="4" fill="#AD2A05"/>
  <rect x="52" y="52" width="4" height="4" fill="#F63205"/>
  <rect x="56" y="52" width="4" height="4" fill="#E62704"/>
  <rect x="60" y="52" width="4" height="4" fill="#721306"/>
  <rect x="108" y="52" width="4" height="4" fill="#F34F04"/>
  <rect x="112" y="52" width="4" height="4" fill="#E32606"/>
  <rect x="116" y="52" width="4" height="4" fill="#B52304"/>
  <rect x="108" y="56" width="4" height="4" fill="#F24403"/>
  <rect x="112" y="56" width="4" height="4" fill="#F42302"/>
  <rect x="116" y="56" width="4" height="4" fill="#D22002"/>
  <rect x="112" y="60" width="4" height="4" fill="#FA2E03"/>
  <rect x="116" y="60" width="4" height="4" fill="#D62604"/>
  <rect x="208" y="60" width="4" height="4" fill="#501307"/>
  <rect x="208" y="64" width="4" height="4" fill="#F72D0B"/>
  <rect x="20" y="68" width="4" height="4" fill="#A83801"/>
  <rect x="24" y="68" width="4" height="4" fill="#A52405"/>
  <rect x="188" y="68" width="4" height="4" fill="#CB8A05"/>
  <rect x="16" y="72" width="4" height="4" fill="#752702"/>
  <rect x="20" y="72" width="4" height="4" fill="#FD6000"/>
  <rect x="24" y="72" width="4" height="4" fill="#EE3C02"/>
  <rect x="28" y="72" width="4" height="4" fill="#801404"/>
  <rect x="52" y="72" width="4" height="4" fill="#AEA444"/>
  <rect x="72" y="72" width="4" height="4" fill="#898989"/>
  <rect x="76" y="72" width="4" height="4" fill="#FEFEFE"/>
  <rect x="80" y="72" width="4" height="4" fill="#FEFEFE"/>
  <rect x="84" y="72" width="4" height="4" fill="#FDFEFD"/>
  <rect x="132" y="72" width="4" height="4" fill="#E6E4B4"/>
  <rect x="136" y="72" width="4" height="4" fill="#F1E282"/>
  <rect x="172" y="72" width="4" height="4" fill="#280706"/>
  <rect x="176" y="72" width="4" height="4" fill="#680F03"/>
  <rect x="180" y="72" width="4" height="4" fill="#5B0803"/>
  <rect x="184" y="72" width="4" height="4" fill="#7B1203"/>
  <rect x="188" y="72" width="4" height="4" fill="#F17202"/>
  <rect x="16" y="76" width="4" height="4" fill="#721E07"/>
  <rect x="20" y="76" width="4" height="4" fill="#F23B02"/>
  <rect x="24" y="76" width="4" height="4" fill="#FA5802"/>
  <rect x="28" y="76" width="4" height="4" fill="#E01F01"/>
  <rect x="32" y="76" width="4" height="4" fill="#3C0902"/>
  <rect x="52" y="76" width="4" height="4" fill="#62623F"/>
  <rect x="76" y="76" width="4" height="4" fill="#6A6C6A"/>
  <rect x="80" y="76" width="4" height="4" fill="#FDFEFF"/>
  <rect x="84" y="76" width="4" height="4" fill="#FCFDFC"/>
  <rect x="132" y="76" width="4" height="4" fill="#5A563E"/>
  <rect x="136" y="76" width="4" height="4" fill="#64634E"/>
  <rect x="172" y="76" width="4" height="4" fill="#600B03"/>
  <rect x="176" y="76" width="4" height="4" fill="#F42302"/>
  <rect x="180" y="76" width="4" height="4" fill="#F62201"/>
  <rect x="184" y="76" width="4" height="4" fill="#EF2501"/>
  <rect x="188" y="76" width="4" height="4" fill="#D92B0A"/>
  <rect x="24" y="80" width="4" height="4" fill="#E06A04"/>
  <rect x="28" y="80" width="4" height="4" fill="#FC5B01"/>
  <rect x="32" y="80" width="4" height="4" fill="#FA2E01"/>
  <rect x="36" y="80" width="4" height="4" fill="#791405"/>
  <rect x="80" y="80" width="4" height="4" fill="#ECEDEC"/>
  <rect x="84" y="80" width="4" height="4" fill="#FEFFFE"/>
  <rect x="88" y="80" width="4" height="4" fill="#FCFDFB"/>
  <rect x="92" y="80" width="4" height="4" fill="#B7B8B6"/>
  <rect x="96" y="80" width="4" height="4" fill="#121313"/>
  <rect x="164" y="80" width="4" height="4" fill="#C02002"/>
  <rect x="168" y="80" width="4" height="4" fill="#D61B03"/>
  <rect x="172" y="80" width="4" height="4" fill="#F01E01"/>
  <rect x="176" y="80" width="4" height="4" fill="#F32503"/>
  <rect x="180" y="80" width="4" height="4" fill="#F11F01"/>
  <rect x="28" y="84" width="4" height="4" fill="#FD8701"/>
  <rect x="32" y="84" width="4" height="4" fill="#F73800"/>
  <rect x="36" y="84" width="4" height="4" fill="#A61704"/>
  <rect x="80" y="84" width="4" height="4" fill="#DBD8DB"/>
  <rect x="84" y="84" width="4" height="4" fill="#F7F7F6"/>
  <rect x="88" y="84" width="4" height="4" fill="#FEFFFE"/>
  <rect x="92" y="84" width="4" height="4" fill="#FDFDFA"/>
  <rect x="116" y="84" width="4" height="4" fill="#D43904"/>
  <rect x="120" y="84" width="4" height="4" fill="#F64805"/>
  <rect x="164" y="84" width="4" height="4" fill="#FD2D03"/>
  <rect x="168" y="84" width="4" height="4" fill="#F12002"/>
  <rect x="172" y="84" width="4" height="4" fill="#F42101"/>
  <rect x="176" y="84" width="4" height="4" fill="#ED2003"/>
  <rect x="180" y="84" width="4" height="4" fill="#CF1A01"/>
  <rect x="184" y="84" width="4" height="4" fill="#150807"/>
  <rect x="28" y="88" width="4" height="4" fill="#381C04"/>
  <rect x="32" y="88" width="4" height="4" fill="#400C00"/>
  <rect x="84" y="88" width="4" height="4" fill="#E2E4E1"/>
  <rect x="88" y="88" width="4" height="4" fill="#F8FAF9"/>
  <rect x="92" y="88" width="4" height="4" fill="#FEFFFC"/>
  <rect x="136" y="88" width="4" height="4" fill="#130403"/>
  <rect x="160" y="88" width="4" height="4" fill="#FD5A02"/>
  <rect x="164" y="88" width="4" height="4" fill="#F72401"/>
  <rect x="168" y="88" width="4" height="4" fill="#F82601"/>
  <rect x="172" y="88" width="4" height="4" fill="#F82402"/>
  <rect x="176" y="88" width="4" height="4" fill="#F92A07"/>
  <rect x="64" y="92" width="4" height="4" fill="#6F6005"/>
  <rect x="68" y="92" width="4" height="4" fill="#FBF91C"/>
  <rect x="88" y="92" width="4" height="4" fill="#ADAFAE"/>
  <rect x="92" y="92" width="4" height="4" fill="#F8F9F8"/>
  <rect x="100" y="92" width="4" height="4" fill="#A89707"/>
  <rect x="104" y="92" width="4" height="4" fill="#FCB101"/>
  <rect x="132" y="92" width="4" height="4" fill="#E73A00"/>
  <rect x="136" y="92" width="4" height="4" fill="#DA4602"/>
  <rect x="160" y="92" width="4" height="4" fill="#9C5603"/>
  <rect x="164" y="92" width="4" height="4" fill="#991802"/>
  <rect x="168" y="92" width="4" height="4" fill="#F94002"/>
  <rect x="172" y="92" width="4" height="4" fill="#B52002"/>
  <rect x="108" y="96" width="4" height="4" fill="#301902"/>
  <rect x="128" y="96" width="4" height="4" fill="#391A0F"/>
  <rect x="132" y="96" width="4" height="4" fill="#E63700"/>
  <rect x="136" y="96" width="4" height="4" fill="#CB2600"/>
  <rect x="152" y="96" width="4" height="4" fill="#716A05"/>
  <rect x="156" y="96" width="4" height="4" fill="#251E01"/>
  <rect x="220" y="96" width="4" height="4" fill="#5A1203"/>
  <rect x="108" y="100" width="4" height="4" fill="#F7B702"/>
  <rect x="112" y="100" width="4" height="4" fill="#895203"/>
  <rect x="128" y="100" width="4" height="4" fill="#D63901"/>
  <rect x="132" y="100" width="4" height="4" fill="#FD4400"/>
  <rect x="136" y="100" width="4" height="4" fill="#D14201"/>
  <rect x="152" y="100" width="4" height="4" fill="#E7C10E"/>
  <rect x="156" y="100" width="4" height="4" fill="#4D3C05"/>
  <rect x="188" y="100" width="4" height="4" fill="#707270"/>
  <rect x="192" y="100" width="4" height="4" fill="#DEDFDE"/>
  <rect x="196" y="100" width="4" height="4" fill="#F1F1EF"/>
  <rect x="216" y="100" width="4" height="4" fill="#E82C08"/>
  <rect x="220" y="100" width="4" height="4" fill="#ED2A0A"/>
  <rect x="104" y="104" width="4" height="4" fill="#FEBC01"/>
  <rect x="108" y="104" width="4" height="4" fill="#1B1304"/>
  <rect x="112" y="104" width="4" height="4" fill="#FCC302"/>
  <rect x="116" y="104" width="4" height="4" fill="#6A2703"/>
  <rect x="124" y="104" width="4" height="4" fill="#D34E02"/>
  <rect x="128" y="104" width="4" height="4" fill="#FD4E00"/>
  <rect x="132" y="104" width="4" height="4" fill="#FDDC12"/>
  <rect x="136" y="104" width="4" height="4" fill="#D4BF0B"/>
  <rect x="148" y="104" width="4" height="4" fill="#FCDA51"/>
  <rect x="188" y="104" width="4" height="4" fill="#FBFCFB"/>
  <rect x="192" y="104" width="4" height="4" fill="#FEFEFD"/>
  <rect x="196" y="104" width="4" height="4" fill="#FDFEFE"/>
  <rect x="216" y="104" width="4" height="4" fill="#721705"/>
  <rect x="28" y="108" width="4" height="4" fill="#8E8320"/>
  <rect x="32" y="108" width="4" height="4" fill="#312C0E"/>
  <rect x="48" y="108" width="4" height="4" fill="#FEFEFC"/>
  <rect x="52" y="108" width="4" height="4" fill="#FDFEFE"/>
  <rect x="56" y="108" width="4" height="4" fill="#FEFEFB"/>
  <rect x="60" y="108" width="4" height="4" fill="#969796"/>
  <rect x="92" y="108" width="4" height="4" fill="#FDDC38"/>
  <rect x="100" y="108" width="4" height="4" fill="#C6BDB7"/>
  <rect x="104" y="108" width="4" height="4" fill="#E3BC02"/>
  <rect x="108" y="108" width="4" height="4" fill="#2F1B02"/>
  <rect x="112" y="108" width="4" height="4" fill="#FEB300"/>
  <rect x="116" y="108" width="4" height="4" fill="#E44201"/>
  <rect x="120" y="108" width="4" height="4" fill="#C84602"/>
  <rect x="124" y="108" width="4" height="4" fill="#F16502"/>
  <rect x="128" y="108" width="4" height="4" fill="#FCED93"/>
  <rect x="132" y="108" width="4" height="4" fill="#FFF359"/>
  <rect x="136" y="108" width="4" height="4" fill="#D2BC01"/>
  <rect x="148" y="108" width="4" height="4" fill="#D9BE47"/>
  <rect x="184" y="108" width="4" height="4" fill="#F9FBF8"/>
  <rect x="188" y="108" width="4" height="4" fill="#FEFEFE"/>
  <rect x="192" y="108" width="4" height="4" fill="#FDFEFD"/>
  <rect x="196" y="108" width="4" height="4" fill="#FDFEFE"/>
  <rect x="48" y="112" width="4" height="4" fill="#FBFCFB"/>
  <rect x="52" y="112" width="4" height="4" fill="#F8F9F9"/>
  <rect x="56" y="112" width="4" height="4" fill="#FCFEFD"/>
  <rect x="60" y="112" width="4" height="4" fill="#FEFEFD"/>
  <rect x="64" y="112" width="4" height="4" fill="#5F6061"/>
  <rect x="92" y="112" width="4" height="4" fill="#E5C10F"/>
  <rect x="108" y="112" width="4" height="4" fill="#FCE301"/>
  <rect x="112" y="112" width="4" height="4" fill="#FEDA02"/>
  <rect x="116" y="112" width="4" height="4" fill="#FEDE01"/>
  <rect x="120" y="112" width="4" height="4" fill="#FFEE01"/>
  <rect x="124" y="112" width="4" height="4" fill="#FED501"/>
  <rect x="128" y="112" width="4" height="4" fill="#FDDE91"/>
  <rect x="132" y="112" width="4" height="4" fill="#FEF143"/>
  <rect x="136" y="112" width="4" height="4" fill="#DECB01"/>
  <rect x="144" y="112" width="4" height="4" fill="#FC7F00"/>
  <rect x="176" y="112" width="4" height="4" fill="#6B6B6B"/>
  <rect x="180" y="112" width="4" height="4" fill="#FFFFFF"/>
  <rect x="184" y="112" width="4" height="4" fill="#FFFFFE"/>
  <rect x="188" y="112" width="4" height="4" fill="#FEFFFE"/>
  <rect x="192" y="112" width="4" height="4" fill="#FEFDFE"/>
  <rect x="196" y="112" width="4" height="4" fill="#CDD0CF"/>
  <rect x="44" y="116" width="4" height="4" fill="#131212"/>
  <rect x="52" y="116" width="4" height="4" fill="#555757"/>
  <rect x="56" y="116" width="4" height="4" fill="#FCFDFC"/>
  <rect x="60" y="116" width="4" height="4" fill="#FDFEFE"/>
  <rect x="64" y="116" width="4" height="4" fill="#D2D2D2"/>
  <rect x="68" y="116" width="4" height="4" fill="#676768"/>
  <rect x="84" y="116" width="4" height="4" fill="#F7F9F1"/>
  <rect x="88" y="116" width="4" height="4" fill="#EEF0E8"/>
  <rect x="96" y="116" width="4" height="4" fill="#FA8602"/>
  <rect x="100" y="116" width="4" height="4" fill="#FFE003"/>
  <rect x="104" y="116" width="4" height="4" fill="#FB5101"/>
  <rect x="108" y="116" width="4" height="4" fill="#FFEB01"/>
  <rect x="112" y="116" width="4" height="4" fill="#FDFDE0"/>
  <rect x="116" y="116" width="4" height="4" fill="#FEFDF4"/>
  <rect x="120" y="116" width="4" height="4" fill="#FEF66F"/>
  <rect x="124" y="116" width="4" height="4" fill="#FDED05"/>
  <rect x="128" y="116" width="4" height="4" fill="#FEFFF1"/>
  <rect x="132" y="116" width="4" height="4" fill="#FDF270"/>
  <rect x="136" y="116" width="4" height="4" fill="#FDE101"/>
  <rect x="140" y="116" width="4" height="4" fill="#FFA601"/>
  <rect x="144" y="116" width="4" height="4" fill="#FEA800"/>
  <rect x="164" y="116" width="4" height="4" fill="#FDD820"/>
  <rect x="168" y="116" width="4" height="4" fill="#FCD511"/>
  <rect x="176" y="116" width="4" height="4" fill="#6B6B6B"/>
  <rect x="180" y="116" width="4" height="4" fill="#FBFDFB"/>
  <rect x="184" y="116" width="4" height="4" fill="#FCFCFB"/>
  <rect x="188" y="116" width="4" height="4" fill="#FDFEFD"/>
  <rect x="192" y="116" width="4" height="4" fill="#F9FAFB"/>
  <rect x="60" y="120" width="4" height="4" fill="#FDFDFC"/>
  <rect x="64" y="120" width="4" height="4" fill="#FDFEFD"/>
  <rect x="68" y="120" width="4" height="4" fill="#7B7B7B"/>
  <rect x="80" y="120" width="4" height="4" fill="#FBFBF7"/>
  <rect x="92" y="120" width="4" height="4" fill="#FFD502"/>
  <rect x="96" y="120" width="4" height="4" fill="#FEAF01"/>
  <rect x="100" y="120" width="4" height="4" fill="#FF7800"/>
  <rect x="104" y="120" width="4" height="4" fill="#FFB900"/>
  <rect x="108" y="120" width="4" height="4" fill="#FFF202"/>
  <rect x="112" y="120" width="4" height="4" fill="#FFFC2C"/>
  <rect x="116" y="120" width="4" height="4" fill="#FFFFF9"/>
  <rect x="120" y="120" width="4" height="4" fill="#FDF26D"/>
  <rect x="124" y="120" width="4" height="4" fill="#FFF108"/>
  <rect x="128" y="120" width="4" height="4" fill="#FFFED9"/>
  <rect x="132" y="120" width="4" height="4" fill="#FFF704"/>
  <rect x="136" y="120" width="4" height="4" fill="#FDE706"/>
  <rect x="140" y="120" width="4" height="4" fill="#FC3C01"/>
  <rect x="144" y="120" width="4" height="4" fill="#FA4D01"/>
  <rect x="148" y="120" width="4" height="4" fill="#FFE402"/>
  <rect x="152" y="120" width="4" height="4" fill="#FFDF02"/>
  <rect x="156" y="120" width="4" height="4" fill="#FFE202"/>
  <rect x="160" y="120" width="4" height="4" fill="#FDD703"/>
  <rect x="184" y="120" width="4" height="4" fill="#E7E8E5"/>
  <rect x="188" y="120" width="4" height="4" fill="#E3E4E2"/>
  <rect x="84" y="124" width="4" height="4" fill="#FB7D01"/>
  <rect x="88" y="124" width="4" height="4" fill="#F8B601"/>
  <rect x="92" y="124" width="4" height="4" fill="#FDFDB7"/>
  <rect x="96" y="124" width="4" height="4" fill="#FEFDF4"/>
  <rect x="100" y="124" width="4" height="4" fill="#FDFEF0"/>
  <rect x="104" y="124" width="4" height="4" fill="#FFFEF7"/>
  <rect x="108" y="124" width="4" height="4" fill="#FFFFE7"/>
  <rect x="112" y="124" width="4" height="4" fill="#FFFEF4"/>
  <rect x="116" y="124" width="4" height="4" fill="#FEFFFB"/>
  <rect x="120" y="124" width="4" height="4" fill="#FFFEF9"/>
  <rect x="124" y="124" width="4" height="4" fill="#FEFDFB"/>
  <rect x="128" y="124" width="4" height="4" fill="#FFFFFB"/>
  <rect x="132" y="124" width="4" height="4" fill="#FEF367"/>
  <rect x="136" y="124" width="4" height="4" fill="#FFF35D"/>
  <rect x="140" y="124" width="4" height="4" fill="#FDFDF0"/>
  <rect x="144" y="124" width="4" height="4" fill="#FCF9E6"/>
  <rect x="148" y="124" width="4" height="4" fill="#FFE802"/>
  <rect x="152" y="124" width="4" height="4" fill="#FED802"/>
  <rect x="156" y="124" width="4" height="4" fill="#E05E01"/>
  <rect x="176" y="124" width="4" height="4" fill="#F73603"/>
  <rect x="180" y="124" width="4" height="4" fill="#F23706"/>
  <rect x="84" y="128" width="4" height="4" fill="#803801"/>
  <rect x="88" y="128" width="4" height="4" fill="#503205"/>
  <rect x="92" y="128" width="4" height="4" fill="#FEFCB6"/>
  <rect x="96" y="128" width="4" height="4" fill="#FFF50E"/>
  <rect x="100" y="128" width="4" height="4" fill="#FFFFF7"/>
  <rect x="104" y="128" width="4" height="4" fill="#FFFFF9"/>
  <rect x="108" y="128" width="4" height="4" fill="#FFFFFB"/>
  <rect x="112" y="128" width="4" height="4" fill="#FFFFFC"/>
  <rect x="116" y="128" width="4" height="4" fill="#FFFFFC"/>
  <rect x="120" y="128" width="4" height="4" fill="#FFFFFD"/>
  <rect x="124" y="128" width="4" height="4" fill="#FFFFFC"/>
  <rect x="128" y="128" width="4" height="4" fill="#FFFFFC"/>
  <rect x="132" y="128" width="4" height="4" fill="#FFFA61"/>
  <rect x="136" y="128" width="4" height="4" fill="#FFFA4F"/>
  <rect x="140" y="128" width="4" height="4" fill="#FFFFFA"/>
  <rect x="144" y="128" width="4" height="4" fill="#FFFEF2"/>
  <rect x="148" y="128" width="4" height="4" fill="#FFEF03"/>
  <rect x="152" y="128" width="4" height="4" fill="#FEEC02"/>
  <rect x="212" y="128" width="4" height="4" fill="#C0BF88"/>
  <rect x="216" y="128" width="4" height="4" fill="#C6C380"/>
  <rect x="92" y="132" width="4" height="4" fill="#FFEB00"/>
  <rect x="96" y="132" width="4" height="4" fill="#FFF403"/>
  <rect x="100" y="132" width="4" height="4" fill="#FEF13B"/>
  <rect x="104" y="132" width="4" height="4" fill="#FFF94C"/>
  <rect x="108" y="132" width="4" height="4" fill="#FFFFF7"/>
  <rect x="112" y="132" width="4" height="4" fill="#FFFFFC"/>
  <rect x="116" y="132" width="4" height="4" fill="#FFFFFD"/>
  <rect x="120" y="132" width="4" height="4" fill="#FFFFFC"/>
  <rect x="124" y="132" width="4" height="4" fill="#FFFFFC"/>
  <rect x="128" y="132" width="4" height="4" fill="#FEFFFC"/>
  <rect x="132" y="132" width="4" height="4" fill="#FFFFFD"/>
  <rect x="136" y="132" width="4" height="4" fill="#FFFFFD"/>
  <rect x="140" y="132" width="4" height="4" fill="#FFFEF9"/>
  <rect x="144" y="132" width="4" height="4" fill="#FFF000"/>
  <rect x="148" y="132" width="4" height="4" fill="#FEED03"/>
  <rect x="152" y="132" width="4" height="4" fill="#7E5B04"/>
  <rect x="156" y="132" width="4" height="4" fill="#938002"/>
  <rect x="196" y="132" width="4" height="4" fill="#FD5402"/>
  <rect x="212" y="132" width="4" height="4" fill="#E9C759"/>
  <rect x="216" y="132" width="4" height="4" fill="#F5EF79"/>
  <rect x="40" y="136" width="4" height="4" fill="#F84404"/>
  <rect x="60" y="136" width="4" height="4" fill="#7C4F0B"/>
  <rect x="64" y="136" width="4" height="4" fill="#4B1B03"/>
  <rect x="68" y="136" width="4" height="4" fill="#2C0401"/>
  <rect x="72" y="136" width="4" height="4" fill="#2A0201"/>
  <rect x="76" y="136" width="4" height="4" fill="#2B1204"/>
  <rect x="80" y="136" width="4" height="4" fill="#2A1503"/>
  <rect x="84" y="136" width="4" height="4" fill="#2B2608"/>
  <rect x="88" y="136" width="4" height="4" fill="#2A2A0F"/>
  <rect x="92" y="136" width="4" height="4" fill="#FFE801"/>
  <rect x="96" y="136" width="4" height="4" fill="#FEFFEC"/>
  <rect x="100" y="136" width="4" height="4" fill="#FFF528"/>
  <rect x="104" y="136" width="4" height="4" fill="#FFF82B"/>
  <rect x="108" y="136" width="4" height="4" fill="#FFFFF6"/>
  <rect x="112" y="136" width="4" height="4" fill="#FEFFFB"/>
  <rect x="116" y="136" width="4" height="4" fill="#FFFFFD"/>
  <rect x="120" y="136" width="4" height="4" fill="#FFFFFC"/>
  <rect x="124" y="136" width="4" height="4" fill="#FFFFFD"/>
  <rect x="128" y="136" width="4" height="4" fill="#FFFFFC"/>
  <rect x="132" y="136" width="4" height="4" fill="#FFFFFD"/>
  <rect x="136" y="136" width="4" height="4" fill="#FFFFFC"/>
  <rect x="140" y="136" width="4" height="4" fill="#FFFFFB"/>
  <rect x="144" y="136" width="4" height="4" fill="#FFF428"/>
  <rect x="148" y="136" width="4" height="4" fill="#FAC92C"/>
  <rect x="152" y="136" width="4" height="4" fill="#5E2F2B"/>
  <rect x="156" y="136" width="4" height="4" fill="#FFF122"/>
  <rect x="160" y="136" width="4" height="4" fill="#2B1C04"/>
  <rect x="164" y="136" width="4" height="4" fill="#2C1603"/>
  <rect x="168" y="136" width="4" height="4" fill="#2B0602"/>
  <rect x="172" y="136" width="4" height="4" fill="#2A0301"/>
  <rect x="176" y="136" width="4" height="4" fill="#2C0504"/>
  <rect x="180" y="136" width="4" height="4" fill="#2B0501"/>
  <rect x="60" y="140" width="4" height="4" fill="#DE990D"/>
  <rect x="64" y="140" width="4" height="4" fill="#E76402"/>
  <rect x="68" y="140" width="4" height="4" fill="#DC2101"/>
  <rect x="72" y="140" width="4" height="4" fill="#D21201"/>
  <rect x="76" y="140" width="4" height="4" fill="#F66F00"/>
  <rect x="80" y="140" width="4" height="4" fill="#FE9600"/>
  <rect x="84" y="140" width="4" height="4" fill="#FCDE3C"/>
  <rect x="88" y="140" width="4" height="4" fill="#FEF74B"/>
  <rect x="92" y="140" width="4" height="4" fill="#FFC602"/>
  <rect x="96" y="140" width="4" height="4" fill="#FAFEF5"/>
  <rect x="100" y="140" width="4" height="4" fill="#FFFFF8"/>
  <rect x="104" y="140" width="4" height="4" fill="#FFFFF7"/>
  <rect x="108" y="140" width="4" height="4" fill="#FFFFF7"/>
  <rect x="112" y="140" width="4" height="4" fill="#FFFFFA"/>
  <rect x="116" y="140" width="4" height="4" fill="#FFFEFB"/>
  <rect x="120" y="140" width="4" height="4" fill="#FEFEFC"/>
  <rect x="124" y="140" width="4" height="4" fill="#FEFFFD"/>
  <rect x="128" y="140" width="4" height="4" fill="#FFFFFD"/>
  <rect x="132" y="140" width="4" height="4" fill="#FFFFFD"/>
  <rect x="136" y="140" width="4" height="4" fill="#FFFFFD"/>
  <rect x="140" y="140" width="4" height="4" fill="#FFFFF9"/>
  <rect x="144" y="140" width="4" height="4" fill="#FFFFFE"/>
  <rect x="148" y="140" width="4" height="4" fill="#FFFFFB"/>
  <rect x="152" y="140" width="4" height="4" fill="#FDFEFB"/>
  <rect x="156" y="140" width="4" height="4" fill="#FEFEF2"/>
  <rect x="160" y="140" width="4" height="4" fill="#FD9412"/>
  <rect x="164" y="140" width="4" height="4" fill="#FD6A02"/>
  <rect x="168" y="140" width="4" height="4" fill="#F72D01"/>
  <rect x="172" y="140" width="4" height="4" fill="#E61B01"/>
  <rect x="176" y="140" width="4" height="4" fill="#F22803"/>
  <rect x="180" y="140" width="4" height="4" fill="#FD3804"/>
  <rect x="68" y="144" width="4" height="4" fill="#861503"/>
  <rect x="72" y="144" width="4" height="4" fill="#E52501"/>
  <rect x="76" y="144" width="4" height="4" fill="#E43603"/>
  <rect x="80" y="144" width="4" height="4" fill="#E43803"/>
  <rect x="84" y="144" width="4" height="4" fill="#DD2B01"/>
  <rect x="88" y="144" width="4" height="4" fill="#C72502"/>
  <rect x="92" y="144" width="4" height="4" fill="#FFB601"/>
  <rect x="96" y="144" width="4" height="4" fill="#FEBA02"/>
  <rect x="100" y="144" width="4" height="4" fill="#FCFFE4"/>
  <rect x="104" y="144" width="4" height="4" fill="#FFEE16"/>
  <rect x="108" y="144" width="4" height="4" fill="#FFF52E"/>
  <rect x="112" y="144" width="4" height="4" fill="#FEFFFC"/>
  <rect x="116" y="144" width="4" height="4" fill="#FFFFFC"/>
  <rect x="120" y="144" width="4" height="4" fill="#FEFFFD"/>
  <rect x="124" y="144" width="4" height="4" fill="#FFFFFC"/>
  <rect x="128" y="144" width="4" height="4" fill="#FFFFFD"/>
  <rect x="132" y="144" width="4" height="4" fill="#FEF986"/>
  <rect x="136" y="144" width="4" height="4" fill="#FFF926"/>
  <rect x="140" y="144" width="4" height="4" fill="#FFF704"/>
  <rect x="144" y="144" width="4" height="4" fill="#FFFEFC"/>
  <rect x="148" y="144" width="4" height="4" fill="#FFE806"/>
  <rect x="152" y="144" width="4" height="4" fill="#F22002"/>
  <rect x="156" y="144" width="4" height="4" fill="#F42501"/>
  <rect x="160" y="144" width="4" height="4" fill="#E94002"/>
  <rect x="164" y="144" width="4" height="4" fill="#EA5A01"/>
  <rect x="168" y="144" width="4" height="4" fill="#E42A03"/>
  <rect x="172" y="144" width="4" height="4" fill="#DA2003"/>
  <rect x="176" y="144" width="4" height="4" fill="#DA2D09"/>
  <rect x="92" y="148" width="4" height="4" fill="#FFD800"/>
  <rect x="96" y="148" width="4" height="4" fill="#FFD801"/>
  <rect x="100" y="148" width="4" height="4" fill="#EC3000"/>
  <rect x="104" y="148" width="4" height="4" fill="#FFD500"/>
  <rect x="108" y="148" width="4" height="4" fill="#FFFEE7"/>
  <rect x="112" y="148" width="4" height="4" fill="#FFFFFA"/>
  <rect x="116" y="148" width="4" height="4" fill="#FFFFFD"/>
  <rect x="120" y="148" width="4" height="4" fill="#FFFFFD"/>
  <rect x="124" y="148" width="4" height="4" fill="#FFFFFC"/>
  <rect x="128" y="148" width="4" height="4" fill="#FFFFFC"/>
  <rect x="132" y="148" width="4" height="4" fill="#FFFFFA"/>
  <rect x="136" y="148" width="4" height="4" fill="#FDF9D1"/>
  <rect x="140" y="148" width="4" height="4" fill="#FEF602"/>
  <rect x="144" y="148" width="4" height="4" fill="#FFFFF7"/>
  <rect x="148" y="148" width="4" height="4" fill="#FFEB04"/>
  <rect x="152" y="148" width="4" height="4" fill="#F52503"/>
  <rect x="156" y="148" width="4" height="4" fill="#EB1C01"/>
  <rect x="84" y="152" width="4" height="4" fill="#F59F00"/>
  <rect x="88" y="152" width="4" height="4" fill="#F67D01"/>
  <rect x="92" y="152" width="4" height="4" fill="#ED6A02"/>
  <rect x="96" y="152" width="4" height="4" fill="#F49C02"/>
  <rect x="100" y="152" width="4" height="4" fill="#E41C02"/>
  <rect x="104" y="152" width="4" height="4" fill="#FECC00"/>
  <rect x="108" y="152" width="4" height="4" fill="#FFFEF0"/>
  <rect x="112" y="152" width="4" height="4" fill="#FFFFFD"/>
  <rect x="116" y="152" width="4" height="4" fill="#FFFFFD"/>
  <rect x="120" y="152" width="4" height="4" fill="#FFFFFD"/>
  <rect x="124" y="152" width="4" height="4" fill="#FFFFFD"/>
  <rect x="128" y="152" width="4" height="4" fill="#FFFFFB"/>
  <rect x="132" y="152" width="4" height="4" fill="#FFFFFC"/>
  <rect x="136" y="152" width="4" height="4" fill="#FFFDD0"/>
  <rect x="140" y="152" width="4" height="4" fill="#FFF502"/>
  <rect x="144" y="152" width="4" height="4" fill="#FCB66F"/>
  <rect x="148" y="152" width="4" height="4" fill="#FB8704"/>
  <rect x="152" y="152" width="4" height="4" fill="#F99C03"/>
  <rect x="156" y="152" width="4" height="4" fill="#201502"/>
  <rect x="180" y="152" width="4" height="4" fill="#D12E04"/>
  <rect x="208" y="152" width="4" height="4" fill="#CA3E05"/>
  <rect x="212" y="152" width="4" height="4" fill="#D85C05"/>
  <rect x="28" y="156" width="4" height="4" fill="#543605"/>
  <rect x="80" y="156" width="4" height="4" fill="#FAB304"/>
  <rect x="84" y="156" width="4" height="4" fill="#FDAB00"/>
  <rect x="88" y="156" width="4" height="4" fill="#F9A502"/>
  <rect x="100" y="156" width="4" height="4" fill="#FEC601"/>
  <rect x="104" y="156" width="4" height="4" fill="#FFD401"/>
  <rect x="108" y="156" width="4" height="4" fill="#FFF505"/>
  <rect x="112" y="156" width="4" height="4" fill="#FCE4A1"/>
  <rect x="116" y="156" width="4" height="4" fill="#FFA100"/>
  <rect x="120" y="156" width="4" height="4" fill="#FFF6DF"/>
  <rect x="124" y="156" width="4" height="4" fill="#FEF78E"/>
  <rect x="128" y="156" width="4" height="4" fill="#FFEE01"/>
  <rect x="132" y="156" width="4" height="4" fill="#FFF6D9"/>
  <rect x="136" y="156" width="4" height="4" fill="#FFFFE8"/>
  <rect x="140" y="156" width="4" height="4" fill="#FFF001"/>
  <rect x="144" y="156" width="4" height="4" fill="#F62B01"/>
  <rect x="148" y="156" width="4" height="4" fill="#F82702"/>
  <rect x="152" y="156" width="4" height="4" fill="#FFB400"/>
  <rect x="156" y="156" width="4" height="4" fill="#FEB601"/>
  <rect x="200" y="156" width="4" height="4" fill="#F53B03"/>
  <rect x="204" y="156" width="4" height="4" fill="#F83302"/>
  <rect x="208" y="156" width="4" height="4" fill="#F72503"/>
  <rect x="212" y="156" width="4" height="4" fill="#FA8A04"/>
  <rect x="216" y="156" width="4" height="4" fill="#DD3E04"/>
  <rect x="220" y="156" width="4" height="4" fill="#4C170F"/>
  <rect x="28" y="160" width="4" height="4" fill="#3B3206"/>
  <rect x="64" y="160" width="4" height="4" fill="#BEBDBC"/>
  <rect x="68" y="160" width="4" height="4" fill="#FDFEFB"/>
  <rect x="72" y="160" width="4" height="4" fill="#FEFEFE"/>
  <rect x="76" y="160" width="4" height="4" fill="#FCFCFA"/>
  <rect x="100" y="160" width="4" height="4" fill="#BAA904"/>
  <rect x="104" y="160" width="4" height="4" fill="#FFC401"/>
  <rect x="108" y="160" width="4" height="4" fill="#E95E03"/>
  <rect x="112" y="160" width="4" height="4" fill="#F44F02"/>
  <rect x="116" y="160" width="4" height="4" fill="#F1A002"/>
  <rect x="120" y="160" width="4" height="4" fill="#FFFCDA"/>
  <rect x="124" y="160" width="4" height="4" fill="#FBEE97"/>
  <rect x="128" y="160" width="4" height="4" fill="#FECC01"/>
  <rect x="132" y="160" width="4" height="4" fill="#F8622C"/>
  <rect x="136" y="160" width="4" height="4" fill="#FAD133"/>
  <rect x="140" y="160" width="4" height="4" fill="#FEE703"/>
  <rect x="148" y="160" width="4" height="4" fill="#8D0803"/>
  <rect x="152" y="160" width="4" height="4" fill="#D31F03"/>
  <rect x="156" y="160" width="4" height="4" fill="#E82603"/>
  <rect x="168" y="160" width="4" height="4" fill="#525253"/>
  <rect x="200" y="160" width="4" height="4" fill="#4D0E03"/>
  <rect x="204" y="160" width="4" height="4" fill="#F53D03"/>
  <rect x="208" y="160" width="4" height="4" fill="#F42303"/>
  <rect x="212" y="160" width="4" height="4" fill="#FCA001"/>
  <rect x="216" y="160" width="4" height="4" fill="#F75902"/>
  <rect x="220" y="160" width="4" height="4" fill="#E23404"/>
  <rect x="68" y="164" width="4" height="4" fill="#858586"/>
  <rect x="72" y="164" width="4" height="4" fill="#FEFEFE"/>
  <rect x="76" y="164" width="4" height="4" fill="#FEFFFF"/>
  <rect x="80" y="164" width="4" height="4" fill="#FDFEFE"/>
  <rect x="100" y="164" width="4" height="4" fill="#F88D01"/>
  <rect x="104" y="164" width="4" height="4" fill="#FFC201"/>
  <rect x="108" y="164" width="4" height="4" fill="#1E1803"/>
  <rect x="116" y="164" width="4" height="4" fill="#D99003"/>
  <rect x="120" y="164" width="4" height="4" fill="#FFE702"/>
  <rect x="124" y="164" width="4" height="4" fill="#A3A005"/>
  <rect x="128" y="164" width="4" height="4" fill="#D74002"/>
  <rect x="132" y="164" width="4" height="4" fill="#FB3E01"/>
  <rect x="136" y="164" width="4" height="4" fill="#F98D02"/>
  <rect x="140" y="164" width="4" height="4" fill="#FEE504"/>
  <rect x="148" y="164" width="4" height="4" fill="#F9F8F8"/>
  <rect x="168" y="164" width="4" height="4" fill="#FDFDFD"/>
  <rect x="212" y="164" width="4" height="4" fill="#FD9A08"/>
  <rect x="216" y="164" width="4" height="4" fill="#F54502"/>
  <rect x="220" y="164" width="4" height="4" fill="#230D07"/>
  <rect x="64" y="168" width="4" height="4" fill="#E3E2E1"/>
  <rect x="68" y="168" width="4" height="4" fill="#FDFDFC"/>
  <rect x="72" y="168" width="4" height="4" fill="#FDFEFD"/>
  <rect x="76" y="168" width="4" height="4" fill="#F5F6F5"/>
  <rect x="116" y="168" width="4" height="4" fill="#822101"/>
  <rect x="120" y="168" width="4" height="4" fill="#FB3102"/>
  <rect x="124" y="168" width="4" height="4" fill="#9D1F02"/>
  <rect x="160" y="168" width="4" height="4" fill="#FDFCFC"/>
  <rect x="164" y="168" width="4" height="4" fill="#FDFEFC"/>
  <rect x="168" y="168" width="4" height="4" fill="#FEFEFD"/>
  <rect x="172" y="168" width="4" height="4" fill="#FFFFFF"/>
  <rect x="176" y="168" width="4" height="4" fill="#FFFEFE"/>
  <rect x="180" y="168" width="4" height="4" fill="#5B5C5B"/>
  <rect x="52" y="172" width="4" height="4" fill="#F59A02"/>
  <rect x="56" y="172" width="4" height="4" fill="#FEA000"/>
  <rect x="96" y="172" width="4" height="4" fill="#FE9A01"/>
  <rect x="100" y="172" width="4" height="4" fill="#FD9C00"/>
  <rect x="116" y="172" width="4" height="4" fill="#7E2501"/>
  <rect x="120" y="172" width="4" height="4" fill="#FA3000"/>
  <rect x="124" y="172" width="4" height="4" fill="#911C03"/>
  <rect x="140" y="172" width="4" height="4" fill="#906C01"/>
  <rect x="144" y="172" width="4" height="4" fill="#F3C701"/>
  <rect x="168" y="172" width="4" height="4" fill="#FDFDFD"/>
  <rect x="172" y="172" width="4" height="4" fill="#FEFEFE"/>
  <rect x="176" y="172" width="4" height="4" fill="#FFFFFE"/>
  <rect x="180" y="172" width="4" height="4" fill="#656564"/>
  <rect x="44" y="176" width="4" height="4" fill="#12100E"/>
  <rect x="48" y="176" width="4" height="4" fill="#CF2603"/>
  <rect x="52" y="176" width="4" height="4" fill="#FBA003"/>
  <rect x="56" y="176" width="4" height="4" fill="#FD8702"/>
  <rect x="116" y="176" width="4" height="4" fill="#751C04"/>
  <rect x="120" y="176" width="4" height="4" fill="#E72603"/>
  <rect x="124" y="176" width="4" height="4" fill="#921A05"/>
  <rect x="128" y="176" width="4" height="4" fill="#141211"/>
  <rect x="140" y="176" width="4" height="4" fill="#9C6D06"/>
  <rect x="144" y="176" width="4" height="4" fill="#F1D508"/>
  <rect x="176" y="176" width="4" height="4" fill="#FAFBFB"/>
  <rect x="180" y="176" width="4" height="4" fill="#FEFFFE"/>
  <rect x="184" y="176" width="4" height="4" fill="#FDFEFE"/>
  <rect x="188" y="176" width="4" height="4" fill="#FDFEFC"/>
  <rect x="48" y="180" width="4" height="4" fill="#FB2E02"/>
  <rect x="52" y="180" width="4" height="4" fill="#F32604"/>
  <rect x="176" y="180" width="4" height="4" fill="#F7F9F8"/>
  <rect x="180" y="180" width="4" height="4" fill="#FBFCFC"/>
  <rect x="184" y="180" width="4" height="4" fill="#FEFFFF"/>
  <rect x="188" y="180" width="4" height="4" fill="#FEFEFE"/>
  <rect x="184" y="184" width="4" height="4" fill="#BDBFBE"/>
  <rect x="84" y="188" width="4" height="4" fill="#FD3D02"/>
  <rect x="88" y="188" width="4" height="4" fill="#F82A00"/>
  <rect x="92" y="188" width="4" height="4" fill="#E71D01"/>
  <rect x="100" y="188" width="4" height="4" fill="#FF8D02"/>
  <rect x="120" y="188" width="4" height="4" fill="#FA3705"/>
  <rect x="124" y="188" width="4" height="4" fill="#921805"/>
  <rect x="28" y="192" width="4" height="4" fill="#FE881F"/>
  <rect x="80" y="192" width="4" height="4" fill="#FC6401"/>
  <rect x="84" y="192" width="4" height="4" fill="#F72601"/>
  <rect x="88" y="192" width="4" height="4" fill="#F31C01"/>
  <rect x="92" y="192" width="4" height="4" fill="#F72302"/>
  <rect x="96" y="192" width="4" height="4" fill="#EE2104"/>
  <rect x="140" y="192" width="4" height="4" fill="#FEFFFF"/>
  <rect x="144" y="192" width="4" height="4" fill="#FFFFFF"/>
  <rect x="148" y="192" width="4" height="4" fill="#F5F6F5"/>
  <rect x="160" y="192" width="4" height="4" fill="#FDA80D"/>
  <rect x="164" y="192" width="4" height="4" fill="#B72205"/>
  <rect x="208" y="192" width="4" height="4" fill="#F1F2D5"/>
  <rect x="212" y="192" width="4" height="4" fill="#D8DDCB"/>
  <rect x="24" y="196" width="4" height="4" fill="#131213"/>
  <rect x="80" y="196" width="4" height="4" fill="#F48500"/>
  <rect x="84" y="196" width="4" height="4" fill="#FD4902"/>
  <rect x="88" y="196" width="4" height="4" fill="#FA2303"/>
  <rect x="92" y="196" width="4" height="4" fill="#F01E04"/>
  <rect x="96" y="196" width="4" height="4" fill="#A61705"/>
  <rect x="140" y="196" width="4" height="4" fill="#F9FBFB"/>
  <rect x="144" y="196" width="4" height="4" fill="#FDFEFD"/>
  <rect x="148" y="196" width="4" height="4" fill="#F5F8F6"/>
  <rect x="84" y="200" width="4" height="4" fill="#E12803"/>
  <rect x="88" y="200" width="4" height="4" fill="#D32203"/>
  <rect x="104" y="200" width="4" height="4" fill="#F16811"/>
  <rect x="108" y="200" width="4" height="4" fill="#4D1805"/>
  <rect x="140" y="200" width="4" height="4" fill="#A5A6A5"/>
  <rect x="144" y="200" width="4" height="4" fill="#EFF1F1"/>
  <rect x="148" y="200" width="4" height="4" fill="#E2E5E4"/>
  <rect x="104" y="204" width="4" height="4" fill="#58260A"/>
  <rect x="108" y="204" width="4" height="4" fill="#310D04"/>
  <rect x="184" y="204" width="4" height="4" fill="#6B1101"/>
  <rect x="188" y="204" width="4" height="4" fill="#741605"/>
  <rect x="60" y="208" width="4" height="4" fill="#F54606"/>
  <rect x="168" y="208" width="4" height="4" fill="#8B3808"/>
  <rect x="172" y="208" width="4" height="4" fill="#E74B0E"/>
  <rect x="184" y="208" width="4" height="4" fill="#FD5703"/>
  <rect x="188" y="208" width="4" height="4" fill="#FB3F02"/>
  <rect x="192" y="208" width="4" height="4" fill="#E71C03"/>
  <rect x="168" y="212" width="4" height="4" fill="#673506"/>
  <rect x="172" y="212" width="4" height="4" fill="#CF4E12"/>
  <rect x="184" y="212" width="4" height="4" fill="#8B3B0D"/>
  <rect x="188" y="212" width="4" height="4" fill="#C22C02"/>
  <rect x="192" y="212" width="4" height="4" fill="#C71B06"/>
  <rect x="124" y="216" width="4" height="4" fill="#FBFAED"/>
  <rect x="148" y="216" width="4" height="4" fill="#484845"/>
  <rect x="148" y="220" width="4" height="4" fill="#FBFBF5"/>
</svg>
