<?xml version="1.0" encoding="UTF-8"?>
<svg xmlns="http://www.w3.org/2000/svg" width="256" height="256" viewBox="0 0 256 256">
  <rect x="176" y="68" width="4" height="4" fill="#030303"/>
  <rect x="180" y="68" width="4" height="4" fill="#030303"/>
  <rect x="184" y="68" width="4" height="4" fill="#030303"/>
  <rect x="172" y="72" width="4" height="4" fill="#050202"/>
  <rect x="176" y="72" width="4" height="4" fill="#F82F06"/>
  <rect x="180" y="72" width="4" height="4" fill="#F32906"/>
  <rect x="184" y="72" width="4" height="4" fill="#000001"/>
  <rect x="168" y="76" width="4" height="4" fill="#030303"/>
  <rect x="172" y="76" width="4" height="4" fill="#FA2A01"/>
  <rect x="176" y="76" width="4" height="4" fill="#E81C02"/>
  <rect x="180" y="76" width="4" height="4" fill="#060404"/>
  <rect x="160" y="80" width="4" height="4" fill="#C3B8B5"/>
  <rect x="164" y="80" width="4" height="4" fill="#000002"/>
  <rect x="168" y="80" width="4" height="4" fill="#F92B03"/>
  <rect x="172" y="80" width="4" height="4" fill="#EE2100"/>
  <rect x="176" y="80" width="4" height="4" fill="#020202"/>
  <rect x="180" y="80" width="4" height="4" fill="#100E10"/>
  <rect x="160" y="84" width="4" height="4" fill="#000001"/>
  <rect x="164" y="84" width="4" height="4" fill="#FB2F04"/>
  <rect x="168" y="84" width="4" height="4" fill="#F02002"/>
  <rect x="172" y="84" width="4" height="4" fill="#DA1500"/>
  <rect x="176" y="84" width="4" height="4" fill="#020203"/>
  <rect x="152" y="88" width="4" height="4" fill="#0F0F0F"/>
  <rect x="156" y="88" width="4" height="4" fill="#030303"/>
  <rect x="160" y="88" width="4" height="4" fill="#F82D01"/>
  <rect x="164" y="88" width="4" height="4" fill="#F32403"/>
  <rect x="168" y="88" width="4" height="4" fill="#DD1602"/>
  <rect x="172" y="88" width="4" height="4" fill="#D41201"/>
  <rect x="176" y="88" width="4" height="4" fill="#020204"/>
  <rect x="148" y="92" width="4" height="4" fill="#0E0D0E"/>
  <rect x="152" y="92" width="4" height="4" fill="#FD3A03"/>
  <rect x="156" y="92" width="4" height="4" fill="#FB3003"/>
  <rect x="160" y="92" width="4" height="4" fill="#EE1E01"/>
  <rect x="164" y="92" width="4" height="4" fill="#E21702"/>
  <rect x="168" y="92" width="4" height="4" fill="#D51302"/>
  <rect x="172" y="92" width="4" height="4" fill="#060606"/>
  <rect x="144" y="96" width="4" height="4" fill="#101212"/>
  <rect x="148" y="96" width="4" height="4" fill="#DD2703"/>
  <rect x="152" y="96" width="4" height="4" fill="#F82900"/>
  <rect x="156" y="96" width="4" height="4" fill="#EB1C02"/>
  <rect x="160" y="96" width="4" height="4" fill="#E31702"/>
  <rect x="164" y="96" width="4" height="4" fill="#E01400"/>
  <rect x="168" y="96" width="4" height="4" fill="#E41704"/>
  <rect x="172" y="96" width="4" height="4" fill="#040507"/>
  <rect x="140" y="100" width="4" height="4" fill="#000000"/>
  <rect x="144" y="100" width="4" height="4" fill="#FF3904"/>
  <rect x="148" y="100" width="4" height="4" fill="#FA2500"/>
  <rect x="152" y="100" width="4" height="4" fill="#EA1801"/>
  <rect x="156" y="100" width="4" height="4" fill="#E81802"/>
  <rect x="160" y="100" width="4" height="4" fill="#E21600"/>
  <rect x="164" y="100" width="4" height="4" fill="#D91500"/>
  <rect x="168" y="100" width="4" height="4" fill="#050405"/>
  <rect x="68" y="104" width="4" height="4" fill="#000000"/>
  <rect x="72" y="104" width="4" height="4" fill="#010101"/>
  <rect x="76" y="104" width="4" height="4" fill="#030303"/>
  <rect x="80" y="104" width="4" height="4" fill="#040302"/>
  <rect x="84" y="104" width="4" height="4" fill="#030202"/>
  <rect x="88" y="104" width="4" height="4" fill="#020102"/>
  <rect x="92" y="104" width="4" height="4" fill="#020101"/>
  <rect x="96" y="104" width="4" height="4" fill="#050405"/>
  <rect x="100" y="104" width="4" height="4" fill="#040303"/>
  <rect x="104" y="104" width="4" height="4" fill="#040303"/>
  <rect x="108" y="104" width="4" height="4" fill="#060504"/>
  <rect x="112" y="104" width="4" height="4" fill="#040304"/>
  <rect x="116" y="104" width="4" height="4" fill="#030303"/>
  <rect x="120" y="104" width="4" height="4" fill="#020101"/>
  <rect x="124" y="104" width="4" height="4" fill="#040202"/>
  <rect x="128" y="104" width="4" height="4" fill="#000000"/>
  <rect x="132" y="104" width="4" height="4" fill="#020203"/>
  <rect x="136" y="104" width="4" height="4" fill="#040303"/>
  <rect x="140" y="104" width="4" height="4" fill="#030202"/>
  <rect x="144" y="104" width="4" height="4" fill="#EF2208"/>
  <rect x="148" y="104" width="4" height="4" fill="#E61A02"/>
  <rect x="152" y="104" width="4" height="4" fill="#E51902"/>
  <rect x="156" y="104" width="4" height="4" fill="#E31A01"/>
  <rect x="160" y="104" width="4" height="4" fill="#DE1501"/>
  <rect x="164" y="104" width="4" height="4" fill="#E41A05"/>
  <rect x="168" y="104" width="4" height="4" fill="#050304"/>
  <rect x="172" y="104" width="4" height="4" fill="#010101"/>
  <rect x="176" y="104" width="4" height="4" fill="#020202"/>
  <rect x="180" y="104" width="4" height="4" fill="#060606"/>
  <rect x="184" y="104" width="4" height="4" fill="#DDDAD9"/>
  <rect x="188" y="104" width="4" height="4" fill="#020202"/>
  <rect x="192" y="104" width="4" height="4" fill="#B75E01"/>
  <rect x="196" y="104" width="4" height="4" fill="#020202"/>
  <rect x="56" y="108" width="4" height="4" fill="#000000"/>
  <rect x="60" y="108" width="4" height="4" fill="#000000"/>
  <rect x="64" y="108" width="4" height="4" fill="#050404"/>
  <rect x="68" y="108" width="4" height="4" fill="#FAFAFA"/>
  <rect x="72" y="108" width="4" height="4" fill="#FAFAFA"/>
  <rect x="76" y="108" width="4" height="4" fill="#FAFAFA"/>
  <rect x="80" y="108" width="4" height="4" fill="#FAFAFA"/>
  <rect x="84" y="108" width="4" height="4" fill="#FAFAFA"/>
  <rect x="88" y="108" width="4" height="4" fill="#FAFAFA"/>
  <rect x="92" y="108" width="4" height="4" fill="#FAFAFA"/>
  <rect x="96" y="108" width="4" height="4" fill="#FAFAFA"/>
  <rect x="100" y="108" width="4" height="4" fill="#FAFAFA"/>
  <rect x="104" y="108" width="4" height="4" fill="#FAFAFA"/>
  <rect x="108" y="108" width="4" height="4" fill="#FAFAFA"/>
  <rect x="112" y="108" width="4" height="4" fill="#FAFAFA"/>
  <rect x="116" y="108" width="4" height="4" fill="#FAFAFA"/>
  <rect x="120" y="108" width="4" height="4" fill="#FAFAFA"/>
  <rect x="124" y="108" width="4" height="4" fill="#FAFAFA"/>
  <rect x="128" y="108" width="4" height="4" fill="#FAFAFA"/>
  <rect x="132" y="108" width="4" height="4" fill="#FAFAFA"/>
  <rect x="136" y="108" width="4" height="4" fill="#F9F9F9"/>
  <rect x="140" y="108" width="4" height="4" fill="#020101"/>
  <rect x="144" y="108" width="4" height="4" fill="#050605"/>
  <rect x="148" y="108" width="4" height="4" fill="#010101"/>
  <rect x="152" y="108" width="4" height="4" fill="#010101"/>
  <rect x="156" y="108" width="4" height="4" fill="#010101"/>
  <rect x="160" y="108" width="4" height="4" fill="#010101"/>
  <rect x="164" y="108" width="4" height="4" fill="#040404"/>
  <rect x="168" y="108" width="4" height="4" fill="#FAFAFA"/>
  <rect x="172" y="108" width="4" height="4" fill="#010101"/>
  <rect x="176" y="108" width="4" height="4" fill="#8A8987"/>
  <rect x="180" y="108" width="4" height="4" fill="#020202"/>
  <rect x="184" y="108" width="4" height="4" fill="#010101"/>
  <rect x="188" y="108" width="4" height="4" fill="#FB3601"/>
  <rect x="192" y="108" width="4" height="4" fill="#F52200"/>
  <rect x="196" y="108" width="4" height="4" fill="#FC6F01"/>
  <rect x="200" y="108" width="4" height="4" fill="#040202"/>
  <rect x="48" y="112" width="4" height="4" fill="#000000"/>
  <rect x="52" y="112" width="4" height="4" fill="#000000"/>
  <rect x="56" y="112" width="4" height="4" fill="#FF0000"/>
  <rect x="60" y="112" width="4" height="4" fill="#FF0000"/>
  <rect x="64" y="112" width="4" height="4" fill="#F52203"/>
  <rect x="68" y="112" width="4" height="4" fill="#1B1B1A"/>
  <rect x="72" y="112" width="4" height="4" fill="#FAFAFA"/>
  <rect x="76" y="112" width="4" height="4" fill="#FAFAFA"/>
  <rect x="80" y="112" width="4" height="4" fill="#FAFAFA"/>
  <rect x="84" y="112" width="4" height="4" fill="#FAFAFA"/>
  <rect x="88" y="112" width="4" height="4" fill="#FAFAFA"/>
  <rect x="92" y="112" width="4" height="4" fill="#FAFAFA"/>
  <rect x="96" y="112" width="4" height="4" fill="#FAFAFA"/>
  <rect x="100" y="112" width="4" height="4" fill="#FAFAFA"/>
  <rect x="104" y="112" width="4" height="4" fill="#FAFAFA"/>
  <rect x="108" y="112" width="4" height="4" fill="#FAFAFA"/>
  <rect x="112" y="112" width="4" height="4" fill="#FAFAFA"/>
  <rect x="116" y="112" width="4" height="4" fill="#FAFAFA"/>
  <rect x="120" y="112" width="4" height="4" fill="#FAFAFA"/>
  <rect x="124" y="112" width="4" height="4" fill="#FAFAFA"/>
  <rect x="128" y="112" width="4" height="4" fill="#FAFAFA"/>
  <rect x="132" y="112" width="4" height="4" fill="#FAFAFA"/>
  <rect x="136" y="112" width="4" height="4" fill="#FAFAFA"/>
  <rect x="140" y="112" width="4" height="4" fill="#FAFAFA"/>
  <rect x="144" y="112" width="4" height="4" fill="#FAFAFA"/>
  <rect x="148" y="112" width="4" height="4" fill="#FAFAFA"/>
  <rect x="152" y="112" width="4" height="4" fill="#FAFAFA"/>
  <rect x="156" y="112" width="4" height="4" fill="#FAFAFA"/>
  <rect x="160" y="112" width="4" height="4" fill="#FAFAFA"/>
  <rect x="164" y="112" width="4" height="4" fill="#FAFAFA"/>
  <rect x="168" y="112" width="4" height="4" fill="#FAFAFA"/>
  <rect x="172" y="112" width="4" height="4" fill="#000100"/>
  <rect x="176" y="112" width="4" height="4" fill="#8D8E8C"/>
  <rect x="180" y="112" width="4" height="4" fill="#000001"/>
  <rect x="184" y="112" width="4" height="4" fill="#AEADAC"/>
  <rect x="188" y="112" width="4" height="4" fill="#010101"/>
  <rect x="192" y="112" width="4" height="4" fill="#F84101"/>
  <rect x="196" y="112" width="4" height="4" fill="#FC3601"/>
  <rect x="200" y="112" width="4" height="4" fill="#F74503"/>
  <rect x="204" y="112" width="4" height="4" fill="#010001"/>
  <rect x="208" y="112" width="4" height="4" fill="#E5DFDA"/>
  <rect x="44" y="116" width="4" height="4" fill="#000000"/>
  <rect x="48" y="116" width="4" height="4" fill="#FF0000"/>
  <rect x="52" y="116" width="4" height="4" fill="#FF0000"/>
  <rect x="56" y="116" width="4" height="4" fill="#F92E06"/>
  <rect x="60" y="116" width="4" height="4" fill="#F92900"/>
  <rect x="64" y="116" width="4" height="4" fill="#FA2602"/>
  <rect x="68" y="116" width="4" height="4" fill="#1B1B1B"/>
  <rect x="72" y="116" width="4" height="4" fill="#FAFAFA"/>
  <rect x="76" y="116" width="4" height="4" fill="#FAFAFA"/>
  <rect x="80" y="116" width="4" height="4" fill="#FAFAFA"/>
  <rect x="84" y="116" width="4" height="4" fill="#FAFAFA"/>
  <rect x="88" y="116" width="4" height="4" fill="#FAFAFA"/>
  <rect x="92" y="116" width="4" height="4" fill="#FAFAFA"/>
  <rect x="96" y="116" width="4" height="4" fill="#000001"/>
  <rect x="100" y="116" width="4" height="4" fill="#020101"/>
  <rect x="104" y="116" width="4" height="4" fill="#020303"/>
  <rect x="108" y="116" width="4" height="4" fill="#F7F8F8"/>
  <rect x="112" y="116" width="4" height="4" fill="#FAFAFA"/>
  <rect x="116" y="116" width="4" height="4" fill="#FAFAFA"/>
  <rect x="120" y="116" width="4" height="4" fill="#FAFAFA"/>
  <rect x="124" y="116" width="4" height="4" fill="#FAFAFA"/>
  <rect x="128" y="116" width="4" height="4" fill="#FAFAFA"/>
  <rect x="132" y="116" width="4" height="4" fill="#FAFAFA"/>
  <rect x="136" y="116" width="4" height="4" fill="#FAFAFA"/>
  <rect x="140" y="116" width="4" height="4" fill="#FAFAFA"/>
  <rect x="144" y="116" width="4" height="4" fill="#FAFAFA"/>
  <rect x="148" y="116" width="4" height="4" fill="#FAFAFA"/>
  <rect x="152" y="116" width="4" height="4" fill="#FAFAFA"/>
  <rect x="156" y="116" width="4" height="4" fill="#FAFAFA"/>
  <rect x="160" y="116" width="4" height="4" fill="#FAFAFA"/>
  <rect x="164" y="116" width="4" height="4" fill="#FAFAFA"/>
  <rect x="168" y="116" width="4" height="4" fill="#FAFAFA"/>
  <rect x="172" y="116" width="4" height="4" fill="#000000"/>
  <rect x="176" y="116" width="4" height="4" fill="#E0E3E2"/>
  <rect x="180" y="116" width="4" height="4" fill="#000000"/>
  <rect x="184" y="116" width="4" height="4" fill="#AAA7A7"/>
  <rect x="188" y="116" width="4" height="4" fill="#040403"/>
  <rect x="192" y="116" width="4" height="4" fill="#FFE501"/>
  <rect x="196" y="116" width="4" height="4" fill="#FEE001"/>
  <rect x="200" y="116" width="4" height="4" fill="#FE5902"/>
  <rect x="204" y="116" width="4" height="4" fill="#FB4701"/>
  <rect x="208" y="116" width="4" height="4" fill="#912B01"/>
  <rect x="212" y="116" width="4" height="4" fill="#050605"/>
  <rect x="40" y="120" width="4" height="4" fill="#000000"/>
  <rect x="44" y="120" width="4" height="4" fill="#FF0000"/>
  <rect x="48" y="120" width="4" height="4" fill="#F22103"/>
  <rect x="52" y="120" width="4" height="4" fill="#FB2B01"/>
  <rect x="56" y="120" width="4" height="4" fill="#FA3004"/>
  <rect x="60" y="120" width="4" height="4" fill="#EB1B00"/>
  <rect x="64" y="120" width="4" height="4" fill="#F81F03"/>
  <rect x="68" y="120" width="4" height="4" fill="#1C1D1C"/>
  <rect x="72" y="120" width="4" height="4" fill="#FAFAFA"/>
  <rect x="76" y="120" width="4" height="4" fill="#FAFAFA"/>
  <rect x="80" y="120" width="4" height="4" fill="#FAFAFA"/>
  <rect x="84" y="120" width="4" height="4" fill="#FAFAFA"/>
  <rect x="88" y="120" width="4" height="4" fill="#FAFAFA"/>
  <rect x="92" y="120" width="4" height="4" fill="#6FA4A9"/>
  <rect x="96" y="120" width="4" height="4" fill="#E8FDFF"/>
  <rect x="100" y="120" width="4" height="4" fill="#EDFDFF"/>
  <rect x="104" y="120" width="4" height="4" fill="#A0F8FE"/>
  <rect x="108" y="120" width="4" height="4" fill="#90EEF0"/>
  <rect x="112" y="120" width="4" height="4" fill="#FAFAFA"/>
  <rect x="116" y="120" width="4" height="4" fill="#FAFAFA"/>
  <rect x="120" y="120" width="4" height="4" fill="#FAFAFA"/>
  <rect x="124" y="120" width="4" height="4" fill="#FAFAFA"/>
  <rect x="128" y="120" width="4" height="4" fill="#FAFAFA"/>
  <rect x="132" y="120" width="4" height="4" fill="#FAFAFA"/>
  <rect x="136" y="120" width="4" height="4" fill="#FAFAFA"/>
  <rect x="140" y="120" width="4" height="4" fill="#FAFAFA"/>
  <rect x="144" y="120" width="4" height="4" fill="#FAFAFA"/>
  <rect x="148" y="120" width="4" height="4" fill="#FAFAFA"/>
  <rect x="152" y="120" width="4" height="4" fill="#FAFAFA"/>
  <rect x="156" y="120" width="4" height="4" fill="#FAFAFA"/>
  <rect x="160" y="120" width="4" height="4" fill="#FAFAFA"/>
  <rect x="164" y="120" width="4" height="4" fill="#FAFAFA"/>
  <rect x="168" y="120" width="4" height="4" fill="#FAFAFA"/>
  <rect x="172" y="120" width="4" height="4" fill="#000000"/>
  <rect x="176" y="120" width="4" height="4" fill="#C0C1C0"/>
  <rect x="180" y="120" width="4" height="4" fill="#000000"/>
  <rect x="184" y="120" width="4" height="4" fill="#000000"/>
  <rect x="188" y="120" width="4" height="4" fill="#FDED0A"/>
  <rect x="192" y="120" width="4" height="4" fill="#FEFCDA"/>
  <rect x="196" y="120" width="4" height="4" fill="#FFF003"/>
  <rect x="200" y="120" width="4" height="4" fill="#FEE601"/>
  <rect x="204" y="120" width="4" height="4" fill="#FF7501"/>
  <rect x="208" y="120" width="4" height="4" fill="#FD5502"/>
  <rect x="212" y="120" width="4" height="4" fill="#FC8802"/>
  <rect x="216" y="120" width="4" height="4" fill="#030303"/>
  <rect x="36" y="124" width="4" height="4" fill="#000000"/>
  <rect x="40" y="124" width="4" height="4" fill="#FF0000"/>
  <rect x="44" y="124" width="4" height="4" fill="#FF0000"/>
  <rect x="48" y="124" width="4" height="4" fill="#FD3302"/>
  <rect x="52" y="124" width="4" height="4" fill="#FB3103"/>
  <rect x="56" y="124" width="4" height="4" fill="#F42803"/>
  <rect x="60" y="124" width="4" height="4" fill="#E71801"/>
  <rect x="64" y="124" width="4" height="4" fill="#F31F02"/>
  <rect x="68" y="124" width="4" height="4" fill="#1A191A"/>
  <rect x="72" y="124" width="4" height="4" fill="#FAFAFA"/>
  <rect x="76" y="124" width="4" height="4" fill="#FAFAFA"/>
  <rect x="80" y="124" width="4" height="4" fill="#FAFAFA"/>
  <rect x="84" y="124" width="4" height="4" fill="#FAFAFA"/>
  <rect x="88" y="124" width="4" height="4" fill="#FAFAFA"/>
  <rect x="92" y="124" width="4" height="4" fill="#86ACAC"/>
  <rect x="96" y="124" width="4" height="4" fill="#F0FDFF"/>
  <rect x="100" y="124" width="4" height="4" fill="#EDFAFE"/>
  <rect x="104" y="124" width="4" height="4" fill="#93F4FB"/>
  <rect x="108" y="124" width="4" height="4" fill="#92F7FD"/>
  <rect x="112" y="124" width="4" height="4" fill="#FAFAFA"/>
  <rect x="116" y="124" width="4" height="4" fill="#FAFAFA"/>
  <rect x="120" y="124" width="4" height="4" fill="#FAFAFA"/>
  <rect x="124" y="124" width="4" height="4" fill="#FAFAFA"/>
  <rect x="128" y="124" width="4" height="4" fill="#FAFAFA"/>
  <rect x="132" y="124" width="4" height="4" fill="#FAFAFA"/>
  <rect x="136" y="124" width="4" height="4" fill="#FAFAFA"/>
  <rect x="140" y="124" width="4" height="4" fill="#FAFAFA"/>
  <rect x="144" y="124" width="4" height="4" fill="#FAFAFA"/>
  <rect x="148" y="124" width="4" height="4" fill="#FAFAFA"/>
  <rect x="152" y="124" width="4" height="4" fill="#FAFAFA"/>
  <rect x="156" y="124" width="4" height="4" fill="#FAFAFA"/>
  <rect x="160" y="124" width="4" height="4" fill="#FAFAFA"/>
  <rect x="164" y="124" width="4" height="4" fill="#FAFAFA"/>
  <rect x="168" y="124" width="4" height="4" fill="#FAFAFA"/>
  <rect x="172" y="124" width="4" height="4" fill="#010101"/>
  <rect x="176" y="124" width="4" height="4" fill="#AAABAB"/>
  <rect x="180" y="124" width="4" height="4" fill="#010101"/>
  <rect x="184" y="124" width="4" height="4" fill="#B0B0AB"/>
  <rect x="188" y="124" width="4" height="4" fill="#040407"/>
  <rect x="192" y="124" width="4" height="4" fill="#FEFEC7"/>
  <rect x="196" y="124" width="4" height="4" fill="#FEFECD"/>
  <rect x="200" y="124" width="4" height="4" fill="#FDFC61"/>
  <rect x="204" y="124" width="4" height="4" fill="#FFF401"/>
  <rect x="208" y="124" width="4" height="4" fill="#FFE403"/>
  <rect x="212" y="124" width="4" height="4" fill="#F73303"/>
  <rect x="216" y="124" width="4" height="4" fill="#F62E00"/>
  <rect x="220" y="124" width="4" height="4" fill="#FB2D0B"/>
  <rect x="224" y="124" width="4" height="4" fill="#C5C0BE"/>
  <rect x="36" y="128" width="4" height="4" fill="#030203"/>
  <rect x="40" y="128" width="4" height="4" fill="#F72C02"/>
  <rect x="44" y="128" width="4" height="4" fill="#FB3001"/>
  <rect x="48" y="128" width="4" height="4" fill="#E91B01"/>
  <rect x="52" y="128" width="4" height="4" fill="#EB1D02"/>
  <rect x="56" y="128" width="4" height="4" fill="#E71B02"/>
  <rect x="60" y="128" width="4" height="4" fill="#E51701"/>
  <rect x="64" y="128" width="4" height="4" fill="#F62002"/>
  <rect x="68" y="128" width="4" height="4" fill="#161717"/>
  <rect x="72" y="128" width="4" height="4" fill="#FAFAFA"/>
  <rect x="76" y="128" width="4" height="4" fill="#FAFAFA"/>
  <rect x="80" y="128" width="4" height="4" fill="#FAFAFA"/>
  <rect x="84" y="128" width="4" height="4" fill="#FAFAFA"/>
  <rect x="88" y="128" width="4" height="4" fill="#FAFAFA"/>
  <rect x="92" y="128" width="4" height="4" fill="#77AAAB"/>
  <rect x="96" y="128" width="4" height="4" fill="#8CF2FD"/>
  <rect x="100" y="128" width="4" height="4" fill="#89EEFB"/>
  <rect x="104" y="128" width="4" height="4" fill="#87F0FB"/>
  <rect x="108" y="128" width="4" height="4" fill="#91F4FC"/>
  <rect x="112" y="128" width="4" height="4" fill="#FAFAFA"/>
  <rect x="116" y="128" width="4" height="4" fill="#FAFAFA"/>
  <rect x="120" y="128" width="4" height="4" fill="#FAFAFA"/>
  <rect x="124" y="128" width="4" height="4" fill="#FAFAFA"/>
  <rect x="128" y="128" width="4" height="4" fill="#FAFAFA"/>
  <rect x="132" y="128" width="4" height="4" fill="#FAFAFA"/>
  <rect x="136" y="128" width="4" height="4" fill="#FAFAFA"/>
  <rect x="140" y="128" width="4" height="4" fill="#FAFAFA"/>
  <rect x="144" y="128" width="4" height="4" fill="#FAFAFA"/>
  <rect x="148" y="128" width="4" height="4" fill="#FAFAFA"/>
  <rect x="152" y="128" width="4" height="4" fill="#FAFAFA"/>
  <rect x="156" y="128" width="4" height="4" fill="#FAFAFA"/>
  <rect x="160" y="128" width="4" height="4" fill="#FAFAFA"/>
  <rect x="164" y="128" width="4" height="4" fill="#FAFAFA"/>
  <rect x="168" y="128" width="4" height="4" fill="#FAFAFA"/>
  <rect x="172" y="128" width="4" height="4" fill="#000001"/>
  <rect x="176" y="128" width="4" height="4" fill="#A7A8A6"/>
  <rect x="180" y="128" width="4" height="4" fill="#000101"/>
  <rect x="184" y="128" width="4" height="4" fill="#AFAEAC"/>
  <rect x="188" y="128" width="4" height="4" fill="#050303"/>
  <rect x="192" y="128" width="4" height="4" fill="#FFFFBC"/>
  <rect x="196" y="128" width="4" height="4" fill="#FFFFC0"/>
  <rect x="200" y="128" width="4" height="4" fill="#FFFB58"/>
  <rect x="204" y="128" width="4" height="4" fill="#FEEB00"/>
  <rect x="208" y="128" width="4" height="4" fill="#FEE901"/>
  <rect x="212" y="128" width="4" height="4" fill="#F32101"/>
  <rect x="216" y="128" width="4" height="4" fill="#FD3401"/>
  <rect x="220" y="128" width="4" height="4" fill="#E91F04"/>
  <rect x="224" y="128" width="4" height="4" fill="#310602"/>
  <rect x="228" y="128" width="4" height="4" fill="#0F0C0D"/>
  <rect x="40" y="132" width="4" height="4" fill="#020000"/>
  <rect x="44" y="132" width="4" height="4" fill="#B91C05"/>
  <rect x="48" y="132" width="4" height="4" fill="#E81902"/>
  <rect x="52" y="132" width="4" height="4" fill="#E81902"/>
  <rect x="56" y="132" width="4" height="4" fill="#E71904"/>
  <rect x="60" y="132" width="4" height="4" fill="#E41601"/>
  <rect x="64" y="132" width="4" height="4" fill="#F41E02"/>
  <rect x="68" y="132" width="4" height="4" fill="#1C1B1B"/>
  <rect x="72" y="132" width="4" height="4" fill="#FAFAFA"/>
  <rect x="76" y="132" width="4" height="4" fill="#FAFAFA"/>
  <rect x="80" y="132" width="4" height="4" fill="#FAFAFA"/>
  <rect x="84" y="132" width="4" height="4" fill="#FAFAFA"/>
  <rect x="88" y="132" width="4" height="4" fill="#FAFAFA"/>
  <rect x="92" y="132" width="4" height="4" fill="#464848"/>
  <rect x="96" y="132" width="4" height="4" fill="#84EDFA"/>
  <rect x="100" y="132" width="4" height="4" fill="#84EAFA"/>
  <rect x="104" y="132" width="4" height="4" fill="#82EBF8"/>
  <rect x="108" y="132" width="4" height="4" fill="#070504"/>
  <rect x="112" y="132" width="4" height="4" fill="#FAFAFA"/>
  <rect x="116" y="132" width="4" height="4" fill="#FAFAFA"/>
  <rect x="120" y="132" width="4" height="4" fill="#FAFAFA"/>
  <rect x="124" y="132" width="4" height="4" fill="#FAFAFA"/>
  <rect x="128" y="132" width="4" height="4" fill="#FAFAFA"/>
  <rect x="132" y="132" width="4" height="4" fill="#FAFAFA"/>
  <rect x="136" y="132" width="4" height="4" fill="#FAFAFA"/>
  <rect x="140" y="132" width="4" height="4" fill="#FAFAFA"/>
  <rect x="144" y="132" width="4" height="4" fill="#FAFAFA"/>
  <rect x="148" y="132" width="4" height="4" fill="#FAFAFA"/>
  <rect x="152" y="132" width="4" height="4" fill="#FAFAFA"/>
  <rect x="156" y="132" width="4" height="4" fill="#FAFAFA"/>
  <rect x="160" y="132" width="4" height="4" fill="#FAFAFA"/>
  <rect x="164" y="132" width="4" height="4" fill="#FAFAFA"/>
  <rect x="168" y="132" width="4" height="4" fill="#FAFAFA"/>
  <rect x="172" y="132" width="4" height="4" fill="#000101"/>
  <rect x="176" y="132" width="4" height="4" fill="#A2A3A1"/>
  <rect x="180" y="132" width="4" height="4" fill="#010202"/>
  <rect x="184" y="132" width="4" height="4" fill="#AAA9A8"/>
  <rect x="188" y="132" width="4" height="4" fill="#000000"/>
  <rect x="192" y="132" width="4" height="4" fill="#FFFF92"/>
  <rect x="196" y="132" width="4" height="4" fill="#FFF738"/>
  <rect x="200" y="132" width="4" height="4" fill="#FFE001"/>
  <rect x="204" y="132" width="4" height="4" fill="#FFEF03"/>
  <rect x="208" y="132" width="4" height="4" fill="#F62503"/>
  <rect x="212" y="132" width="4" height="4" fill="#F52501"/>
  <rect x="216" y="132" width="4" height="4" fill="#F01F01"/>
  <rect x="220" y="132" width="4" height="4" fill="#010101"/>
  <rect x="224" y="132" width="4" height="4" fill="#CFC9C7"/>
  <rect x="44" y="136" width="4" height="4" fill="#0C0A0A"/>
  <rect x="48" y="136" width="4" height="4" fill="#F42608"/>
  <rect x="52" y="136" width="4" height="4" fill="#E91C02"/>
  <rect x="56" y="136" width="4" height="4" fill="#E41802"/>
  <rect x="60" y="136" width="4" height="4" fill="#E41600"/>
  <rect x="64" y="136" width="4" height="4" fill="#F11D01"/>
  <rect x="68" y="136" width="4" height="4" fill="#1A1719"/>
  <rect x="72" y="136" width="4" height="4" fill="#FAFAFA"/>
  <rect x="76" y="136" width="4" height="4" fill="#FAFAFA"/>
  <rect x="80" y="136" width="4" height="4" fill="#FAFAFA"/>
  <rect x="84" y="136" width="4" height="4" fill="#FAFAFA"/>
  <rect x="88" y="136" width="4" height="4" fill="#FAFAFA"/>
  <rect x="92" y="136" width="4" height="4" fill="#FAFAFA"/>
  <rect x="96" y="136" width="4" height="4" fill="#010302"/>
  <rect x="100" y="136" width="4" height="4" fill="#010403"/>
  <rect x="104" y="136" width="4" height="4" fill="#030605"/>
  <rect x="108" y="136" width="4" height="4" fill="#FAFAFA"/>
  <rect x="112" y="136" width="4" height="4" fill="#FAFAFA"/>
  <rect x="116" y="136" width="4" height="4" fill="#FAFAFA"/>
  <rect x="120" y="136" width="4" height="4" fill="#FAFAFA"/>
  <rect x="124" y="136" width="4" height="4" fill="#FAFAFA"/>
  <rect x="128" y="136" width="4" height="4" fill="#FAFAFA"/>
  <rect x="132" y="136" width="4" height="4" fill="#FAFAFA"/>
  <rect x="136" y="136" width="4" height="4" fill="#FAFAFA"/>
  <rect x="140" y="136" width="4" height="4" fill="#FAFAFA"/>
  <rect x="144" y="136" width="4" height="4" fill="#FAFAFA"/>
  <rect x="148" y="136" width="4" height="4" fill="#FAFAFA"/>
  <rect x="152" y="136" width="4" height="4" fill="#FAFAFA"/>
  <rect x="156" y="136" width="4" height="4" fill="#FAFAFA"/>
  <rect x="160" y="136" width="4" height="4" fill="#FAFAFA"/>
  <rect x="164" y="136" width="4" height="4" fill="#FAFAFA"/>
  <rect x="168" y="136" width="4" height="4" fill="#FAFAFA"/>
  <rect x="172" y="136" width="4" height="4" fill="#000000"/>
  <rect x="176" y="136" width="4" height="4" fill="#6C6866"/>
  <rect x="180" y="136" width="4" height="4" fill="#010101"/>
  <rect x="184" y="136" width="4" height="4" fill="#000000"/>
  <rect x="188" y="136" width="4" height="4" fill="#FDE201"/>
  <rect x="192" y="136" width="4" height="4" fill="#FFF855"/>
  <rect x="196" y="136" width="4" height="4" fill="#FDF412"/>
  <rect x="200" y="136" width="4" height="4" fill="#FD4101"/>
  <rect x="204" y="136" width="4" height="4" fill="#FA2300"/>
  <rect x="208" y="136" width="4" height="4" fill="#F62701"/>
  <rect x="212" y="136" width="4" height="4" fill="#EF2004"/>
  <rect x="216" y="136" width="4" height="4" fill="#050304"/>
  <rect x="220" y="136" width="4" height="4" fill="#EBE6E5"/>
  <rect x="48" y="140" width="4" height="4" fill="#020303"/>
  <rect x="52" y="140" width="4" height="4" fill="#070607"/>
  <rect x="56" y="140" width="4" height="4" fill="#E21B04"/>
  <rect x="60" y="140" width="4" height="4" fill="#E41901"/>
  <rect x="64" y="140" width="4" height="4" fill="#F91F04"/>
  <rect x="68" y="140" width="4" height="4" fill="#26201E"/>
  <rect x="72" y="140" width="4" height="4" fill="#D2CFCB"/>
  <rect x="76" y="140" width="4" height="4" fill="#FAFAFA"/>
  <rect x="80" y="140" width="4" height="4" fill="#FAFAFA"/>
  <rect x="84" y="140" width="4" height="4" fill="#FAFAFA"/>
  <rect x="88" y="140" width="4" height="4" fill="#FAFAFA"/>
  <rect x="92" y="140" width="4" height="4" fill="#FAFAFA"/>
  <rect x="96" y="140" width="4" height="4" fill="#FAFAFA"/>
  <rect x="100" y="140" width="4" height="4" fill="#FAFAFA"/>
  <rect x="104" y="140" width="4" height="4" fill="#FAFAFA"/>
  <rect x="108" y="140" width="4" height="4" fill="#FAFAFA"/>
  <rect x="112" y="140" width="4" height="4" fill="#FAFAFA"/>
  <rect x="116" y="140" width="4" height="4" fill="#FAFAFA"/>
  <rect x="120" y="140" width="4" height="4" fill="#FAFAFA"/>
  <rect x="124" y="140" width="4" height="4" fill="#FAFAFA"/>
  <rect x="128" y="140" width="4" height="4" fill="#FAFAFA"/>
  <rect x="132" y="140" width="4" height="4" fill="#FAFAFA"/>
  <rect x="136" y="140" width="4" height="4" fill="#DBDCDC"/>
  <rect x="140" y="140" width="4" height="4" fill="#D8DAD9"/>
  <rect x="144" y="140" width="4" height="4" fill="#D9D9D7"/>
  <rect x="148" y="140" width="4" height="4" fill="#D9DBDA"/>
  <rect x="152" y="140" width="4" height="4" fill="#D9D9D8"/>
  <rect x="156" y="140" width="4" height="4" fill="#D8D9D8"/>
  <rect x="160" y="140" width="4" height="4" fill="#D8D8D7"/>
  <rect x="164" y="140" width="4" height="4" fill="#D0D1CF"/>
  <rect x="168" y="140" width="4" height="4" fill="#D6D7D6"/>
  <rect x="172" y="140" width="4" height="4" fill="#000000"/>
  <rect x="176" y="140" width="4" height="4" fill="#6D6B68"/>
  <rect x="180" y="140" width="4" height="4" fill="#010101"/>
  <rect x="184" y="140" width="4" height="4" fill="#C8C5C3"/>
  <rect x="188" y="140" width="4" height="4" fill="#030302"/>
  <rect x="192" y="140" width="4" height="4" fill="#FFC800"/>
  <rect x="196" y="140" width="4" height="4" fill="#FA3201"/>
  <rect x="200" y="140" width="4" height="4" fill="#FB3502"/>
  <rect x="204" y="140" width="4" height="4" fill="#F42300"/>
  <rect x="208" y="140" width="4" height="4" fill="#F42C03"/>
  <rect x="212" y="140" width="4" height="4" fill="#080707"/>
  <rect x="56" y="144" width="4" height="4" fill="#020202"/>
  <rect x="60" y="144" width="4" height="4" fill="#010000"/>
  <rect x="64" y="144" width="4" height="4" fill="#030302"/>
  <rect x="68" y="144" width="4" height="4" fill="#ADACAE"/>
  <rect x="72" y="144" width="4" height="4" fill="#CFCFCC"/>
  <rect x="76" y="144" width="4" height="4" fill="#E8E9E6"/>
  <rect x="80" y="144" width="4" height="4" fill="#E8E7E6"/>
  <rect x="84" y="144" width="4" height="4" fill="#EAEBE9"/>
  <rect x="88" y="144" width="4" height="4" fill="#ECEEEA"/>
  <rect x="92" y="144" width="4" height="4" fill="#EBECEB"/>
  <rect x="96" y="144" width="4" height="4" fill="#EBECEB"/>
  <rect x="100" y="144" width="4" height="4" fill="#EBEDEB"/>
  <rect x="104" y="144" width="4" height="4" fill="#EAEDEB"/>
  <rect x="108" y="144" width="4" height="4" fill="#EAEDEC"/>
  <rect x="112" y="144" width="4" height="4" fill="#EAEBEA"/>
  <rect x="116" y="144" width="4" height="4" fill="#E9EBE9"/>
  <rect x="120" y="144" width="4" height="4" fill="#EAEAE9"/>
  <rect x="124" y="144" width="4" height="4" fill="#E9EAE7"/>
  <rect x="128" y="144" width="4" height="4" fill="#E7E8E6"/>
  <rect x="132" y="144" width="4" height="4" fill="#D9D8D9"/>
  <rect x="136" y="144" width="4" height="4" fill="#E0E0E2"/>
  <rect x="140" y="144" width="4" height="4" fill="#030302"/>
  <rect x="144" y="144" width="4" height="4" fill="#040404"/>
  <rect x="148" y="144" width="4" height="4" fill="#020203"/>
  <rect x="152" y="144" width="4" height="4" fill="#000000"/>
  <rect x="156" y="144" width="4" height="4" fill="#020202"/>
  <rect x="160" y="144" width="4" height="4" fill="#010101"/>
  <rect x="164" y="144" width="4" height="4" fill="#020202"/>
  <rect x="168" y="144" width="4" height="4" fill="#D9D7D6"/>
  <rect x="172" y="144" width="4" height="4" fill="#000000"/>
  <rect x="176" y="144" width="4" height="4" fill="#71706D"/>
  <rect x="180" y="144" width="4" height="4" fill="#020202"/>
  <rect x="184" y="144" width="4" height="4" fill="#040303"/>
  <rect x="188" y="144" width="4" height="4" fill="#FC3E01"/>
  <rect x="192" y="144" width="4" height="4" fill="#FA3600"/>
  <rect x="196" y="144" width="4" height="4" fill="#F93601"/>
  <rect x="200" y="144" width="4" height="4" fill="#F72C01"/>
  <rect x="204" y="144" width="4" height="4" fill="#5D1002"/>
  <rect x="68" y="148" width="4" height="4" fill="#151514"/>
  <rect x="72" y="148" width="4" height="4" fill="#141515"/>
  <rect x="76" y="148" width="4" height="4" fill="#121313"/>
  <rect x="80" y="148" width="4" height="4" fill="#171616"/>
  <rect x="84" y="148" width="4" height="4" fill="#151514"/>
  <rect x="88" y="148" width="4" height="4" fill="#151514"/>
  <rect x="92" y="148" width="4" height="4" fill="#151514"/>
  <rect x="96" y="148" width="4" height="4" fill="#111111"/>
  <rect x="100" y="148" width="4" height="4" fill="#151515"/>
  <rect x="104" y="148" width="4" height="4" fill="#151516"/>
  <rect x="108" y="148" width="4" height="4" fill="#151616"/>
  <rect x="112" y="148" width="4" height="4" fill="#161816"/>
  <rect x="116" y="148" width="4" height="4" fill="#171716"/>
  <rect x="120" y="148" width="4" height="4" fill="#161616"/>
  <rect x="124" y="148" width="4" height="4" fill="#151515"/>
  <rect x="128" y="148" width="4" height="4" fill="#141415"/>
  <rect x="132" y="148" width="4" height="4" fill="#121111"/>
  <rect x="136" y="148" width="4" height="4" fill="#171717"/>
  <rect x="140" y="148" width="4" height="4" fill="#571003"/>
  <rect x="144" y="148" width="4" height="4" fill="#E01903"/>
  <rect x="148" y="148" width="4" height="4" fill="#E31401"/>
  <rect x="152" y="148" width="4" height="4" fill="#E21400"/>
  <rect x="156" y="148" width="4" height="4" fill="#E01500"/>
  <rect x="160" y="148" width="4" height="4" fill="#DB1401"/>
  <rect x="164" y="148" width="4" height="4" fill="#DB1705"/>
  <rect x="168" y="148" width="4" height="4" fill="#B6B4B3"/>
  <rect x="172" y="148" width="4" height="4" fill="#010101"/>
  <rect x="176" y="148" width="4" height="4" fill="#0B0B0C"/>
  <rect x="180" y="148" width="4" height="4" fill="#040403"/>
  <rect x="184" y="148" width="4" height="4" fill="#72625D"/>
  <rect x="188" y="148" width="4" height="4" fill="#0C0404"/>
  <rect x="192" y="148" width="4" height="4" fill="#FC8201"/>
  <rect x="196" y="148" width="4" height="4" fill="#F65000"/>
  <rect x="200" y="148" width="4" height="4" fill="#0A0507"/>
  <rect x="140" y="152" width="4" height="4" fill="#0B0805"/>
  <rect x="144" y="152" width="4" height="4" fill="#DE1C04"/>
  <rect x="148" y="152" width="4" height="4" fill="#E51701"/>
  <rect x="152" y="152" width="4" height="4" fill="#E71602"/>
  <rect x="156" y="152" width="4" height="4" fill="#EB1801"/>
  <rect x="160" y="152" width="4" height="4" fill="#E21501"/>
  <rect x="164" y="152" width="4" height="4" fill="#DA1302"/>
  <rect x="168" y="152" width="4" height="4" fill="#010101"/>
  <rect x="172" y="152" width="4" height="4" fill="#000000"/>
  <rect x="176" y="152" width="4" height="4" fill="#060606"/>
  <rect x="180" y="152" width="4" height="4" fill="#050405"/>
  <rect x="188" y="152" width="4" height="4" fill="#020101"/>
  <rect x="192" y="152" width="4" height="4" fill="#060202"/>
  <rect x="196" y="152" width="4" height="4" fill="#050403"/>
  <rect x="144" y="156" width="4" height="4" fill="#020104"/>
  <rect x="148" y="156" width="4" height="4" fill="#F22802"/>
  <rect x="152" y="156" width="4" height="4" fill="#EF1D02"/>
  <rect x="156" y="156" width="4" height="4" fill="#EC1900"/>
  <rect x="160" y="156" width="4" height="4" fill="#E51701"/>
  <rect x="164" y="156" width="4" height="4" fill="#D81404"/>
  <rect x="168" y="156" width="4" height="4" fill="#020203"/>
  <rect x="172" y="156" width="4" height="4" fill="#2F2B2A"/>
  <rect x="144" y="160" width="4" height="4" fill="#CFC8C6"/>
  <rect x="148" y="160" width="4" height="4" fill="#09090A"/>
  <rect x="152" y="160" width="4" height="4" fill="#E32501"/>
  <rect x="156" y="160" width="4" height="4" fill="#EE1C01"/>
  <rect x="160" y="160" width="4" height="4" fill="#EB1A01"/>
  <rect x="164" y="160" width="4" height="4" fill="#E21A02"/>
  <rect x="168" y="160" width="4" height="4" fill="#F11A04"/>
  <rect x="172" y="160" width="4" height="4" fill="#0C0A09"/>
  <rect x="152" y="164" width="4" height="4" fill="#050304"/>
  <rect x="156" y="164" width="4" height="4" fill="#E51E01"/>
  <rect x="160" y="164" width="4" height="4" fill="#EF1D01"/>
  <rect x="164" y="164" width="4" height="4" fill="#E51B03"/>
  <rect x="168" y="164" width="4" height="4" fill="#F31A03"/>
  <rect x="172" y="164" width="4" height="4" fill="#040405"/>
  <rect x="156" y="168" width="4" height="4" fill="#040406"/>
  <rect x="160" y="168" width="4" height="4" fill="#DF2204"/>
  <rect x="164" y="168" width="4" height="4" fill="#EE2102"/>
  <rect x="168" y="168" width="4" height="4" fill="#F41F04"/>
  <rect x="172" y="168" width="4" height="4" fill="#F53C13"/>
  <rect x="176" y="168" width="4" height="4" fill="#817C7B"/>
  <rect x="160" y="172" width="4" height="4" fill="#050303"/>
  <rect x="164" y="172" width="4" height="4" fill="#A51403"/>
  <rect x="168" y="172" width="4" height="4" fill="#F32101"/>
  <rect x="172" y="172" width="4" height="4" fill="#F11F01"/>
  <rect x="176" y="172" width="4" height="4" fill="#2B2426"/>
  <rect x="180" y="172" width="4" height="4" fill="#D4D1D1"/>
  <rect x="164" y="176" width="4" height="4" fill="#615250"/>
  <rect x="168" y="176" width="4" height="4" fill="#B91A03"/>
  <rect x="172" y="176" width="4" height="4" fill="#E81A02"/>
  <rect x="176" y="176" width="4" height="4" fill="#991905"/>
  <rect x="180" y="176" width="4" height="4" fill="#0A0A0E"/>
  <rect x="164" y="180" width="4" height="4" fill="#ECE8E7"/>
  <rect x="168" y="180" width="4" height="4" fill="#390E08"/>
  <rect x="172" y="180" width="4" height="4" fill="#931001"/>
  <rect x="176" y="180" width="4" height="4" fill="#F73905"/>
  <rect x="180" y="180" width="4" height="4" fill="#BD2007"/>
  <rect x="184" y="180" width="4" height="4" fill="#43403F"/>
  <rect x="172" y="184" width="4" height="4" fill="#020202"/>
  <rect x="176" y="184" width="4" height="4" fill="#020202"/>
  <rect x="180" y="184" width="4" height="4" fill="#020202"/>
  <rect x="184" y="184" width="4" height="4" fill="#413D3D"/>
</svg>
