<?xml version="1.0" encoding="UTF-8"?>
<svg xmlns="http://www.w3.org/2000/svg" width="192" height="192" viewBox="0 0 192 192">
  <rect x="72" y="20" width="4" height="4" fill="#419227"/>
  <rect x="76" y="20" width="4" height="4" fill="#419227"/>
  <rect x="80" y="20" width="4" height="4" fill="#419227"/>
  <rect x="84" y="20" width="4" height="4" fill="#419227"/>
  <rect x="88" y="20" width="4" height="4" fill="#377E29"/>
  <rect x="68" y="24" width="4" height="4" fill="#419227"/>
  <rect x="72" y="24" width="4" height="4" fill="#8CCF5C"/>
  <rect x="76" y="24" width="4" height="4" fill="#8CCF5C"/>
  <rect x="80" y="24" width="4" height="4" fill="#8CCF5C"/>
  <rect x="84" y="24" width="4" height="4" fill="#8CCF5C"/>
  <rect x="88" y="24" width="4" height="4" fill="#61A333"/>
  <rect x="92" y="24" width="4" height="4" fill="#377E29"/>
  <rect x="96" y="24" width="4" height="4" fill="#377E29"/>
  <rect x="68" y="28" width="4" height="4" fill="#419227"/>
  <rect x="72" y="28" width="4" height="4" fill="#8CCF5C"/>
  <rect x="76" y="28" width="4" height="4" fill="#8CCF5C"/>
  <rect x="80" y="28" width="4" height="4" fill="#8CCF5C"/>
  <rect x="84" y="28" width="4" height="4" fill="#8CCF5C"/>
  <rect x="88" y="28" width="4" height="4" fill="#61A333"/>
  <rect x="92" y="28" width="4" height="4" fill="#377E29"/>
  <rect x="96" y="28" width="4" height="4" fill="#377E29"/>
  <rect x="60" y="32" width="4" height="4" fill="#419227"/>
  <rect x="64" y="32" width="4" height="4" fill="#419227"/>
  <rect x="68" y="32" width="4" height="4" fill="#8CCF5C"/>
  <rect x="72" y="32" width="4" height="4" fill="#61A333"/>
  <rect x="76" y="32" width="4" height="4" fill="#61A333"/>
  <rect x="80" y="32" width="4" height="4" fill="#61A333"/>
  <rect x="84" y="32" width="4" height="4" fill="#61A333"/>
  <rect x="88" y="32" width="4" height="4" fill="#BDF596"/>
  <rect x="92" y="32" width="4" height="4" fill="#377E29"/>
  <rect x="96" y="32" width="4" height="4" fill="#377E29"/>
  <rect x="100" y="32" width="4" height="4" fill="#419227"/>
  <rect x="104" y="32" width="4" height="4" fill="#419227"/>
  <rect x="108" y="32" width="4" height="4" fill="#419227"/>
  <rect x="60" y="36" width="4" height="4" fill="#419227"/>
  <rect x="64" y="36" width="4" height="4" fill="#419227"/>
  <rect x="68" y="36" width="4" height="4" fill="#8CCF5C"/>
  <rect x="72" y="36" width="4" height="4" fill="#61A333"/>
  <rect x="76" y="36" width="4" height="4" fill="#61A333"/>
  <rect x="80" y="36" width="4" height="4" fill="#61A333"/>
  <rect x="84" y="36" width="4" height="4" fill="#61A333"/>
  <rect x="88" y="36" width="4" height="4" fill="#BDF596"/>
  <rect x="92" y="36" width="4" height="4" fill="#377E29"/>
  <rect x="96" y="36" width="4" height="4" fill="#377E29"/>
  <rect x="100" y="36" width="4" height="4" fill="#419227"/>
  <rect x="104" y="36" width="4" height="4" fill="#419227"/>
  <rect x="108" y="36" width="4" height="4" fill="#419227"/>
  <rect x="60" y="40" width="4" height="4" fill="#377E29"/>
  <rect x="64" y="40" width="4" height="4" fill="#377E29"/>
  <rect x="68" y="40" width="4" height="4" fill="#61A333"/>
  <rect x="72" y="40" width="4" height="4" fill="#61A333"/>
  <rect x="76" y="40" width="4" height="4" fill="#61A333"/>
  <rect x="80" y="40" width="4" height="4" fill="#419227"/>
  <rect x="84" y="40" width="4" height="4" fill="#419227"/>
  <rect x="88" y="40" width="4" height="4" fill="#B1F085"/>
  <rect x="92" y="40" width="4" height="4" fill="#B1F085"/>
  <rect x="96" y="40" width="4" height="4" fill="#B1F085"/>
  <rect x="100" y="40" width="4" height="4" fill="#8CCF5C"/>
  <rect x="104" y="40" width="4" height="4" fill="#8CCF5C"/>
  <rect x="108" y="40" width="4" height="4" fill="#8CCF5C"/>
  <rect x="112" y="40" width="4" height="4" fill="#419227"/>
  <rect x="116" y="40" width="4" height="4" fill="#419227"/>
  <rect x="60" y="44" width="4" height="4" fill="#377E29"/>
  <rect x="64" y="44" width="4" height="4" fill="#377E29"/>
  <rect x="68" y="44" width="4" height="4" fill="#366715"/>
  <rect x="72" y="44" width="4" height="4" fill="#366715"/>
  <rect x="76" y="44" width="4" height="4" fill="#366715"/>
  <rect x="80" y="44" width="4" height="4" fill="#366715"/>
  <rect x="84" y="44" width="4" height="4" fill="#366715"/>
  <rect x="88" y="44" width="4" height="4" fill="#377E29"/>
  <rect x="92" y="44" width="4" height="4" fill="#419227"/>
  <rect x="96" y="44" width="4" height="4" fill="#419227"/>
  <rect x="100" y="44" width="4" height="4" fill="#61A333"/>
  <rect x="104" y="44" width="4" height="4" fill="#61A333"/>
  <rect x="108" y="44" width="4" height="4" fill="#61A333"/>
  <rect x="112" y="44" width="4" height="4" fill="#8CCF5C"/>
  <rect x="116" y="44" width="4" height="4" fill="#8CCF5C"/>
  <rect x="120" y="44" width="4" height="4" fill="#419227"/>
  <rect x="60" y="48" width="4" height="4" fill="#377E29"/>
  <rect x="64" y="48" width="4" height="4" fill="#377E29"/>
  <rect x="68" y="48" width="4" height="4" fill="#366715"/>
  <rect x="72" y="48" width="4" height="4" fill="#366715"/>
  <rect x="76" y="48" width="4" height="4" fill="#366715"/>
  <rect x="80" y="48" width="4" height="4" fill="#366715"/>
  <rect x="84" y="48" width="4" height="4" fill="#366715"/>
  <rect x="88" y="48" width="4" height="4" fill="#377E29"/>
  <rect x="92" y="48" width="4" height="4" fill="#419227"/>
  <rect x="96" y="48" width="4" height="4" fill="#419227"/>
  <rect x="100" y="48" width="4" height="4" fill="#61A333"/>
  <rect x="104" y="48" width="4" height="4" fill="#61A333"/>
  <rect x="108" y="48" width="4" height="4" fill="#61A333"/>
  <rect x="112" y="48" width="4" height="4" fill="#8CCF5C"/>
  <rect x="116" y="48" width="4" height="4" fill="#8CCF5C"/>
  <rect x="120" y="48" width="4" height="4" fill="#419227"/>
  <rect x="88" y="52" width="4" height="4" fill="#366715"/>
  <rect x="92" y="52" width="4" height="4" fill="#419227"/>
  <rect x="96" y="52" width="4" height="4" fill="#419227"/>
  <rect x="100" y="52" width="4" height="4" fill="#419227"/>
  <rect x="104" y="52" width="4" height="4" fill="#61A333"/>
  <rect x="108" y="52" width="4" height="4" fill="#61A333"/>
  <rect x="112" y="52" width="4" height="4" fill="#8CCF5C"/>
  <rect x="116" y="52" width="4" height="4" fill="#8CCF5C"/>
  <rect x="120" y="52" width="4" height="4" fill="#419227"/>
  <rect x="72" y="56" width="4" height="4" fill="#419227"/>
  <rect x="76" y="56" width="4" height="4" fill="#419227"/>
  <rect x="80" y="56" width="4" height="4" fill="#419227"/>
  <rect x="84" y="56" width="4" height="4" fill="#419227"/>
  <rect x="88" y="56" width="4" height="4" fill="#7A3C05"/>
  <rect x="92" y="56" width="4" height="4" fill="#366715"/>
  <rect x="96" y="56" width="4" height="4" fill="#366715"/>
  <rect x="100" y="56" width="4" height="4" fill="#419227"/>
  <rect x="104" y="56" width="4" height="4" fill="#419227"/>
  <rect x="108" y="56" width="4" height="4" fill="#419227"/>
  <rect x="112" y="56" width="4" height="4" fill="#61A333"/>
  <rect x="116" y="56" width="4" height="4" fill="#61A333"/>
  <rect x="120" y="56" width="4" height="4" fill="#377E29"/>
  <rect x="72" y="60" width="4" height="4" fill="#419227"/>
  <rect x="76" y="60" width="4" height="4" fill="#419227"/>
  <rect x="80" y="60" width="4" height="4" fill="#419227"/>
  <rect x="84" y="60" width="4" height="4" fill="#419227"/>
  <rect x="88" y="60" width="4" height="4" fill="#7A3C05"/>
  <rect x="92" y="60" width="4" height="4" fill="#366715"/>
  <rect x="96" y="60" width="4" height="4" fill="#366715"/>
  <rect x="100" y="60" width="4" height="4" fill="#419227"/>
  <rect x="104" y="60" width="4" height="4" fill="#419227"/>
  <rect x="108" y="60" width="4" height="4" fill="#419227"/>
  <rect x="112" y="60" width="4" height="4" fill="#61A333"/>
  <rect x="116" y="60" width="4" height="4" fill="#61A333"/>
  <rect x="120" y="60" width="4" height="4" fill="#377E29"/>
  <rect x="56" y="64" width="4" height="4" fill="#E4F5F6"/>
  <rect x="60" y="64" width="4" height="4" fill="#419227"/>
  <rect x="64" y="64" width="4" height="4" fill="#419227"/>
  <rect x="68" y="64" width="4" height="4" fill="#419227"/>
  <rect x="72" y="64" width="4" height="4" fill="#8CCF5C"/>
  <rect x="76" y="64" width="4" height="4" fill="#8CCF5C"/>
  <rect x="80" y="64" width="4" height="4" fill="#BDF596"/>
  <rect x="84" y="64" width="4" height="4" fill="#BDF596"/>
  <rect x="88" y="64" width="4" height="4" fill="#377E29"/>
  <rect x="92" y="64" width="4" height="4" fill="#7A3C05"/>
  <rect x="96" y="64" width="4" height="4" fill="#7A3C05"/>
  <rect x="100" y="64" width="4" height="4" fill="#366715"/>
  <rect x="104" y="64" width="4" height="4" fill="#366715"/>
  <rect x="108" y="64" width="4" height="4" fill="#366715"/>
  <rect x="112" y="64" width="4" height="4" fill="#377E29"/>
  <rect x="116" y="64" width="4" height="4" fill="#377E29"/>
  <rect x="120" y="64" width="4" height="4" fill="#377E29"/>
  <rect x="56" y="68" width="4" height="4" fill="#E4F5F6"/>
  <rect x="60" y="68" width="4" height="4" fill="#419227"/>
  <rect x="64" y="68" width="4" height="4" fill="#419227"/>
  <rect x="68" y="68" width="4" height="4" fill="#419227"/>
  <rect x="72" y="68" width="4" height="4" fill="#8CCF5C"/>
  <rect x="76" y="68" width="4" height="4" fill="#8CCF5C"/>
  <rect x="80" y="68" width="4" height="4" fill="#BDF596"/>
  <rect x="84" y="68" width="4" height="4" fill="#BDF596"/>
  <rect x="88" y="68" width="4" height="4" fill="#377E29"/>
  <rect x="92" y="68" width="4" height="4" fill="#7A3C05"/>
  <rect x="96" y="68" width="4" height="4" fill="#7A3C05"/>
  <rect x="100" y="68" width="4" height="4" fill="#366715"/>
  <rect x="104" y="68" width="4" height="4" fill="#366715"/>
  <rect x="108" y="68" width="4" height="4" fill="#366715"/>
  <rect x="112" y="68" width="4" height="4" fill="#377E29"/>
  <rect x="116" y="68" width="4" height="4" fill="#377E29"/>
  <rect x="120" y="68" width="4" height="4" fill="#377E29"/>
  <rect x="56" y="72" width="4" height="4" fill="#419227"/>
  <rect x="60" y="72" width="4" height="4" fill="#8CCF5C"/>
  <rect x="64" y="72" width="4" height="4" fill="#8CCF5C"/>
  <rect x="68" y="72" width="4" height="4" fill="#8CCF5C"/>
  <rect x="72" y="72" width="4" height="4" fill="#61A333"/>
  <rect x="76" y="72" width="4" height="4" fill="#61A333"/>
  <rect x="80" y="72" width="4" height="4" fill="#B1F085"/>
  <rect x="84" y="72" width="4" height="4" fill="#B1F085"/>
  <rect x="88" y="72" width="4" height="4" fill="#B1F085"/>
  <rect x="92" y="72" width="4" height="4" fill="#7A3C05"/>
  <rect x="96" y="72" width="4" height="4" fill="#7A3C05"/>
  <rect x="56" y="76" width="4" height="4" fill="#377E29"/>
  <rect x="60" y="76" width="4" height="4" fill="#61A333"/>
  <rect x="64" y="76" width="4" height="4" fill="#61A333"/>
  <rect x="68" y="76" width="4" height="4" fill="#61A333"/>
  <rect x="72" y="76" width="4" height="4" fill="#419227"/>
  <rect x="76" y="76" width="4" height="4" fill="#419227"/>
  <rect x="80" y="76" width="4" height="4" fill="#366715"/>
  <rect x="84" y="76" width="4" height="4" fill="#366715"/>
  <rect x="88" y="76" width="4" height="4" fill="#7A3C05"/>
  <rect x="92" y="76" width="4" height="4" fill="#8C560E"/>
  <rect x="96" y="76" width="4" height="4" fill="#8C560E"/>
  <rect x="100" y="76" width="4" height="4" fill="#7A3C05"/>
  <rect x="104" y="76" width="4" height="4" fill="#377E29"/>
  <rect x="108" y="76" width="4" height="4" fill="#377E29"/>
  <rect x="112" y="76" width="4" height="4" fill="#419227"/>
  <rect x="116" y="76" width="4" height="4" fill="#419227"/>
  <rect x="120" y="76" width="4" height="4" fill="#419227"/>
  <rect x="56" y="80" width="4" height="4" fill="#377E29"/>
  <rect x="60" y="80" width="4" height="4" fill="#61A333"/>
  <rect x="64" y="80" width="4" height="4" fill="#61A333"/>
  <rect x="68" y="80" width="4" height="4" fill="#61A333"/>
  <rect x="72" y="80" width="4" height="4" fill="#419227"/>
  <rect x="76" y="80" width="4" height="4" fill="#419227"/>
  <rect x="80" y="80" width="4" height="4" fill="#366715"/>
  <rect x="84" y="80" width="4" height="4" fill="#366715"/>
  <rect x="88" y="80" width="4" height="4" fill="#7A3C05"/>
  <rect x="92" y="80" width="4" height="4" fill="#8C560E"/>
  <rect x="96" y="80" width="4" height="4" fill="#8C560E"/>
  <rect x="100" y="80" width="4" height="4" fill="#7A3C05"/>
  <rect x="104" y="80" width="4" height="4" fill="#377E29"/>
  <rect x="108" y="80" width="4" height="4" fill="#377E29"/>
  <rect x="112" y="80" width="4" height="4" fill="#419227"/>
  <rect x="116" y="80" width="4" height="4" fill="#419227"/>
  <rect x="120" y="80" width="4" height="4" fill="#419227"/>
  <rect x="56" y="84" width="4" height="4" fill="#377E29"/>
  <rect x="60" y="84" width="4" height="4" fill="#377E29"/>
  <rect x="64" y="84" width="4" height="4" fill="#377E29"/>
  <rect x="68" y="84" width="4" height="4" fill="#366715"/>
  <rect x="72" y="84" width="4" height="4" fill="#366715"/>
  <rect x="76" y="84" width="4" height="4" fill="#366715"/>
  <rect x="88" y="84" width="4" height="4" fill="#8C560E"/>
  <rect x="92" y="84" width="4" height="4" fill="#8C560E"/>
  <rect x="96" y="84" width="4" height="4" fill="#8C560E"/>
  <rect x="100" y="84" width="4" height="4" fill="#377E29"/>
  <rect x="104" y="84" width="4" height="4" fill="#61A333"/>
  <rect x="108" y="84" width="4" height="4" fill="#61A333"/>
  <rect x="112" y="84" width="4" height="4" fill="#8CCF5C"/>
  <rect x="116" y="84" width="4" height="4" fill="#8CCF5C"/>
  <rect x="120" y="84" width="4" height="4" fill="#8CCF5C"/>
  <rect x="124" y="84" width="4" height="4" fill="#419227"/>
  <rect x="128" y="84" width="4" height="4" fill="#419227"/>
  <rect x="88" y="88" width="4" height="4" fill="#967415"/>
  <rect x="92" y="88" width="4" height="4" fill="#BDF596"/>
  <rect x="96" y="88" width="4" height="4" fill="#BDF596"/>
  <rect x="100" y="88" width="4" height="4" fill="#366715"/>
  <rect x="104" y="88" width="4" height="4" fill="#61A333"/>
  <rect x="108" y="88" width="4" height="4" fill="#61A333"/>
  <rect x="112" y="88" width="4" height="4" fill="#61A333"/>
  <rect x="116" y="88" width="4" height="4" fill="#61A333"/>
  <rect x="120" y="88" width="4" height="4" fill="#61A333"/>
  <rect x="124" y="88" width="4" height="4" fill="#8CCF5C"/>
  <rect x="128" y="88" width="4" height="4" fill="#8CCF5C"/>
  <rect x="132" y="88" width="4" height="4" fill="#419227"/>
  <rect x="88" y="92" width="4" height="4" fill="#967415"/>
  <rect x="92" y="92" width="4" height="4" fill="#BDF596"/>
  <rect x="96" y="92" width="4" height="4" fill="#BDF596"/>
  <rect x="100" y="92" width="4" height="4" fill="#366715"/>
  <rect x="104" y="92" width="4" height="4" fill="#61A333"/>
  <rect x="108" y="92" width="4" height="4" fill="#61A333"/>
  <rect x="112" y="92" width="4" height="4" fill="#61A333"/>
  <rect x="116" y="92" width="4" height="4" fill="#61A333"/>
  <rect x="120" y="92" width="4" height="4" fill="#61A333"/>
  <rect x="124" y="92" width="4" height="4" fill="#8CCF5C"/>
  <rect x="128" y="92" width="4" height="4" fill="#8CCF5C"/>
  <rect x="132" y="92" width="4" height="4" fill="#419227"/>
  <rect x="56" y="96" width="4" height="4" fill="#419227"/>
  <rect x="60" y="96" width="4" height="4" fill="#419227"/>
  <rect x="64" y="96" width="4" height="4" fill="#419227"/>
  <rect x="68" y="96" width="4" height="4" fill="#419227"/>
  <rect x="72" y="96" width="4" height="4" fill="#377E29"/>
  <rect x="76" y="96" width="4" height="4" fill="#377E29"/>
  <rect x="80" y="96" width="4" height="4" fill="#7A3C05"/>
  <rect x="84" y="96" width="4" height="4" fill="#7A3C05"/>
  <rect x="88" y="96" width="4" height="4" fill="#B1F085"/>
  <rect x="92" y="96" width="4" height="4" fill="#B1F085"/>
  <rect x="96" y="96" width="4" height="4" fill="#B1F085"/>
  <rect x="100" y="96" width="4" height="4" fill="#366715"/>
  <rect x="104" y="96" width="4" height="4" fill="#419227"/>
  <rect x="108" y="96" width="4" height="4" fill="#419227"/>
  <rect x="112" y="96" width="4" height="4" fill="#61A333"/>
  <rect x="116" y="96" width="4" height="4" fill="#61A333"/>
  <rect x="120" y="96" width="4" height="4" fill="#61A333"/>
  <rect x="124" y="96" width="4" height="4" fill="#61A333"/>
  <rect x="128" y="96" width="4" height="4" fill="#61A333"/>
  <rect x="132" y="96" width="4" height="4" fill="#377E29"/>
  <rect x="56" y="100" width="4" height="4" fill="#419227"/>
  <rect x="60" y="100" width="4" height="4" fill="#419227"/>
  <rect x="64" y="100" width="4" height="4" fill="#419227"/>
  <rect x="68" y="100" width="4" height="4" fill="#419227"/>
  <rect x="72" y="100" width="4" height="4" fill="#377E29"/>
  <rect x="76" y="100" width="4" height="4" fill="#377E29"/>
  <rect x="80" y="100" width="4" height="4" fill="#7A3C05"/>
  <rect x="84" y="100" width="4" height="4" fill="#7A3C05"/>
  <rect x="88" y="100" width="4" height="4" fill="#B1F085"/>
  <rect x="92" y="100" width="4" height="4" fill="#B1F085"/>
  <rect x="96" y="100" width="4" height="4" fill="#B1F085"/>
  <rect x="100" y="100" width="4" height="4" fill="#366715"/>
  <rect x="104" y="100" width="4" height="4" fill="#419227"/>
  <rect x="108" y="100" width="4" height="4" fill="#419227"/>
  <rect x="112" y="100" width="4" height="4" fill="#61A333"/>
  <rect x="116" y="100" width="4" height="4" fill="#61A333"/>
  <rect x="120" y="100" width="4" height="4" fill="#61A333"/>
  <rect x="124" y="100" width="4" height="4" fill="#61A333"/>
  <rect x="128" y="100" width="4" height="4" fill="#61A333"/>
  <rect x="132" y="100" width="4" height="4" fill="#377E29"/>
  <rect x="48" y="104" width="4" height="4" fill="#419227"/>
  <rect x="52" y="104" width="4" height="4" fill="#419227"/>
  <rect x="56" y="104" width="4" height="4" fill="#8CCF5C"/>
  <rect x="60" y="104" width="4" height="4" fill="#8CCF5C"/>
  <rect x="64" y="104" width="4" height="4" fill="#8CCF5C"/>
  <rect x="68" y="104" width="4" height="4" fill="#61A333"/>
  <rect x="72" y="104" width="4" height="4" fill="#61A333"/>
  <rect x="76" y="104" width="4" height="4" fill="#61A333"/>
  <rect x="80" y="104" width="4" height="4" fill="#377E29"/>
  <rect x="84" y="104" width="4" height="4" fill="#377E29"/>
  <rect x="88" y="104" width="4" height="4" fill="#967415"/>
  <rect x="92" y="104" width="4" height="4" fill="#967415"/>
  <rect x="96" y="104" width="4" height="4" fill="#967415"/>
  <rect x="100" y="104" width="4" height="4" fill="#366715"/>
  <rect x="104" y="104" width="4" height="4" fill="#419227"/>
  <rect x="108" y="104" width="4" height="4" fill="#419227"/>
  <rect x="112" y="104" width="4" height="4" fill="#419227"/>
  <rect x="116" y="104" width="4" height="4" fill="#419227"/>
  <rect x="120" y="104" width="4" height="4" fill="#61A333"/>
  <rect x="124" y="104" width="4" height="4" fill="#61A333"/>
  <rect x="128" y="104" width="4" height="4" fill="#61A333"/>
  <rect x="132" y="104" width="4" height="4" fill="#8CCF5C"/>
  <rect x="136" y="104" width="4" height="4" fill="#419227"/>
  <rect x="140" y="104" width="4" height="4" fill="#419227"/>
  <rect x="40" y="108" width="4" height="4" fill="#419227"/>
  <rect x="44" y="108" width="4" height="4" fill="#419227"/>
  <rect x="48" y="108" width="4" height="4" fill="#8CCF5C"/>
  <rect x="52" y="108" width="4" height="4" fill="#8CCF5C"/>
  <rect x="56" y="108" width="4" height="4" fill="#61A333"/>
  <rect x="60" y="108" width="4" height="4" fill="#61A333"/>
  <rect x="64" y="108" width="4" height="4" fill="#61A333"/>
  <rect x="68" y="108" width="4" height="4" fill="#61A333"/>
  <rect x="72" y="108" width="4" height="4" fill="#419227"/>
  <rect x="76" y="108" width="4" height="4" fill="#419227"/>
  <rect x="80" y="108" width="4" height="4" fill="#366715"/>
  <rect x="84" y="108" width="4" height="4" fill="#366715"/>
  <rect x="88" y="108" width="4" height="4" fill="#8C560E"/>
  <rect x="92" y="108" width="4" height="4" fill="#967415"/>
  <rect x="96" y="108" width="4" height="4" fill="#967415"/>
  <rect x="104" y="108" width="4" height="4" fill="#366715"/>
  <rect x="108" y="108" width="4" height="4" fill="#366715"/>
  <rect x="112" y="108" width="4" height="4" fill="#377E29"/>
  <rect x="116" y="108" width="4" height="4" fill="#377E29"/>
  <rect x="120" y="108" width="4" height="4" fill="#419227"/>
  <rect x="124" y="108" width="4" height="4" fill="#419227"/>
  <rect x="128" y="108" width="4" height="4" fill="#419227"/>
  <rect x="132" y="108" width="4" height="4" fill="#61A333"/>
  <rect x="136" y="108" width="4" height="4" fill="#377E29"/>
  <rect x="140" y="108" width="4" height="4" fill="#377E29"/>
  <rect x="40" y="112" width="4" height="4" fill="#419227"/>
  <rect x="44" y="112" width="4" height="4" fill="#419227"/>
  <rect x="48" y="112" width="4" height="4" fill="#8CCF5C"/>
  <rect x="52" y="112" width="4" height="4" fill="#8CCF5C"/>
  <rect x="56" y="112" width="4" height="4" fill="#61A333"/>
  <rect x="60" y="112" width="4" height="4" fill="#61A333"/>
  <rect x="64" y="112" width="4" height="4" fill="#61A333"/>
  <rect x="68" y="112" width="4" height="4" fill="#61A333"/>
  <rect x="72" y="112" width="4" height="4" fill="#419227"/>
  <rect x="76" y="112" width="4" height="4" fill="#419227"/>
  <rect x="80" y="112" width="4" height="4" fill="#366715"/>
  <rect x="84" y="112" width="4" height="4" fill="#366715"/>
  <rect x="88" y="112" width="4" height="4" fill="#8C560E"/>
  <rect x="92" y="112" width="4" height="4" fill="#967415"/>
  <rect x="96" y="112" width="4" height="4" fill="#967415"/>
  <rect x="104" y="112" width="4" height="4" fill="#366715"/>
  <rect x="108" y="112" width="4" height="4" fill="#366715"/>
  <rect x="112" y="112" width="4" height="4" fill="#377E29"/>
  <rect x="116" y="112" width="4" height="4" fill="#377E29"/>
  <rect x="120" y="112" width="4" height="4" fill="#419227"/>
  <rect x="124" y="112" width="4" height="4" fill="#419227"/>
  <rect x="128" y="112" width="4" height="4" fill="#419227"/>
  <rect x="132" y="112" width="4" height="4" fill="#61A333"/>
  <rect x="136" y="112" width="4" height="4" fill="#377E29"/>
  <rect x="140" y="112" width="4" height="4" fill="#377E29"/>
  <rect x="40" y="116" width="4" height="4" fill="#377E29"/>
  <rect x="44" y="116" width="4" height="4" fill="#377E29"/>
  <rect x="48" y="116" width="4" height="4" fill="#61A333"/>
  <rect x="52" y="116" width="4" height="4" fill="#61A333"/>
  <rect x="56" y="116" width="4" height="4" fill="#419227"/>
  <rect x="60" y="116" width="4" height="4" fill="#419227"/>
  <rect x="64" y="116" width="4" height="4" fill="#419227"/>
  <rect x="68" y="116" width="4" height="4" fill="#419227"/>
  <rect x="72" y="116" width="4" height="4" fill="#366715"/>
  <rect x="76" y="116" width="4" height="4" fill="#366715"/>
  <rect x="80" y="116" width="4" height="4" fill="#F6FBFC"/>
  <rect x="84" y="116" width="4" height="4" fill="#F6FBFC"/>
  <rect x="88" y="116" width="4" height="4" fill="#967415"/>
  <rect x="92" y="116" width="4" height="4" fill="#967415"/>
  <rect x="96" y="116" width="4" height="4" fill="#967415"/>
  <rect x="120" y="116" width="4" height="4" fill="#366715"/>
  <rect x="124" y="116" width="4" height="4" fill="#366715"/>
  <rect x="128" y="116" width="4" height="4" fill="#366715"/>
  <rect x="132" y="116" width="4" height="4" fill="#366715"/>
  <rect x="136" y="116" width="4" height="4" fill="#377E29"/>
  <rect x="140" y="116" width="4" height="4" fill="#377E29"/>
  <rect x="40" y="120" width="4" height="4" fill="#377E29"/>
  <rect x="44" y="120" width="4" height="4" fill="#377E29"/>
  <rect x="48" y="120" width="4" height="4" fill="#377E29"/>
  <rect x="52" y="120" width="4" height="4" fill="#377E29"/>
  <rect x="56" y="120" width="4" height="4" fill="#366715"/>
  <rect x="60" y="120" width="4" height="4" fill="#366715"/>
  <rect x="64" y="120" width="4" height="4" fill="#366715"/>
  <rect x="68" y="120" width="4" height="4" fill="#366715"/>
  <rect x="80" y="120" width="4" height="4" fill="#BDF596"/>
  <rect x="84" y="120" width="4" height="4" fill="#BDF596"/>
  <rect x="88" y="120" width="4" height="4" fill="#8C560E"/>
  <rect x="92" y="120" width="4" height="4" fill="#967415"/>
  <rect x="96" y="120" width="4" height="4" fill="#967415"/>
  <rect x="40" y="124" width="4" height="4" fill="#377E29"/>
  <rect x="44" y="124" width="4" height="4" fill="#377E29"/>
  <rect x="48" y="124" width="4" height="4" fill="#377E29"/>
  <rect x="52" y="124" width="4" height="4" fill="#377E29"/>
  <rect x="56" y="124" width="4" height="4" fill="#366715"/>
  <rect x="60" y="124" width="4" height="4" fill="#366715"/>
  <rect x="64" y="124" width="4" height="4" fill="#366715"/>
  <rect x="68" y="124" width="4" height="4" fill="#366715"/>
  <rect x="80" y="124" width="4" height="4" fill="#BDF596"/>
  <rect x="84" y="124" width="4" height="4" fill="#BDF596"/>
  <rect x="88" y="124" width="4" height="4" fill="#8C560E"/>
  <rect x="92" y="124" width="4" height="4" fill="#967415"/>
  <rect x="96" y="124" width="4" height="4" fill="#967415"/>
  <rect x="80" y="128" width="4" height="4" fill="#B1F085"/>
  <rect x="84" y="128" width="4" height="4" fill="#B1F085"/>
  <rect x="88" y="128" width="4" height="4" fill="#B1F085"/>
  <rect x="92" y="128" width="4" height="4" fill="#8C560E"/>
  <rect x="96" y="128" width="4" height="4" fill="#8C560E"/>
  <rect x="100" y="128" width="4" height="4" fill="#7A3C05"/>
  <rect x="104" y="128" width="4" height="4" fill="#377E29"/>
  <rect x="108" y="128" width="4" height="4" fill="#377E29"/>
  <rect x="112" y="128" width="4" height="4" fill="#419227"/>
  <rect x="116" y="128" width="4" height="4" fill="#419227"/>
  <rect x="120" y="128" width="4" height="4" fill="#419227"/>
  <rect x="80" y="132" width="4" height="4" fill="#B1F085"/>
  <rect x="84" y="132" width="4" height="4" fill="#B1F085"/>
  <rect x="88" y="132" width="4" height="4" fill="#B1F085"/>
  <rect x="92" y="132" width="4" height="4" fill="#8C560E"/>
  <rect x="96" y="132" width="4" height="4" fill="#8C560E"/>
  <rect x="100" y="132" width="4" height="4" fill="#7A3C05"/>
  <rect x="104" y="132" width="4" height="4" fill="#377E29"/>
  <rect x="108" y="132" width="4" height="4" fill="#377E29"/>
  <rect x="112" y="132" width="4" height="4" fill="#419227"/>
  <rect x="116" y="132" width="4" height="4" fill="#419227"/>
  <rect x="120" y="132" width="4" height="4" fill="#419227"/>
  <rect x="60" y="136" width="4" height="4" fill="#419227"/>
  <rect x="64" y="136" width="4" height="4" fill="#419227"/>
  <rect x="68" y="136" width="4" height="4" fill="#419227"/>
  <rect x="72" y="136" width="4" height="4" fill="#377E29"/>
  <rect x="76" y="136" width="4" height="4" fill="#377E29"/>
  <rect x="80" y="136" width="4" height="4" fill="#7A3C05"/>
  <rect x="84" y="136" width="4" height="4" fill="#7A3C05"/>
  <rect x="88" y="136" width="4" height="4" fill="#8C560E"/>
  <rect x="92" y="136" width="4" height="4" fill="#8C560E"/>
  <rect x="96" y="136" width="4" height="4" fill="#8C560E"/>
  <rect x="100" y="136" width="4" height="4" fill="#BDF596"/>
  <rect x="104" y="136" width="4" height="4" fill="#61A333"/>
  <rect x="108" y="136" width="4" height="4" fill="#61A333"/>
  <rect x="112" y="136" width="4" height="4" fill="#8CCF5C"/>
  <rect x="116" y="136" width="4" height="4" fill="#8CCF5C"/>
  <rect x="120" y="136" width="4" height="4" fill="#8CCF5C"/>
  <rect x="124" y="136" width="4" height="4" fill="#419227"/>
  <rect x="128" y="136" width="4" height="4" fill="#419227"/>
  <rect x="56" y="140" width="4" height="4" fill="#419227"/>
  <rect x="60" y="140" width="4" height="4" fill="#8CCF5C"/>
  <rect x="64" y="140" width="4" height="4" fill="#8CCF5C"/>
  <rect x="68" y="140" width="4" height="4" fill="#8CCF5C"/>
  <rect x="72" y="140" width="4" height="4" fill="#61A333"/>
  <rect x="76" y="140" width="4" height="4" fill="#61A333"/>
  <rect x="80" y="140" width="4" height="4" fill="#377E29"/>
  <rect x="84" y="140" width="4" height="4" fill="#377E29"/>
  <rect x="88" y="140" width="4" height="4" fill="#7A3C05"/>
  <rect x="92" y="140" width="4" height="4" fill="#B1F085"/>
  <rect x="96" y="140" width="4" height="4" fill="#B1F085"/>
  <rect x="100" y="140" width="4" height="4" fill="#B1F085"/>
  <rect x="104" y="140" width="4" height="4" fill="#61A333"/>
  <rect x="108" y="140" width="4" height="4" fill="#61A333"/>
  <rect x="112" y="140" width="4" height="4" fill="#61A333"/>
  <rect x="116" y="140" width="4" height="4" fill="#61A333"/>
  <rect x="120" y="140" width="4" height="4" fill="#61A333"/>
  <rect x="124" y="140" width="4" height="4" fill="#8CCF5C"/>
  <rect x="128" y="140" width="4" height="4" fill="#8CCF5C"/>
  <rect x="132" y="140" width="4" height="4" fill="#419227"/>
  <rect x="56" y="144" width="4" height="4" fill="#419227"/>
  <rect x="60" y="144" width="4" height="4" fill="#8CCF5C"/>
  <rect x="64" y="144" width="4" height="4" fill="#8CCF5C"/>
  <rect x="68" y="144" width="4" height="4" fill="#8CCF5C"/>
  <rect x="72" y="144" width="4" height="4" fill="#61A333"/>
  <rect x="76" y="144" width="4" height="4" fill="#61A333"/>
  <rect x="80" y="144" width="4" height="4" fill="#377E29"/>
  <rect x="84" y="144" width="4" height="4" fill="#377E29"/>
  <rect x="88" y="144" width="4" height="4" fill="#7A3C05"/>
  <rect x="92" y="144" width="4" height="4" fill="#B1F085"/>
  <rect x="96" y="144" width="4" height="4" fill="#B1F085"/>
  <rect x="100" y="144" width="4" height="4" fill="#B1F085"/>
  <rect x="104" y="144" width="4" height="4" fill="#61A333"/>
  <rect x="108" y="144" width="4" height="4" fill="#61A333"/>
  <rect x="112" y="144" width="4" height="4" fill="#61A333"/>
  <rect x="116" y="144" width="4" height="4" fill="#61A333"/>
  <rect x="120" y="144" width="4" height="4" fill="#61A333"/>
  <rect x="124" y="144" width="4" height="4" fill="#8CCF5C"/>
  <rect x="128" y="144" width="4" height="4" fill="#8CCF5C"/>
  <rect x="132" y="144" width="4" height="4" fill="#419227"/>
  <rect x="48" y="148" width="4" height="4" fill="#419227"/>
  <rect x="52" y="148" width="4" height="4" fill="#419227"/>
  <rect x="56" y="148" width="4" height="4" fill="#8CCF5C"/>
  <rect x="60" y="148" width="4" height="4" fill="#61A333"/>
  <rect x="64" y="148" width="4" height="4" fill="#61A333"/>
  <rect x="68" y="148" width="4" height="4" fill="#61A333"/>
  <rect x="72" y="148" width="4" height="4" fill="#419227"/>
  <rect x="76" y="148" width="4" height="4" fill="#419227"/>
  <rect x="80" y="148" width="4" height="4" fill="#377E29"/>
  <rect x="84" y="148" width="4" height="4" fill="#377E29"/>
  <rect x="88" y="148" width="4" height="4" fill="#8C560E"/>
  <rect x="92" y="148" width="4" height="4" fill="#8C560E"/>
  <rect x="96" y="148" width="4" height="4" fill="#8C560E"/>
  <rect x="100" y="148" width="4" height="4" fill="#366715"/>
  <rect x="104" y="148" width="4" height="4" fill="#419227"/>
  <rect x="108" y="148" width="4" height="4" fill="#419227"/>
  <rect x="112" y="148" width="4" height="4" fill="#419227"/>
  <rect x="116" y="148" width="4" height="4" fill="#419227"/>
  <rect x="120" y="148" width="4" height="4" fill="#61A333"/>
  <rect x="124" y="148" width="4" height="4" fill="#61A333"/>
  <rect x="128" y="148" width="4" height="4" fill="#61A333"/>
  <rect x="132" y="148" width="4" height="4" fill="#377E29"/>
  <rect x="48" y="152" width="4" height="4" fill="#419227"/>
  <rect x="52" y="152" width="4" height="4" fill="#419227"/>
  <rect x="56" y="152" width="4" height="4" fill="#61A333"/>
  <rect x="60" y="152" width="4" height="4" fill="#419227"/>
  <rect x="64" y="152" width="4" height="4" fill="#419227"/>
  <rect x="68" y="152" width="4" height="4" fill="#419227"/>
  <rect x="72" y="152" width="4" height="4" fill="#419227"/>
  <rect x="76" y="152" width="4" height="4" fill="#419227"/>
  <rect x="80" y="152" width="4" height="4" fill="#366715"/>
  <rect x="84" y="152" width="4" height="4" fill="#366715"/>
  <rect x="88" y="152" width="4" height="4" fill="#7A3C05"/>
  <rect x="92" y="152" width="4" height="4" fill="#8C560E"/>
  <rect x="96" y="152" width="4" height="4" fill="#8C560E"/>
  <rect x="104" y="152" width="4" height="4" fill="#366715"/>
  <rect x="108" y="152" width="4" height="4" fill="#366715"/>
  <rect x="112" y="152" width="4" height="4" fill="#377E29"/>
  <rect x="116" y="152" width="4" height="4" fill="#377E29"/>
  <rect x="120" y="152" width="4" height="4" fill="#419227"/>
  <rect x="124" y="152" width="4" height="4" fill="#61A333"/>
  <rect x="128" y="152" width="4" height="4" fill="#61A333"/>
  <rect x="132" y="152" width="4" height="4" fill="#8CCF5C"/>
  <rect x="136" y="152" width="4" height="4" fill="#419227"/>
  <rect x="140" y="152" width="4" height="4" fill="#419227"/>
  <rect x="48" y="156" width="4" height="4" fill="#419227"/>
  <rect x="52" y="156" width="4" height="4" fill="#419227"/>
  <rect x="56" y="156" width="4" height="4" fill="#61A333"/>
  <rect x="60" y="156" width="4" height="4" fill="#419227"/>
  <rect x="64" y="156" width="4" height="4" fill="#419227"/>
  <rect x="68" y="156" width="4" height="4" fill="#419227"/>
  <rect x="72" y="156" width="4" height="4" fill="#419227"/>
  <rect x="76" y="156" width="4" height="4" fill="#419227"/>
  <rect x="80" y="156" width="4" height="4" fill="#366715"/>
  <rect x="84" y="156" width="4" height="4" fill="#366715"/>
  <rect x="88" y="156" width="4" height="4" fill="#7A3C05"/>
  <rect x="92" y="156" width="4" height="4" fill="#8C560E"/>
  <rect x="96" y="156" width="4" height="4" fill="#8C560E"/>
  <rect x="104" y="156" width="4" height="4" fill="#366715"/>
  <rect x="108" y="156" width="4" height="4" fill="#366715"/>
  <rect x="112" y="156" width="4" height="4" fill="#377E29"/>
  <rect x="116" y="156" width="4" height="4" fill="#377E29"/>
  <rect x="120" y="156" width="4" height="4" fill="#419227"/>
  <rect x="124" y="156" width="4" height="4" fill="#61A333"/>
  <rect x="128" y="156" width="4" height="4" fill="#61A333"/>
  <rect x="132" y="156" width="4" height="4" fill="#8CCF5C"/>
  <rect x="136" y="156" width="4" height="4" fill="#419227"/>
  <rect x="140" y="156" width="4" height="4" fill="#419227"/>
  <rect x="40" y="160" width="4" height="4" fill="#419227"/>
  <rect x="44" y="160" width="4" height="4" fill="#419227"/>
  <rect x="48" y="160" width="4" height="4" fill="#8CCF5C"/>
  <rect x="52" y="160" width="4" height="4" fill="#8CCF5C"/>
  <rect x="56" y="160" width="4" height="4" fill="#61A333"/>
  <rect x="60" y="160" width="4" height="4" fill="#377E29"/>
  <rect x="64" y="160" width="4" height="4" fill="#377E29"/>
  <rect x="68" y="160" width="4" height="4" fill="#366715"/>
  <rect x="72" y="160" width="4" height="4" fill="#366715"/>
  <rect x="76" y="160" width="4" height="4" fill="#366715"/>
  <rect x="88" y="160" width="4" height="4" fill="#7A3C05"/>
  <rect x="92" y="160" width="4" height="4" fill="#8C560E"/>
  <rect x="96" y="160" width="4" height="4" fill="#8C560E"/>
  <rect x="120" y="160" width="4" height="4" fill="#366715"/>
  <rect x="124" y="160" width="4" height="4" fill="#366715"/>
  <rect x="128" y="160" width="4" height="4" fill="#366715"/>
  <rect x="132" y="160" width="4" height="4" fill="#377E29"/>
  <rect x="136" y="160" width="4" height="4" fill="#377E29"/>
  <rect x="140" y="160" width="4" height="4" fill="#377E29"/>
  <rect x="40" y="164" width="4" height="4" fill="#419227"/>
  <rect x="44" y="164" width="4" height="4" fill="#419227"/>
  <rect x="48" y="164" width="4" height="4" fill="#8CCF5C"/>
  <rect x="52" y="164" width="4" height="4" fill="#8CCF5C"/>
  <rect x="56" y="164" width="4" height="4" fill="#61A333"/>
  <rect x="60" y="164" width="4" height="4" fill="#377E29"/>
  <rect x="64" y="164" width="4" height="4" fill="#377E29"/>
  <rect x="68" y="164" width="4" height="4" fill="#366715"/>
  <rect x="72" y="164" width="4" height="4" fill="#366715"/>
  <rect x="76" y="164" width="4" height="4" fill="#366715"/>
  <rect x="88" y="164" width="4" height="4" fill="#7A3C05"/>
  <rect x="92" y="164" width="4" height="4" fill="#8C560E"/>
  <rect x="96" y="164" width="4" height="4" fill="#8C560E"/>
  <rect x="120" y="164" width="4" height="4" fill="#366715"/>
  <rect x="124" y="164" width="4" height="4" fill="#366715"/>
  <rect x="128" y="164" width="4" height="4" fill="#366715"/>
  <rect x="132" y="164" width="4" height="4" fill="#377E29"/>
  <rect x="136" y="164" width="4" height="4" fill="#377E29"/>
  <rect x="140" y="164" width="4" height="4" fill="#377E29"/>
  <rect x="40" y="168" width="4" height="4" fill="#377E29"/>
  <rect x="44" y="168" width="4" height="4" fill="#377E29"/>
  <rect x="48" y="168" width="4" height="4" fill="#377E29"/>
  <rect x="52" y="168" width="4" height="4" fill="#377E29"/>
  <rect x="56" y="168" width="4" height="4" fill="#366715"/>
  <rect x="88" y="168" width="4" height="4" fill="#7A3C05"/>
  <rect x="92" y="168" width="4" height="4" fill="#7A3C05"/>
  <rect x="96" y="168" width="4" height="4" fill="#7A3C05"/>
  <rect x="88" y="172" width="4" height="4" fill="#7A3C05"/>
  <rect x="92" y="172" width="4" height="4" fill="#7A3C05"/>
  <rect x="96" y="172" width="4" height="4" fill="#7A3C05"/>
  <rect x="88" y="176" width="4" height="4" fill="#7A3C05"/>
  <rect x="92" y="176" width="4" height="4" fill="#7A3C05"/>
  <rect x="96" y="176" width="4" height="4" fill="#7A3C05"/>
  <rect x="88" y="180" width="4" height="4" fill="#7A3C05"/>
  <rect x="92" y="180" width="4" height="4" fill="#7A3C05"/>
  <rect x="96" y="180" width="4" height="4" fill="#7A3C05"/>
  <rect x="100" y="180" width="4" height="4" fill="#E4F5F6"/>
  <rect x="88" y="184" width="4" height="4" fill="#7A3C05"/>
  <rect x="92" y="184" width="4" height="4" fill="#7A3C05"/>
  <rect x="96" y="184" width="4" height="4" fill="#7A3C05"/>
  <rect x="88" y="188" width="4" height="4" fill="#7A3C05"/>
  <rect x="92" y="188" width="4" height="4" fill="#7A3C05"/>
  <rect x="96" y="188" width="4" height="4" fill="#7A3C05"/>
</svg>
