<?xml version="1.0" encoding="UTF-8"?>
<svg xmlns="http://www.w3.org/2000/svg" width="192" height="192" viewBox="0 0 192 192">
  <rect x="76" y="108" width="4" height="4" fill="#377E29"/>
  <rect x="80" y="108" width="4" height="4" fill="#377E29"/>
  <rect x="84" y="108" width="4" height="4" fill="#377E29"/>
  <rect x="76" y="112" width="4" height="4" fill="#377E29"/>
  <rect x="80" y="112" width="4" height="4" fill="#377E29"/>
  <rect x="84" y="112" width="4" height="4" fill="#377E29"/>
  <rect x="72" y="116" width="4" height="4" fill="#377E29"/>
  <rect x="76" y="116" width="4" height="4" fill="#8CCF5C"/>
  <rect x="80" y="116" width="4" height="4" fill="#8CCF5C"/>
  <rect x="84" y="116" width="4" height="4" fill="#61A333"/>
  <rect x="88" y="116" width="4" height="4" fill="#366715"/>
  <rect x="92" y="116" width="4" height="4" fill="#366715"/>
  <rect x="72" y="120" width="4" height="4" fill="#377E29"/>
  <rect x="76" y="120" width="4" height="4" fill="#61A333"/>
  <rect x="80" y="120" width="4" height="4" fill="#61A333"/>
  <rect x="84" y="120" width="4" height="4" fill="#419227"/>
  <rect x="88" y="120" width="4" height="4" fill="#377E29"/>
  <rect x="92" y="120" width="4" height="4" fill="#377E29"/>
  <rect x="96" y="120" width="4" height="4" fill="#419227"/>
  <rect x="100" y="120" width="4" height="4" fill="#419227"/>
  <rect x="104" y="120" width="4" height="4" fill="#419227"/>
  <rect x="72" y="124" width="4" height="4" fill="#377E29"/>
  <rect x="76" y="124" width="4" height="4" fill="#61A333"/>
  <rect x="80" y="124" width="4" height="4" fill="#61A333"/>
  <rect x="84" y="124" width="4" height="4" fill="#419227"/>
  <rect x="88" y="124" width="4" height="4" fill="#377E29"/>
  <rect x="92" y="124" width="4" height="4" fill="#377E29"/>
  <rect x="96" y="124" width="4" height="4" fill="#419227"/>
  <rect x="100" y="124" width="4" height="4" fill="#419227"/>
  <rect x="104" y="124" width="4" height="4" fill="#419227"/>
  <rect x="72" y="128" width="4" height="4" fill="#377E29"/>
  <rect x="76" y="128" width="4" height="4" fill="#377E29"/>
  <rect x="80" y="128" width="4" height="4" fill="#377E29"/>
  <rect x="84" y="128" width="4" height="4" fill="#377E29"/>
  <rect x="88" y="128" width="4" height="4" fill="#366715"/>
  <rect x="92" y="128" width="4" height="4" fill="#366715"/>
  <rect x="96" y="128" width="4" height="4" fill="#61A333"/>
  <rect x="100" y="128" width="4" height="4" fill="#61A333"/>
  <rect x="104" y="128" width="4" height="4" fill="#8CCF5C"/>
  <rect x="108" y="128" width="4" height="4" fill="#419227"/>
  <rect x="112" y="128" width="4" height="4" fill="#419227"/>
  <rect x="72" y="132" width="4" height="4" fill="#377E29"/>
  <rect x="76" y="132" width="4" height="4" fill="#377E29"/>
  <rect x="80" y="132" width="4" height="4" fill="#377E29"/>
  <rect x="84" y="132" width="4" height="4" fill="#377E29"/>
  <rect x="88" y="132" width="4" height="4" fill="#366715"/>
  <rect x="92" y="132" width="4" height="4" fill="#366715"/>
  <rect x="96" y="132" width="4" height="4" fill="#61A333"/>
  <rect x="100" y="132" width="4" height="4" fill="#61A333"/>
  <rect x="104" y="132" width="4" height="4" fill="#8CCF5C"/>
  <rect x="108" y="132" width="4" height="4" fill="#419227"/>
  <rect x="112" y="132" width="4" height="4" fill="#419227"/>
  <rect x="76" y="136" width="4" height="4" fill="#366715"/>
  <rect x="80" y="136" width="4" height="4" fill="#366715"/>
  <rect x="84" y="136" width="4" height="4" fill="#366715"/>
  <rect x="88" y="136" width="4" height="4" fill="#366715"/>
  <rect x="92" y="136" width="4" height="4" fill="#366715"/>
  <rect x="96" y="136" width="4" height="4" fill="#419227"/>
  <rect x="100" y="136" width="4" height="4" fill="#419227"/>
  <rect x="104" y="136" width="4" height="4" fill="#61A333"/>
  <rect x="108" y="136" width="4" height="4" fill="#419227"/>
  <rect x="112" y="136" width="4" height="4" fill="#419227"/>
  <rect x="72" y="140" width="4" height="4" fill="#366715"/>
  <rect x="76" y="140" width="4" height="4" fill="#61A333"/>
  <rect x="80" y="140" width="4" height="4" fill="#61A333"/>
  <rect x="84" y="140" width="4" height="4" fill="#366715"/>
  <rect x="88" y="140" width="4" height="4" fill="#377E29"/>
  <rect x="92" y="140" width="4" height="4" fill="#377E29"/>
  <rect x="96" y="140" width="4" height="4" fill="#366715"/>
  <rect x="100" y="140" width="4" height="4" fill="#366715"/>
  <rect x="104" y="140" width="4" height="4" fill="#366715"/>
  <rect x="108" y="140" width="4" height="4" fill="#366715"/>
  <rect x="112" y="140" width="4" height="4" fill="#366715"/>
  <rect x="72" y="144" width="4" height="4" fill="#366715"/>
  <rect x="76" y="144" width="4" height="4" fill="#61A333"/>
  <rect x="80" y="144" width="4" height="4" fill="#61A333"/>
  <rect x="84" y="144" width="4" height="4" fill="#366715"/>
  <rect x="88" y="144" width="4" height="4" fill="#377E29"/>
  <rect x="92" y="144" width="4" height="4" fill="#377E29"/>
  <rect x="96" y="144" width="4" height="4" fill="#366715"/>
  <rect x="100" y="144" width="4" height="4" fill="#366715"/>
  <rect x="104" y="144" width="4" height="4" fill="#366715"/>
  <rect x="108" y="144" width="4" height="4" fill="#366715"/>
  <rect x="112" y="144" width="4" height="4" fill="#366715"/>
  <rect x="72" y="148" width="4" height="4" fill="#366715"/>
  <rect x="76" y="148" width="4" height="4" fill="#366715"/>
  <rect x="80" y="148" width="4" height="4" fill="#366715"/>
  <rect x="84" y="148" width="4" height="4" fill="#8C560E"/>
  <rect x="88" y="148" width="4" height="4" fill="#366715"/>
  <rect x="92" y="148" width="4" height="4" fill="#366715"/>
  <rect x="96" y="148" width="4" height="4" fill="#366715"/>
  <rect x="100" y="148" width="4" height="4" fill="#366715"/>
  <rect x="76" y="152" width="4" height="4" fill="#377E29"/>
  <rect x="80" y="152" width="4" height="4" fill="#377E29"/>
  <rect x="84" y="152" width="4" height="4" fill="#8C560E"/>
  <rect x="88" y="152" width="4" height="4" fill="#967415"/>
  <rect x="92" y="152" width="4" height="4" fill="#967415"/>
  <rect x="76" y="156" width="4" height="4" fill="#377E29"/>
  <rect x="80" y="156" width="4" height="4" fill="#377E29"/>
  <rect x="84" y="156" width="4" height="4" fill="#8C560E"/>
  <rect x="88" y="156" width="4" height="4" fill="#967415"/>
  <rect x="92" y="156" width="4" height="4" fill="#967415"/>
  <rect x="72" y="160" width="4" height="4" fill="#377E29"/>
  <rect x="76" y="160" width="4" height="4" fill="#61A333"/>
  <rect x="80" y="160" width="4" height="4" fill="#61A333"/>
  <rect x="84" y="160" width="4" height="4" fill="#366715"/>
  <rect x="88" y="160" width="4" height="4" fill="#8C560E"/>
  <rect x="92" y="160" width="4" height="4" fill="#8C560E"/>
  <rect x="96" y="160" width="4" height="4" fill="#7A3C05"/>
  <rect x="100" y="160" width="4" height="4" fill="#7A3C05"/>
  <rect x="104" y="160" width="4" height="4" fill="#377E29"/>
  <rect x="72" y="164" width="4" height="4" fill="#377E29"/>
  <rect x="76" y="164" width="4" height="4" fill="#61A333"/>
  <rect x="80" y="164" width="4" height="4" fill="#61A333"/>
  <rect x="84" y="164" width="4" height="4" fill="#366715"/>
  <rect x="88" y="164" width="4" height="4" fill="#8C560E"/>
  <rect x="92" y="164" width="4" height="4" fill="#8C560E"/>
  <rect x="96" y="164" width="4" height="4" fill="#7A3C05"/>
  <rect x="100" y="164" width="4" height="4" fill="#7A3C05"/>
  <rect x="104" y="164" width="4" height="4" fill="#377E29"/>
  <rect x="72" y="168" width="4" height="4" fill="#366715"/>
  <rect x="76" y="168" width="4" height="4" fill="#366715"/>
  <rect x="80" y="168" width="4" height="4" fill="#366715"/>
  <rect x="84" y="168" width="4" height="4" fill="#8C560E"/>
  <rect x="88" y="168" width="4" height="4" fill="#8C560E"/>
  <rect x="92" y="168" width="4" height="4" fill="#8C560E"/>
  <rect x="96" y="168" width="4" height="4" fill="#366715"/>
  <rect x="100" y="168" width="4" height="4" fill="#366715"/>
  <rect x="104" y="168" width="4" height="4" fill="#61A333"/>
  <rect x="108" y="168" width="4" height="4" fill="#366715"/>
  <rect x="112" y="168" width="4" height="4" fill="#366715"/>
  <rect x="84" y="172" width="4" height="4" fill="#377E29"/>
  <rect x="88" y="172" width="4" height="4" fill="#8C560E"/>
  <rect x="92" y="172" width="4" height="4" fill="#8C560E"/>
  <rect x="104" y="172" width="4" height="4" fill="#366715"/>
  <rect x="108" y="172" width="4" height="4" fill="#366715"/>
  <rect x="112" y="172" width="4" height="4" fill="#366715"/>
  <rect x="84" y="176" width="4" height="4" fill="#377E29"/>
  <rect x="88" y="176" width="4" height="4" fill="#8C560E"/>
  <rect x="92" y="176" width="4" height="4" fill="#8C560E"/>
  <rect x="104" y="176" width="4" height="4" fill="#366715"/>
  <rect x="108" y="176" width="4" height="4" fill="#366715"/>
  <rect x="112" y="176" width="4" height="4" fill="#366715"/>
  <rect x="76" y="180" width="4" height="4" fill="#377E29"/>
  <rect x="80" y="180" width="4" height="4" fill="#377E29"/>
  <rect x="84" y="180" width="4" height="4" fill="#61A333"/>
  <rect x="88" y="180" width="4" height="4" fill="#377E29"/>
  <rect x="92" y="180" width="4" height="4" fill="#377E29"/>
  <rect x="96" y="180" width="4" height="4" fill="#E4F5F6"/>
  <rect x="100" y="180" width="4" height="4" fill="#E4F5F6"/>
  <rect x="76" y="184" width="4" height="4" fill="#366715"/>
  <rect x="80" y="184" width="4" height="4" fill="#366715"/>
  <rect x="84" y="184" width="4" height="4" fill="#366715"/>
  <rect x="88" y="184" width="4" height="4" fill="#7A3C05"/>
  <rect x="92" y="184" width="4" height="4" fill="#7A3C05"/>
  <rect x="76" y="188" width="4" height="4" fill="#366715"/>
  <rect x="80" y="188" width="4" height="4" fill="#366715"/>
  <rect x="84" y="188" width="4" height="4" fill="#366715"/>
  <rect x="88" y="188" width="4" height="4" fill="#7A3C05"/>
  <rect x="92" y="188" width="4" height="4" fill="#7A3C05"/>
</svg>
