<?xml version="1.0" encoding="UTF-8"?>
<svg xmlns="http://www.w3.org/2000/svg" width="128" height="128" viewBox="0 0 128 128">
  <rect x="64" y="28" width="4" height="4" fill="#010101"/>
  <rect x="68" y="28" width="4" height="4" fill="#010101"/>
  <rect x="60" y="32" width="4" height="4" fill="#010101"/>
  <rect x="64" y="32" width="4" height="4" fill="#010101"/>
  <rect x="68" y="32" width="4" height="4" fill="#010101"/>
  <rect x="72" y="32" width="4" height="4" fill="#010101"/>
  <rect x="60" y="36" width="4" height="4" fill="#010101"/>
  <rect x="68" y="36" width="4" height="4" fill="#FEFEFE"/>
  <rect x="72" y="36" width="4" height="4" fill="#010101"/>
  <rect x="56" y="40" width="4" height="4" fill="#010101"/>
  <rect x="60" y="40" width="4" height="4" fill="#010101"/>
  <rect x="64" y="40" width="4" height="4" fill="#FEFEFE"/>
  <rect x="72" y="40" width="4" height="4" fill="#010101"/>
  <rect x="76" y="40" width="4" height="4" fill="#010101"/>
  <rect x="56" y="44" width="4" height="4" fill="#010101"/>
  <rect x="64" y="44" width="4" height="4" fill="#FEFEFE"/>
  <rect x="76" y="44" width="4" height="4" fill="#010101"/>
  <rect x="80" y="44" width="4" height="4" fill="#010101"/>
  <rect x="56" y="48" width="4" height="4" fill="#010101"/>
  <rect x="64" y="48" width="4" height="4" fill="#FEFEFE"/>
  <rect x="68" y="48" width="4" height="4" fill="#FEFEFE"/>
  <rect x="72" y="48" width="4" height="4" fill="#FEFEFE"/>
  <rect x="76" y="48" width="4" height="4" fill="#FEFEFE"/>
  <rect x="84" y="48" width="4" height="4" fill="#010101"/>
  <rect x="52" y="52" width="4" height="4" fill="#010101"/>
  <rect x="64" y="52" width="4" height="4" fill="#FEFEFE"/>
  <rect x="68" y="52" width="4" height="4" fill="#FEFEFE"/>
  <rect x="76" y="52" width="4" height="4" fill="#FEFEFE"/>
  <rect x="84" y="52" width="4" height="4" fill="#010101"/>
  <rect x="88" y="52" width="4" height="4" fill="#010101"/>
  <rect x="52" y="56" width="4" height="4" fill="#010101"/>
  <rect x="60" y="56" width="4" height="4" fill="#FEFEFE"/>
  <rect x="64" y="56" width="4" height="4" fill="#FEFEFE"/>
  <rect x="68" y="56" width="4" height="4" fill="#FEFEFE"/>
  <rect x="72" y="56" width="4" height="4" fill="#FEFEFE"/>
  <rect x="76" y="56" width="4" height="4" fill="#FEFEFE"/>
  <rect x="88" y="56" width="4" height="4" fill="#010101"/>
  <rect x="48" y="60" width="4" height="4" fill="#010101"/>
  <rect x="52" y="60" width="4" height="4" fill="#010101"/>
  <rect x="56" y="60" width="4" height="4" fill="#FEFEFE"/>
  <rect x="60" y="60" width="4" height="4" fill="#FEFEFE"/>
  <rect x="64" y="60" width="4" height="4" fill="#FEFEFE"/>
  <rect x="68" y="60" width="4" height="4" fill="#FEFEFE"/>
  <rect x="72" y="60" width="4" height="4" fill="#FEFEFE"/>
  <rect x="76" y="60" width="4" height="4" fill="#FEFEFE"/>
  <rect x="80" y="60" width="4" height="4" fill="#FEFEFE"/>
  <rect x="88" y="60" width="4" height="4" fill="#010101"/>
  <rect x="92" y="60" width="4" height="4" fill="#010101"/>
  <rect x="48" y="64" width="4" height="4" fill="#010101"/>
  <rect x="56" y="64" width="4" height="4" fill="#FEFEFE"/>
  <rect x="60" y="64" width="4" height="4" fill="#FEFEFE"/>
  <rect x="64" y="64" width="4" height="4" fill="#FEFEFE"/>
  <rect x="68" y="64" width="4" height="4" fill="#FEFEFE"/>
  <rect x="72" y="64" width="4" height="4" fill="#FEFEFE"/>
  <rect x="76" y="64" width="4" height="4" fill="#FEFEFE"/>
  <rect x="80" y="64" width="4" height="4" fill="#FEFEFE"/>
  <rect x="84" y="64" width="4" height="4" fill="#FEFEFE"/>
  <rect x="88" y="64" width="4" height="4" fill="#FEFEFE"/>
  <rect x="92" y="64" width="4" height="4" fill="#010101"/>
  <rect x="48" y="68" width="4" height="4" fill="#010101"/>
  <rect x="52" y="68" width="4" height="4" fill="#FEFEFE"/>
  <rect x="56" y="68" width="4" height="4" fill="#FEFEFE"/>
  <rect x="60" y="68" width="4" height="4" fill="#FEFEFE"/>
  <rect x="64" y="68" width="4" height="4" fill="#FEFEFE"/>
  <rect x="68" y="68" width="4" height="4" fill="#FEFEFE"/>
  <rect x="72" y="68" width="4" height="4" fill="#FEFEFE"/>
  <rect x="76" y="68" width="4" height="4" fill="#FEFEFE"/>
  <rect x="80" y="68" width="4" height="4" fill="#FEFEFE"/>
  <rect x="84" y="68" width="4" height="4" fill="#FEFEFE"/>
  <rect x="88" y="68" width="4" height="4" fill="#FEFEFE"/>
  <rect x="92" y="68" width="4" height="4" fill="#010101"/>
  <rect x="44" y="72" width="4" height="4" fill="#010101"/>
  <rect x="48" y="72" width="4" height="4" fill="#010101"/>
  <rect x="52" y="72" width="4" height="4" fill="#FEFEFE"/>
  <rect x="56" y="72" width="4" height="4" fill="#FEFEFE"/>
  <rect x="60" y="72" width="4" height="4" fill="#FEFEFE"/>
  <rect x="64" y="72" width="4" height="4" fill="#FEFEFE"/>
  <rect x="68" y="72" width="4" height="4" fill="#FEFEFE"/>
  <rect x="72" y="72" width="4" height="4" fill="#FEFEFE"/>
  <rect x="76" y="72" width="4" height="4" fill="#FEFEFE"/>
  <rect x="80" y="72" width="4" height="4" fill="#FEFEFE"/>
  <rect x="84" y="72" width="4" height="4" fill="#FEFEFE"/>
  <rect x="88" y="72" width="4" height="4" fill="#FEFEFE"/>
  <rect x="92" y="72" width="4" height="4" fill="#010101"/>
  <rect x="96" y="72" width="4" height="4" fill="#010101"/>
  <rect x="44" y="76" width="4" height="4" fill="#010101"/>
  <rect x="48" y="76" width="4" height="4" fill="#FEFEFE"/>
  <rect x="52" y="76" width="4" height="4" fill="#FEFEFE"/>
  <rect x="60" y="76" width="4" height="4" fill="#FEFEFE"/>
  <rect x="64" y="76" width="4" height="4" fill="#FEFEFE"/>
  <rect x="68" y="76" width="4" height="4" fill="#FEFEFE"/>
  <rect x="72" y="76" width="4" height="4" fill="#FEFEFE"/>
  <rect x="76" y="76" width="4" height="4" fill="#FEFEFE"/>
  <rect x="80" y="76" width="4" height="4" fill="#FEFEFE"/>
  <rect x="84" y="76" width="4" height="4" fill="#FEFEFE"/>
  <rect x="88" y="76" width="4" height="4" fill="#FEFEFE"/>
  <rect x="96" y="76" width="4" height="4" fill="#010101"/>
  <rect x="44" y="80" width="4" height="4" fill="#010101"/>
  <rect x="48" y="80" width="4" height="4" fill="#FEFEFE"/>
  <rect x="52" y="80" width="4" height="4" fill="#FEFEFE"/>
  <rect x="56" y="80" width="4" height="4" fill="#FEFEFE"/>
  <rect x="60" y="80" width="4" height="4" fill="#FEFEFE"/>
  <rect x="64" y="80" width="4" height="4" fill="#FEFEFE"/>
  <rect x="68" y="80" width="4" height="4" fill="#FEFEFE"/>
  <rect x="72" y="80" width="4" height="4" fill="#FEFEFE"/>
  <rect x="76" y="80" width="4" height="4" fill="#FEFEFE"/>
  <rect x="80" y="80" width="4" height="4" fill="#FEFEFE"/>
  <rect x="84" y="80" width="4" height="4" fill="#FEFEFE"/>
  <rect x="96" y="80" width="4" height="4" fill="#010101"/>
  <rect x="40" y="84" width="4" height="4" fill="#010101"/>
  <rect x="44" y="84" width="4" height="4" fill="#010101"/>
  <rect x="96" y="84" width="4" height="4" fill="#010101"/>
  <rect x="100" y="84" width="4" height="4" fill="#010101"/>
  <rect x="40" y="88" width="4" height="4" fill="#010101"/>
  <rect x="44" y="88" width="4" height="4" fill="#010101"/>
  <rect x="48" y="88" width="4" height="4" fill="#010101"/>
  <rect x="52" y="88" width="4" height="4" fill="#010101"/>
  <rect x="56" y="88" width="4" height="4" fill="#010101"/>
  <rect x="60" y="88" width="4" height="4" fill="#010101"/>
  <rect x="64" y="88" width="4" height="4" fill="#010101"/>
  <rect x="68" y="88" width="4" height="4" fill="#010101"/>
  <rect x="72" y="88" width="4" height="4" fill="#010101"/>
  <rect x="76" y="88" width="4" height="4" fill="#010101"/>
  <rect x="80" y="88" width="4" height="4" fill="#010101"/>
  <rect x="84" y="88" width="4" height="4" fill="#010101"/>
  <rect x="88" y="88" width="4" height="4" fill="#010101"/>
  <rect x="92" y="88" width="4" height="4" fill="#010101"/>
  <rect x="96" y="88" width="4" height="4" fill="#010101"/>
  <rect x="100" y="88" width="4" height="4" fill="#010101"/>
</svg>
